<?xml version="1.0" encoding="iso-8859-1"?><!-- Generator: Adobe Illustrator 16.0.0, SVG Export Plug-In . SVG Version: 6.00 Build 0) --><!DOCTYPE svg PUBLIC "-//W3C//DTD SVG 1.1//EN" "http://www.w3.org/Graphics/SVG/1.1/DTD/svg11.dtd"><svg version="1.1" id="Layer_1" xmlns="http://www.w3.org/2000/svg" xmlns:xlink="http://www.w3.org/1999/xlink" x="0px" y="0px" width="192.756px" height="192.756px" viewBox="0 0 192.756 192.756" style="enable-background:new 0 0 192.756 192.756;" xml:space="preserve"><g><polygon style="fill-rule:evenodd;clip-rule:evenodd;fill:#FFFFFF;" points="0,0 192.756,0 192.756,192.756 0,192.756 0,0	"/><path style="fill-rule:evenodd;clip-rule:evenodd;fill:#C12127;" d="M31.567,119.977h-6.402l-2.03-6.559H11.267l-2.186,6.402H2.834	l11.087-31.231h6.871L31.567,119.977L31.567,119.977z M12.829,108.732h8.589l-4.061-13.896L12.829,108.732L12.829,108.732z"/><path style="fill-rule:evenodd;clip-rule:evenodd;fill:#1E447F;" d="M60.371,119.998h-6.402l-2.03-6.424H39.602l-1.718,6.402	h-6.246l11.087-31.231h6.871L60.371,119.998L60.371,119.998z M46.239,94.992l-4.528,13.897h8.588L46.239,94.992L46.239,94.992z"/><polygon style="fill-rule:evenodd;clip-rule:evenodd;fill:#1E447F;" points="60.553,88.695 68.096,88.695 67.646,91.047	62.565,91.047 62.26,92.724 66.945,92.724 66.548,94.84 61.863,94.84 61.493,96.84 66.614,96.84 66.164,99.191 58.594,99.191	60.553,88.695	"/><polygon style="fill-rule:evenodd;clip-rule:evenodd;fill:#1E447F;" points="74.126,88.695 76.587,88.695 75.052,96.84	79.472,96.84 79.022,99.191 72.154,99.191 74.126,88.695	"/><polygon style="fill-rule:evenodd;clip-rule:evenodd;fill:#1E447F;" points="86.455,88.695 93.998,88.695 93.547,91.047	88.466,91.047 88.162,92.724 92.846,92.724 92.45,94.84 87.765,94.84 87.394,96.84 92.516,96.84 92.065,99.191 84.496,99.191	86.455,88.695	"/><path style="fill-rule:evenodd;clip-rule:evenodd;fill:#1E447F;" d="M105.201,92.474c0.105-0.97-0.371-1.75-1.521-1.75	c-1.865,0-2.566,2.396-2.566,4.058c0,1.353,0.355,2.382,1.746,2.382c1.033,0,1.826-0.795,1.998-1.853h2.461	c-0.529,2.691-2.051,4.101-4.803,4.101c-1.496,0-3.865-0.838-3.865-4.733c0-3.382,1.867-6.204,5.068-6.204	c2.369,0,3.971,1.234,3.943,3.999H105.201L105.201,92.474z"/><polygon style="fill-rule:evenodd;clip-rule:evenodd;fill:#1E447F;" points="121.172,91.047 118.393,91.047 116.844,99.191	114.383,99.191 115.932,91.047 113.152,91.047 113.576,88.695 121.596,88.695 121.172,91.047	"/><path style="fill-rule:evenodd;clip-rule:evenodd;fill:#1E447F;" d="M127.057,88.695h4.633c1.719,0,3.029,0.485,3.029,2.72	c0,1.573-0.674,2.69-2.156,2.926v0.029c0.701,0.191,0.965,0.735,0.965,1.749c0,0.766-0.039,1.354-0.039,1.955	c0,0.369,0,0.824,0.146,1.117h-2.475c-0.041-0.205-0.08-0.396-0.08-0.602c0-0.545,0.066-1.104,0.066-1.809	c0-0.926-0.357-1.412-1.23-1.412h-1.643l-0.713,3.822h-2.463L127.057,88.695L127.057,88.695z M128.645,93.341h1.959	c0.887,0,1.654-0.309,1.654-1.441c0-0.897-0.676-1.088-1.324-1.088h-1.812L128.645,93.341L128.645,93.341z"/><path style="fill-rule:evenodd;clip-rule:evenodd;fill:#1E447F;" d="M145.078,88.475c1.641,0,4.207,0.676,4.207,4.439	c0,3.69-1.957,6.498-5.346,6.498c-2.633,0-4.156-1.719-4.156-4.645C139.783,91.283,141.822,88.475,145.078,88.475L145.078,88.475z M144.139,97.164c1.773,0,2.686-2.353,2.686-4.014c0-1.559-0.502-2.426-1.826-2.426c-1.906,0-2.752,2.323-2.752,4.058	C142.246,96.135,142.828,97.164,144.139,97.164L144.139,97.164z"/><polygon style="fill-rule:evenodd;clip-rule:evenodd;fill:#1E447F;" points="155.898,88.695 158.426,88.695 160.635,95.561	160.662,95.561 161.84,88.695 164.221,88.695 162.25,99.191 159.723,99.191 157.539,92.327 157.512,92.327 156.309,99.191	153.926,99.191 155.898,88.695	"/><polygon style="fill-rule:evenodd;clip-rule:evenodd;fill:#1E447F;" points="170.307,88.695 172.768,88.695 170.795,99.191	168.334,99.191 170.307,88.695	"/><path style="fill-rule:evenodd;clip-rule:evenodd;fill:#1E447F;" d="M184.146,92.474c0.105-0.97-0.371-1.75-1.521-1.75	c-1.867,0-2.568,2.396-2.568,4.058c0,1.353,0.357,2.382,1.748,2.382c1.031,0,1.826-0.795,1.998-1.853h2.461	c-0.529,2.691-2.051,4.101-4.803,4.101c-1.496,0-3.865-0.838-3.865-4.733c0-3.382,1.865-6.204,5.068-6.204	c2.369,0,3.971,1.234,3.943,3.999H184.146L184.146,92.474z"/><polygon style="fill-rule:evenodd;clip-rule:evenodd;fill:#1E447F;" points="187.182,88.399 188.324,88.399 188.324,88.567	187.848,88.567 187.848,89.806 187.658,89.806 187.658,88.567 187.182,88.567 187.182,88.399	"/><path style="fill-rule:evenodd;clip-rule:evenodd;fill:#1E447F;" d="M189.736,89.806v-0.831c0-0.042,0.004-0.22,0.004-0.351h-0.004	l-0.395,1.181h-0.189l-0.395-1.179h-0.004c0,0.129,0.004,0.307,0.004,0.349v0.831h-0.184v-1.407h0.271l0.402,1.189h0.004	l0.398-1.189h0.271v1.407H189.736L189.736,89.806z"/><polygon style="fill-rule:evenodd;clip-rule:evenodd;fill:#1E447F;" points="152.963,102.131 148.771,102.131 147.676,107.961	151.867,107.961 152.963,102.131	"/><path style="fill-rule:evenodd;clip-rule:evenodd;fill:#1E447F;" d="M179.258,105.588c1.486,0,2.727,0.951,2.682,2.629h3.967	c0.111-4.432-2.523-6.461-6.58-6.461c-4.953,0-7.217,3.242-8.244,6.205h4.451C176.312,106.572,177.527,105.588,179.258,105.588	L179.258,105.588z"/><path style="fill-rule:evenodd;clip-rule:evenodd;fill:#1E447F;" d="M178.447,113.674h2.951c-0.631,2.129-1.713,2.881-3.695,2.881	c-1.947,0-3.027-1.164-3.227-3.238h-4.207v0.002h-2.508l0.379-2.02h2.193c-0.068,0.604-0.09,1.072-0.09,1.299	c0,0.049,0.004,0.094,0.004,0.143h4.195c0-0.049-0.008-0.092-0.008-0.143c0-0.533,0.043-1.082,0.125-1.629h-4.188v0.002h-2.172	l0.395-2.102h2.211c-0.146,0.537-0.266,1.055-0.346,1.523h4.201c0.133-0.646,0.324-1.273,0.584-1.854h-4.352c0,0,0,0,0,0.002	h-2.236l1.205-6.41h-4.057l-1.1,6.41h-2.652l-2.062-6.41h-4.305l-1.203,6.41h-2.727l0.002-0.002h-4.191l-0.002,0.002h-2.697	c-0.404-4.641-3.291-6.41-7.111-6.41h-6.041l-1.109,5.83h4.189l0.346-1.822h2.412c1.547,0,2.646,0.658,3.027,2.402h-5.895v-0.002	h-4.189v0.002h-2.432c0.135-0.543,0.205-1.137,0.205-1.777c0-3.807-2.23-4.633-5.16-4.633h-7.887l-1.197,6.41h-4.818l-0.945-6.41	h-4.236l-3.064,5.83h3.836l0.49-1.047h0.047l0.152,1.627h-0.961v-0.002h-3.867v0.002h-4.932c-0.346-5.717-4.457-6.785-7.132-6.785	c-4.035,0-6.963,2.539-8.263,6.205h4.553c0.766-1.371,1.941-2.373,3.575-2.373c1.89,0,2.789,1.051,3.032,2.953h-6.895	c0-0.002,0-0.002,0.001-0.002h-4.456c0,0,0,0,0,0.002h-2.428c0.358-0.689,0.562-1.527,0.562-2.504c0-1.953-0.676-3.906-5.025-3.906	h-7.504L62.39,120.01h7.865c4.71-0.025,7.324-2.379,7.324-6.01c0-0.119-0.014-0.234-0.023-0.352h2.087	c0.385,4.26,2.898,6.736,7.016,6.736c4.345,0,7.307-2.713,8.506-6.736h2.811l-3.344,6.361h4.395l1.623-3.205h5.656l0.383,3.205	h4.213l-0.938-6.361h3.113l-1.188,6.361h4.191l1.189-6.361h3.756c0.812,0.301,1.162,1.062,1.162,2.254	c0,1.203-0.113,2.154-0.113,3.08c0,0.352,0.068,0.676,0.135,1.027h4.215c-0.248-0.5-0.248-1.277-0.248-1.902	c0-1.027,0.068-2.029,0.068-3.33c0-0.426-0.029-0.799-0.088-1.129h3.369l-1.211,6.361h7.189c4.783,0,7.691-2.678,8.844-6.361h2.26	l-1.193,6.361h4.191l1.193-6.361h2.727l-1.195,6.361h4.057l1.115-6.361h2.676l2.023,6.361h4.303l1.195-6.361h2.598	c0.373,5.152,3.449,6.736,6.324,6.736c2.592,0,3.695-0.701,4.664-2.178h0.045l-0.09,1.803h2.682l1.871-9.791H179.1L178.447,113.674	L178.447,113.674z M163.887,113.318h-0.295l-0.648-2.02h1.289L163.887,113.318L163.887,113.318z M164.65,108.869l-0.361,2.102	h-1.453l-0.676-2.102H164.65L164.65,108.869z M159.326,110.971h-1.355l0.369-2.102h0.318L159.326,110.971L159.326,110.971z M158.438,108.316h0.045l0.07,0.225h-0.154L158.438,108.316L158.438,108.316z M147.506,108.869l-0.287,1.523h4.191l0.287-1.523	h2.725l-0.395,2.102h-2.725v-0.002h-4.191v0.002h-2.25c0.037-0.42,0.061-0.846,0.061-1.277c0-0.285-0.012-0.557-0.027-0.824	H147.506L147.506,108.869z M130.436,108.869l-0.291,1.523h4.191l0.289-1.523h6.018c0.057,0.359,0.088,0.756,0.088,1.199	c0,0.285-0.016,0.588-0.051,0.902h-6.453v-0.002h-4.191v0.002h-3.525c0.695-0.508,1.176-1.221,1.455-2.102H130.436L130.436,108.869	z M118.148,108.869h5.652c-0.459,0.889-1.441,1.176-2.537,1.176h-3.336L118.148,108.869L118.148,108.869z M118.74,105.736h3.086	c1.105,0,2.254,0.326,2.254,1.854c0,0.371-0.061,0.678-0.15,0.951h-5.719L118.74,105.736L118.74,105.736z M113.967,108.869	l-0.393,2.102h-4.006l-0.311-2.102H113.967L113.967,108.869z M100.486,108.869l-0.801,1.523h3.973l0.715-1.523h1.146l0.199,2.102	h-2.332v-0.002h-4.004v0.002h-3.71c0.054-0.539,0.09-1.088,0.09-1.652c0-0.158-0.015-0.297-0.02-0.449H100.486L100.486,108.869z M80.057,108.869c-0.134,0.494-0.249,0.998-0.324,1.523h4.271c0.111-0.521,0.273-1.031,0.469-1.523h7.061	c0.022,0.27,0.037,0.549,0.037,0.85c0,0.398-0.034,0.82-0.096,1.252h-7.577v-0.002h-4.23v0.002H76.25	c-0.278-0.219-0.595-0.383-0.947-0.477v-0.049c0.957-0.234,1.714-0.781,2.228-1.576H80.057L80.057,108.869z M70.525,116.354h-3.29	l0.766-4.057h2.952c1.082,0,2.434,0.127,2.434,1.777C73.387,116.004,71.99,116.354,70.525,116.354L70.525,116.354z M71.562,109.168	h-2.975l0.631-3.381h2.749c0.901,0,2.119,0.1,2.119,1.402C74.086,108.566,73.252,109.168,71.562,109.168L71.562,109.168z M77.522,113.318c-0.12-0.775-0.438-1.49-0.924-2.02h3.042c-0.033,0.387-0.058,0.775-0.058,1.174c0,0.092,0.007,0.178,0.009,0.268	h4.189c-0.003-0.08-0.007-0.16-0.007-0.242c0-0.385,0.034-0.789,0.085-1.199h7.565c-0.121,0.68-0.317,1.369-0.586,2.02h-7.018	c0,0,0-0.002,0-0.002H79.61v0.002H77.522L77.522,113.318z M86.996,116.555c-1.839,0-2.826-1.199-3.12-2.906h6.82	C89.942,115.273,88.704,116.555,86.996,116.555L86.996,116.555z M95.25,113.318c0.173-0.645,0.304-1.316,0.389-2.02h3.571	l-0.758,1.441h4.105l0.676-1.441h2.518l0.191,2.02h-3.656v-0.002h-4.137v0.002H95.25L95.25,113.318z M109.914,113.318l-0.297-2.02	h3.896l-0.377,2.02H109.914L109.914,113.318z M126.078,113.318c-0.223-0.812-0.682-1.305-1.479-1.521v-0.051	c0.52-0.082,0.965-0.242,1.371-0.447h4.002l-0.275,1.441h4.193l0.273-1.441h6.471c-0.1,0.672-0.285,1.369-0.58,2.02h-6.273v-0.002	h-4.193v0.002H126.078L126.078,113.318z M136.045,116.004h-2.773l0.447-2.355h6.17	C139.188,114.967,137.986,116.004,136.045,116.004L136.045,116.004z M150.861,113.318v-0.002h-4.191v0.002h-2.232	c0.182-0.648,0.311-1.322,0.389-2.02h2.223l-0.27,1.441h4.191l0.27-1.441h2.725l-0.379,2.02H150.861L150.861,113.318z M157.559,113.318l0.355-2.02h1.516l0.643,2.02H157.559l6.242,0.506h-0.045l-0.059-0.176h0.133l-0.029,0.176L157.559,113.318	L157.559,113.318z"/><path style="fill-rule:evenodd;clip-rule:evenodd;fill:#1E447F;" d="M27.989,97.816c0.32-0.059,0.388-1.205,0.388-1.205	c0.126,0.176,0.243,1.205,0.243,1.205h0.796l-1.207-3.738l-2.61,3.711h1.204c0.32-0.057,0.388-1.203,0.388-1.203	c0.126,0.176,0.243,1.203,0.243,1.203L27.989,97.816L27.989,97.816z"/><path style="fill-rule:evenodd;clip-rule:evenodd;fill:#1E447F;" d="M37.41,98.305L28.792,72.41l-1.126,2.989	c-0.175,0.33,1.019,1.524,1.019,1.524l-1.407-0.524l-0.776,2.261c-0.107,0.146,1.232,1.058,1.232,1.058	c-0.292-0.039-1.427-0.398-1.427-0.398c-0.35,0.815-0.679,2.64-0.679,2.64c-0.116,0.204,1.767,0.534,1.767,0.534	c-0.233,0.116-1.786,0.058-1.786,0.058c0.194,1.281,0.621,2.281,0.621,2.281c0.078,0.292,1.737,0.243,1.737,0.243	c-0.291,0.165-1.63,0.311-1.63,0.311l0.708,2.048c0.146,0.408,1.883,0.476,1.883,0.476c-0.155,0.155-1.631,0.33-1.631,0.33	l0.68,1.912c0.175,0.496,1.767,0.718,1.767,0.718c-0.224,0.02-1.378,0.252-1.378,0.252l2.699,8.425h0.921l0.262,0.426	c-0.485,0.195-0.214,0.719-0.214,0.719c0.107-0.311,0.408-0.291,0.408-0.291h1.271c0.214,0.049,0.359,0.242,0.359,0.242	c0.068-0.455-0.213-0.553-0.213-0.553c-0.457-0.193-0.718-0.213-0.718-0.213l-0.427-0.428l0.699-1.961h0.815l2.213,2.582	c0.291,0.242,0.078,0.621,0.078,0.621c0.786,0.02,0.815-0.543,0.815-0.543c0.02-0.35-0.02-0.738-0.02-0.738	C37.74,99.295,37.41,98.305,37.41,98.305L37.41,98.305z"/><path style="fill-rule:evenodd;clip-rule:evenodd;fill:#1E447F;" d="M36.794,93.288l3.255-9.503	c0.65-1.999,0.117-3.067,0.117-3.067l-2.756-8.347l-1.446,3.775c-0.175,0.466,1.097,1.504,1.097,1.504	c-0.233,0.077-1.359-0.505-1.359-0.505l-0.543,1.32c-0.078,0.738,1.203,1.281,1.203,1.281c-0.155,0.039-1.437-0.388-1.437-0.388	L34.43,80.66c-0.175,0.427,1.271,1.339,1.271,1.339c-0.232,0.039-1.514-0.388-1.514-0.388l-0.615,1.894L36.794,93.288	L36.794,93.288z"/></g></svg>