<?xml version="1.0" encoding="iso-8859-1"?><!-- Generator: Adobe Illustrator 16.0.0, SVG Export Plug-In . SVG Version: 6.00 Build 0) --><!DOCTYPE svg PUBLIC "-//W3C//DTD SVG 1.1//EN" "http://www.w3.org/Graphics/SVG/1.1/DTD/svg11.dtd"><svg version="1.1" id="Layer_1" xmlns="http://www.w3.org/2000/svg" xmlns:xlink="http://www.w3.org/1999/xlink" x="0px" y="0px" width="192.756px" height="192.756px" viewBox="0 0 192.756 192.756" style="enable-background:new 0 0 192.756 192.756;" xml:space="preserve"><g><polygon style="fill-rule:evenodd;clip-rule:evenodd;" points="0,0 192.756,0 192.756,192.756 0,192.756 0,0	"/><path style="fill-rule:evenodd;clip-rule:evenodd;fill:#CC262D;" d="M94.886,113.846c-16.666,14.826-49.768,28.965-80.219,22.02	c-2.417-0.553-3.079-1.525-3.632-4.035c-5.981-27.105,4.768-57.228,23.707-75.364c1.123-1.075,2.637-1.329,4.084-0.877	c35.404,11.075,50.277,33.153,57.927,54.136C97.355,111.381,95.977,112.877,94.886,113.846L94.886,113.846z M16.014,129.627	c21.506-22.625,24.057-45.9,20.741-68.373C18.135,79.746,11.674,104.426,16.014,129.627L16.014,129.627z M90.798,109.539	c-23.931-6.506-45.61-25.72-52.081-48.875C65.562,68.133,82.319,86.288,90.798,109.539L90.798,109.539z M90.078,111.371	c-15.215,15.756-51.966,25.637-72.559,19.76C34.06,115.166,69.06,105.729,90.078,111.371L90.078,111.371z"/><path style="fill-rule:evenodd;clip-rule:evenodd;fill:#FFFFFF;" d="M111.996,92.202h8.701l1.965-5.692h-8.701L111.996,92.202	L111.996,92.202z M110.1,91.874h-5.955l-5.887,15.571h-8.964l5.888-15.571H77.974l-1.963,0.131	c-0.458,0.065-0.785,0.393-0.982,0.719l-3.075,7.982c-0.13,0.326-0.13,0.654,0.131,0.85c0.327,0.328,0.851,0.59,1.833,0.59h12.235	l-1.963,5.299H69.796c-6.216,0-8.636-1.83-7.198-5.43l3.926-10.599c1.047-2.813,3.664-4.449,7.851-4.907h37.687L110.1,91.874	L110.1,91.874z M127.438,101.033c-0.064,0.785,0.588,1.178,2.094,1.178h4.711l1.504-0.195v-0.197	c0.328-0.129,0.523-0.262,0.656-0.457l8.309-12.432h0.064l1.57-2.29h8.834l-12.236,18.319c-0.521,0.523-1.111,0.982-1.766,1.309	h-0.064l-0.459,0.197c-1.439,0.654-3.271,0.98-5.365,0.98h-10.795c-4.123,0-5.955-1.309-5.627-3.99l6.215-16.815h7.59	L127.438,101.033L127.438,101.033z M110.885,95.015l-4.449,12.431h8.701l4.449-12.431H110.885L110.885,95.015z M162.572,93.51	l-0.785,2.094l11.908-2.421l0.131-0.198c0-0.587-0.457-0.784-1.439-0.915h-6.543l-0.982,0.131c-0.783,0.13-1.439,0.458-1.83,0.784	L162.572,93.51L162.572,93.51z M161.133,102.146h18.123l-1.832,5.299h-19.236l-3.139-0.064l-1.832-0.459	c-1.309-0.523-2.227-1.111-2.553-1.832c-0.393-0.785-0.393-1.766,0-3.074l3.926-10.599l0.59-1.047	c1.832-2.551,5.104-3.86,9.682-3.86h13.414c3.795,0.327,5.43,1.767,5.104,4.188l-1.832,5.103l-21.461,4.58l-0.131,0.328	c-0.131,0.457-0.131,0.785,0.131,1.111C160.283,102.016,160.609,102.146,161.133,102.146L161.133,102.146z M39.568,99.529	l-0.654,1.635c-0.13,0.328-0.13,0.525,0.196,0.654c0.131,0.328,0.589,0.393,1.309,0.523h7.852c0.916,0,1.57-0.131,2.094-0.457	c0.458-0.195,0.785-0.393,0.851-0.721l0.589-1.439c0.065-0.457,0.196-0.652,0.065-0.783c-0.065-0.066-0.327-0.197-0.851-0.328	l-1.308-0.197H41.4C40.418,98.549,39.895,98.875,39.568,99.529L39.568,99.529z M41.4,93.51h12.758l0.327-1.112	c0.132-0.524-0.392-0.72-1.7-0.851h-19.89l1.963-5.038h23.554c2.291,0.13,4.057,0.589,5.038,1.112	c0.981,0.523,1.308,1.505,1.178,2.813c0,0.262,0,0.588-0.065,0.982l-4.253,11.123c-0.262,0.457-0.458,0.785-0.589,0.98	c-0.85,1.244-2.159,2.096-3.99,2.879c-1.897,0.721-3.86,1.047-5.889,1.047H36.624c-5.431,0-8.178-1.309-8.047-3.795l0.196-0.523	v-0.326l1.505-4.252c0.589-1.637,1.898-2.879,3.86-3.73C36.101,93.968,38.456,93.51,41.4,93.51L41.4,93.51z"/><path style="fill-rule:evenodd;clip-rule:evenodd;fill:#FFFFFF;" d="M31.193,110.193l0.393,0.197	c0.131,0.131,0.262,0.326,0.131,0.588l-0.327,3.469l2.29-3.469c0.327-0.457,0.654-0.654,1.178-0.785h0.458	c0.458,0,0.786,0.131,0.851,0.328c0.131,0.195,0.262,0.457,0.131,0.785l-1.831,4.973h-1.571l1.635-4.318l-2.486,3.664l-0.327,0.326	l-0.458,0.328l-0.655,0.131l-0.522-0.197l-0.131-0.588l0.261-3.664l-1.635,4.318h-1.57l1.963-4.973	c0.13-0.328,0.327-0.59,0.655-0.785c0.327-0.197,0.654-0.328,1.112-0.328H31.193L31.193,110.193z M51.476,113.793l0.065-1.963	l-1.374,1.963H51.476L51.476,113.793z M49.251,114.971l-0.981,1.309h-1.637l4.058-5.301c0.327-0.588,0.851-0.785,1.504-0.785	c0.589,0,0.917,0.197,0.981,0.785l-0.065,5.301h-1.636l0.065-1.309H49.251L49.251,114.971z M69.142,110.193l-2.291,6.086h-1.636	l2.29-6.086H69.142L69.142,110.193z M81.77,114.643c-0.131,0.262,0,0.328,0.196,0.328h2.879l-0.589,1.309h-3.141	c-0.523,0-0.981-0.066-1.112-0.328c-0.065-0.326-0.065-0.654,0.131-1.047l1.636-4.711h1.635L81.77,114.643L81.77,114.643z M100.09,111.633l-0.197,0.328l-0.98,2.617c-0.133,0.064-0.133,0.195,0,0.326l0.326,0.066h0.98c0.197,0,0.328,0,0.393-0.066	c0.131,0,0.262-0.131,0.262-0.262l0.982-2.682l0.064-0.328l-0.393-0.131h-0.98L100.09,111.633L100.09,111.633z M102.379,110.193	c1.111,0,1.506,0.459,1.178,1.309l-1.311,3.469c-0.326,0.916-1.045,1.309-2.156,1.309h-1.832c-0.459,0-0.787-0.066-0.982-0.197	c-0.131-0.131-0.262-0.457-0.262-0.785l0.131-0.064v-0.262l1.309-3.469l0.131-0.131l0.066-0.195	c0.129-0.328,0.326-0.523,0.654-0.654l1.242-0.328H102.379L102.379,110.193z M119.586,111.502h-1.635l-1.832,4.777h-1.637	l2.291-6.086h3.729c0.852,0,1.309,0.328,1.178,1.113l-0.131,0.195l-0.523,1.178v0.131l-0.131,0.131	c-0.326,0.523-0.85,0.852-1.504,0.982h-0.523l0.98,2.355h-1.896l-0.852-2.291l0.131-0.393l0.393-0.588l0.787-0.197h0.652	c0.328,0,0.459-0.131,0.523-0.326l0.262-0.523C119.914,111.699,119.848,111.633,119.586,111.502L119.586,111.502z M137.514,111.502	h-1.768l-1.307,3.469h1.635c0.195,0,0.328,0,0.459-0.066c0.064,0,0.064-0.131,0.195-0.326l1.111-2.748l-0.129-0.197	C137.711,111.633,137.58,111.633,137.514,111.502L137.514,111.502z M139.477,111.633l-1.439,3.6	c-0.457,0.719-1.113,1.047-1.963,1.047h-3.795l2.289-6.086h3.664C139.346,110.193,139.805,110.652,139.477,111.633L139.477,111.633	z M154.066,111.502l-0.131,0.131c-0.195,0-0.326,0.066-0.393,0.328l-0.262,0.654h3.207l-0.59,1.309h-3.141l-0.195,0.654	c-0.131,0.326,0,0.393,0.195,0.393h2.814l-0.523,1.309h-3.076c-1.178,0-1.504-0.393-1.178-1.309l1.309-3.338l0.197-0.326	c0.326-0.785,0.916-1.113,1.766-1.113h3.271l-0.457,1.309H154.066L154.066,111.502z M172.713,111.502h-1.635l-1.832,4.777h-1.637	l2.291-6.086h3.664c0.916,0,1.309,0.328,1.242,1.113l-0.131,0.195l-0.521,1.178v0.131l-0.133,0.131	c-0.326,0.523-0.85,0.852-1.504,0.982h-0.59l0.982,2.355h-1.832l-0.852-2.291l0.066-0.393l0.457-0.588l0.785-0.197h0.654	c0.328,0,0.395-0.131,0.523-0.326l0.197-0.523C173.041,111.699,172.91,111.633,172.713,111.502L172.713,111.502z"/></g></svg>