<?xml version="1.0" encoding="iso-8859-1"?><!-- Generator: Adobe Illustrator 16.0.0, SVG Export Plug-In . SVG Version: 6.00 Build 0) --><!DOCTYPE svg PUBLIC "-//W3C//DTD SVG 1.1//EN" "http://www.w3.org/Graphics/SVG/1.1/DTD/svg11.dtd"><svg version="1.1" id="Layer_1" xmlns="http://www.w3.org/2000/svg" xmlns:xlink="http://www.w3.org/1999/xlink" x="0px" y="0px" width="192.756px" height="192.756px" viewBox="0 0 192.756 192.756" style="enable-background:new 0 0 192.756 192.756;" xml:space="preserve"><g><polygon style="fill-rule:evenodd;clip-rule:evenodd;fill:#FFFFFF;" points="0,0 192.756,0 192.756,192.756 0,192.756 0,0	"/><path style="fill-rule:evenodd;clip-rule:evenodd;fill:#3581C4;" d="M103.277,82.809c-1.342,0-2.637,0.202-3.859,0.573l0,0h-8.106	H74.809h-0.94h-6.876h-5.776h-6.877h-1.925h-6.991h-16.48l-0.963,0.962h16.48l-1.147,1.146H26.811l-0.962,0.963h16.5l-1.124,1.123	H24.748l-0.963,0.963h16.477l-1.124,1.123H22.616l-0.962,0.962h16.52l-1.147,1.146H20.553l-0.963,0.963h16.473l-1.125,1.123H18.421	l-0.963,0.963h16.517l-1.147,1.146h-16.47l-0.962,0.94h16.491l-1.124,1.123H14.25l-0.963,0.963H29.8l-1.125,1.123H12.164	l-0.962,0.963h16.511l-1.147,1.146h-16.51l-0.963,0.963h16.509l-1.124,1.123H7.969l-0.963,0.963h16.507l-1.147,1.146H5.86	l-0.963,0.962h16.506l-1.125,1.123H3.797l-0.963,0.964h16.48h9.719h16.389h6.991h8.209l0,0c1.071,0.319,2.241,0.48,3.481,0.48	s2.411-0.161,3.481-0.48l0,0h12.037h6.876h15.238l0,0c0.506,0.058,1.02,0.092,1.541,0.092c7.402,0,13.387-5.983,13.387-13.363	C116.664,88.814,110.68,82.809,103.277,82.809L103.277,82.809L103.277,82.809L103.277,82.809z M94.693,106.418h-8.195v-1.146h6.995	l0,0C93.869,105.678,94.27,106.061,94.693,106.418L94.693,106.418L94.693,106.418L94.693,106.418z M52.414,100.114v-1.123h1.925	v1.123H52.414L52.414,100.114L52.414,100.114z M79.623,89.204v0.458h-5.754v-1.123h0.94v0.665H79.623L79.623,89.204L79.623,89.204z M91.375,102.223h-4.876v-1.146h4.362l0,0C91.014,101.469,91.186,101.851,91.375,102.223L91.375,102.223L91.375,102.223	L91.375,102.223z M79.623,94.819v1.146h-5.754v-1.146H79.623L79.623,94.819L79.623,94.819z M73.869,93.856v-1.123h5.754v1.123	H73.869L73.869,93.856L73.869,93.856z M66.992,95.965h-5.776v-1.146h5.776V95.965L66.992,95.965L66.992,95.965z M66.992,96.905	v1.123h-5.776v-1.123H66.992L66.992,96.905L66.992,96.905z M73.869,96.905h5.754v1.123h-5.754V96.905L73.869,96.905L73.869,96.905z M79.623,98.991v1.123h-5.754v-1.123H79.623L79.623,98.991L79.623,98.991z M79.623,101.077v1.146h-5.882l0,0	c0.054-0.369,0.091-0.751,0.11-1.146l0,0H79.623L79.623,101.077L79.623,101.077z M90.522,100.114h-4.023v-1.123h3.733l0,0	C90.313,99.371,90.41,99.746,90.522,100.114L90.522,100.114L90.522,100.114L90.522,100.114z M90.065,98.028h-3.567v-1.123h3.458	l0,0C89.976,97.284,90.014,97.658,90.065,98.028L90.065,98.028L90.065,98.028L90.065,98.028z M89.943,95.965h-3.444v-1.146h3.509	l0,0C89.968,95.197,89.949,95.58,89.943,95.965L89.943,95.965L89.943,95.965L89.943,95.965z M90.145,93.856h-3.646v-1.123h3.893	l0,0C90.293,93.102,90.211,93.477,90.145,93.856L90.145,93.856L90.145,93.856L90.145,93.856z M90.689,91.771h-4.19v-1.146h4.652	l0,0C90.98,90.998,90.826,91.38,90.689,91.771L90.689,91.771L90.689,91.771L90.689,91.771z M79.623,91.771h-5.754v-1.146h5.754	V91.771L79.623,91.771L79.623,91.771z M73.869,87.576v-1.123h0.94v1.123H73.869L73.869,87.576L73.869,87.576z M66.992,87.576	h-5.776v-1.123h5.776V87.576L66.992,87.576L66.992,87.576z M66.992,88.539v1.123h-5.776v-1.123H66.992L66.992,88.539L66.992,88.539	z M66.992,90.625v1.146h-5.776v-1.146H66.992L66.992,90.625L66.992,90.625z M66.992,92.733v1.123h-5.776v-1.123H66.992	L66.992,92.733L66.992,92.733z M54.339,93.856h-1.925v-1.123h1.925V93.856L54.339,93.856L54.339,93.856z M54.339,94.819v1.146	h-1.925v-1.146H54.339L54.339,94.819L54.339,94.819z M54.339,96.905v1.123h-1.925v-1.123H54.339L54.339,96.905L54.339,96.905z M61.216,98.991h5.776v1.123h-5.776V98.991L61.216,98.991L61.216,98.991z M66.979,101.077c-0.039,0.414-0.164,0.802-0.358,1.146	l0,0h-5.033l0,0c-0.193-0.344-0.319-0.731-0.357-1.146l0,0H66.979L66.979,101.077L66.979,101.077z M65.741,103.186	c-0.464,0.318-1.027,0.504-1.637,0.504c-0.61,0-1.172-0.186-1.637-0.504l0,0H65.741L65.741,103.186L65.741,103.186z M73.558,103.186h6.064v1.123h-6.406l0,0C73.35,103.951,73.465,103.577,73.558,103.186L73.558,103.186L73.558,103.186	L73.558,103.186z M79.623,105.271v1.146H72.08l0,0c0.265-0.356,0.503-0.738,0.714-1.146l0,0H79.623L79.623,105.271L79.623,105.271z M86.499,104.309v-1.123h5.411l0,0c0.239,0.389,0.498,0.763,0.773,1.123l0,0H86.499L86.499,104.309L86.499,104.309z M91.64,89.662	h-5.141v-0.458h4.813v-0.665h1.031l0,0C92.091,88.901,91.856,89.275,91.64,89.662L91.64,89.662L91.64,89.662L91.64,89.662z M93.08,87.576h-1.768v-1.123h2.829l0,0C93.767,86.807,93.412,87.182,93.08,87.576L93.08,87.576L93.08,87.576L93.08,87.576z M97.082,84.344c-0.633,0.335-1.238,0.717-1.806,1.146l0,0h-3.964v-1.146H97.082L97.082,84.344L97.082,84.344z M74.809,84.344	v1.146h-0.94v-1.146H74.809L74.809,84.344L74.809,84.344z M66.992,84.344v1.146h-5.776v-1.146H66.992L66.992,84.344L66.992,84.344z M52.414,84.344h1.925v1.146h-1.925V84.344L52.414,84.344L52.414,84.344z M52.414,86.453h1.925v1.123h-1.925V86.453L52.414,86.453	L52.414,86.453z M52.414,88.539h1.925v1.123h-1.925V88.539L52.414,88.539L52.414,88.539z M52.414,90.625h1.925v1.146h-1.925V90.625	L52.414,90.625L52.414,90.625z M45.158,92.733h0.265v1.123h-1.348L45.158,92.733L45.158,92.733L45.158,92.733z M43.146,94.819	h2.276v1.146h-3.381L43.146,94.819L43.146,94.819L43.146,94.819z M41.135,96.905h4.288v1.123h-5.37L41.135,96.905L41.135,96.905	L41.135,96.905z M39.125,98.991h6.298v1.123h-4.332h-3.05L39.125,98.991L39.125,98.991L39.125,98.991z M52.414,101.077h1.943l0,0	c0.019,0.395,0.057,0.776,0.11,1.146l0,0h-2.054V101.077L52.414,101.077L52.414,101.077z M52.414,103.186h2.236l0,0	c0.094,0.392,0.209,0.766,0.342,1.123l0,0h-2.578V103.186L52.414,103.186L52.414,103.186z M55.415,105.271	c0.21,0.408,0.449,0.79,0.714,1.146l0,0h-3.715v-1.146H55.415L55.415,105.271L55.415,105.271z M32.702,105.615h8.389h4.332v0.803	H31.938L32.702,105.615L32.702,105.615L32.702,105.615z M29.951,108.503l1.07-1.123h14.402v1.123H29.951L29.951,108.503	L29.951,108.503z M52.414,108.503v-1.123h4.56l0,0c0.44,0.427,0.928,0.802,1.458,1.123l0,0H52.414L52.414,108.503L52.414,108.503z M69.776,108.503c0.53-0.321,1.018-0.696,1.458-1.123l0,0h8.388v1.123H69.776L69.776,108.503L69.776,108.503z M86.499,108.503	v-1.123h9.487l0,0c0.66,0.434,1.358,0.812,2.093,1.123l0,0H86.499L86.499,108.503L86.499,108.503z M103.277,103.094	c-3.805,0-6.899-3.094-6.899-6.898c0-3.828,3.095-6.923,6.899-6.923c3.828,0,6.922,3.095,6.922,6.923	C110.199,100,107.105,103.094,103.277,103.094L103.277,103.094L103.277,103.094L103.277,103.094z"/><path style="fill-rule:evenodd;clip-rule:evenodd;fill:#3581C4;" d="M103.277,91.198c-2.75,0-4.998,2.223-4.998,4.998l0,0l0,0	h-0.916l0,0l0,0c0-3.278,2.658-5.938,5.914-5.938l0,0l0,0V91.198L103.277,91.198L103.277,91.198L103.277,91.198z"/><path style="fill-rule:evenodd;clip-rule:evenodd;fill:#3581C4;" d="M100.045,95.759c0.207-1.467,1.352-2.613,2.82-2.796l0,0l0,0	v-0.94l0,0l0,0c-1.973,0.206-3.531,1.765-3.736,3.736l0,0l0,0H100.045L100.045,95.759L100.045,95.759L100.045,95.759z"/><path style="fill-rule:evenodd;clip-rule:evenodd;fill:#3581C4;" d="M101.947,95.507c0.16-0.275,0.391-0.504,0.666-0.642l0,0l0,0	v-0.962l0,0l0,0c-0.781,0.229-1.377,0.848-1.605,1.604l0,0l0,0H101.947L101.947,95.507L101.947,95.507L101.947,95.507z"/><path style="fill-rule:evenodd;clip-rule:evenodd;fill:#3581C4;" d="M103.277,101.168c2.773,0,5.02-2.223,5.02-4.973l0,0l0,0h0.918	l0,0l0,0c0,3.254-2.66,5.913-5.938,5.913l0,0l0,0V101.168L103.277,101.168L103.277,101.168L103.277,101.168z"/><path style="fill-rule:evenodd;clip-rule:evenodd;fill:#3581C4;" d="M106.531,96.607c-0.205,1.467-1.352,2.613-2.818,2.796l0,0l0,0	v0.94l0,0l0,0c1.971-0.207,3.529-1.766,3.736-3.736l0,0l0,0H106.531L106.531,96.607L106.531,96.607L106.531,96.607z"/><path style="fill-rule:evenodd;clip-rule:evenodd;fill:#3581C4;" d="M104.629,96.859c-0.16,0.275-0.389,0.504-0.664,0.642l0,0l0,0	v0.963l0,0l0,0c0.779-0.229,1.375-0.849,1.605-1.604l0,0l0,0H104.629L104.629,96.859L104.629,96.859L104.629,96.859z"/><path style="fill-rule:evenodd;clip-rule:evenodd;fill:#CA333B;" d="M137.912,89.685c0-3.645-2.637-6.121-6.693-6.121	c-4.035,0-10.635,0-10.635,0l0,0l-1.996,8.642l-3.986,17.168h6.646l1.902-8.344l0,0c0,0,1.764,0,3.393,0	C132.754,101.031,137.912,96.012,137.912,89.685L137.912,89.685L137.912,89.685L137.912,89.685z M127.139,95.186	c-1.123,0-2.637,0-2.637,0l0,0l0.688-2.957l0.666-2.911l0,0c0,0,1.328,0,2.566,0c1.926,0,2.75,1.008,2.75,2.109	C131.172,92.779,130.119,95.186,127.139,95.186L127.139,95.186L127.139,95.186L127.139,95.186z"/><polygon style="fill-rule:evenodd;clip-rule:evenodd;fill:#CA333B;" points="147.08,83.588 140.365,83.588 134.428,109.375	148.363,109.375 149.693,103.507 142.473,103.507 147.08,83.588 147.08,83.588	"/><path style="fill-rule:evenodd;clip-rule:evenodd;fill:#CA333B;" d="M173.463,83.564h-6.418l0,0c0,0-3.209,14.028-3.758,16.344	c-0.529,2.314-2.109,3.713-4.127,3.713c-1.926,0-2.705-1.582-2.338-3.232c0.389-1.649,3.873-16.824,3.873-16.824l0,0h-6.395l0,0	c-1.605,6.9-3.277,14.211-4.104,17.765c-1.328,5.776,2.752,8.114,7.266,8.114c4.77,0,10.545-2.178,12.402-10.292	C170.781,95.209,173.463,83.564,173.463,83.564L173.463,83.564L173.463,83.564L173.463,83.564z"/><path style="fill-rule:evenodd;clip-rule:evenodd;fill:#CA333B;" d="M189.371,91.015c0.297-1.009,0.389-1.926,0.389-2.682	c0-3.002-2.59-5.203-6.646-5.203c-5.639,0-10.543,4.424-10.543,9.191c0,3.416,1.787,4.493,5.592,6.441	c1.879,0.963,2.545,1.375,2.545,2.591c0,1.306-1.354,2.796-2.844,2.796c-1.396,0-2.016-1.055-2.016-2.018	c0-0.435,0.045-1.077,0.184-1.443c-2.5,0-6.006,0-6.006,0c-0.299,0.848-0.436,1.971-0.436,2.819c0,4.446,3.07,6.188,6.83,6.188	c5.547,0,11.072-4.676,11.072-9.559c0-2.934-1.766-4.974-5.043-6.418c-1.949-0.871-3.141-1.65-3.141-2.979	c0-1.077,1.443-2.177,2.498-2.177c1.078,0,2.133,0.825,1.879,2.453C186.346,91.015,189.371,91.015,189.371,91.015L189.371,91.015	L189.371,91.015L189.371,91.015z"/><path style="fill-rule:evenodd;clip-rule:evenodd;fill:#CA333B;" d="M188.34,107.105c0.113-0.023,0.205-0.046,0.275-0.068	c0.068-0.069,0.113-0.139,0.113-0.229c0-0.114-0.045-0.206-0.113-0.253c-0.07-0.045-0.162-0.068-0.275-0.068l0,0v-0.252l0,0	c0.252,0.022,0.436,0.046,0.549,0.138c0.139,0.091,0.207,0.206,0.207,0.39c0,0.137-0.045,0.252-0.115,0.32	c-0.068,0.092-0.184,0.161-0.32,0.184l0,0l0.436,0.871h-0.412l-0.344-0.733V107.105L188.34,107.105L188.34,107.105L188.34,107.105z M188.34,108.87c0.184,0,0.367-0.046,0.549-0.114c0.207-0.092,0.391-0.206,0.551-0.367c0.16-0.16,0.275-0.32,0.367-0.527	c0.092-0.206,0.115-0.412,0.115-0.642s-0.023-0.436-0.115-0.642c-0.092-0.184-0.207-0.367-0.367-0.527s-0.32-0.275-0.527-0.366	c-0.184-0.069-0.367-0.115-0.572-0.138l0,0v0.229l0,0c0.184,0,0.344,0.047,0.48,0.115c0.184,0.068,0.344,0.184,0.482,0.32	c0.137,0.115,0.229,0.275,0.297,0.459s0.115,0.367,0.115,0.573c0,0.183-0.047,0.366-0.115,0.526	c-0.068,0.184-0.184,0.345-0.297,0.459c-0.16,0.138-0.322,0.252-0.482,0.321c-0.16,0.068-0.32,0.091-0.48,0.114l0,0V108.87	L188.34,108.87L188.34,108.87z M188.248,106.463h-0.299v0.643h0.299l0,0c0.023,0,0.068,0,0.092,0l0,0v0.298l-0.047-0.069h-0.344	v0.803h-0.365v-1.902h0.709l0,0c0.023,0,0.023,0,0.047,0l0,0v0.252l0,0C188.316,106.463,188.271,106.463,188.248,106.463	L188.248,106.463L188.248,106.463L188.248,106.463L188.248,106.463z M188.34,105.547v0.229l0,0c-0.023,0-0.047,0-0.068,0	c-0.207,0-0.391,0.023-0.551,0.115c-0.184,0.068-0.344,0.16-0.459,0.298c-0.137,0.138-0.252,0.298-0.32,0.481	c-0.092,0.184-0.115,0.367-0.115,0.55c0,0.184,0.023,0.367,0.092,0.55c0.092,0.161,0.184,0.321,0.32,0.459	c0.139,0.138,0.299,0.252,0.482,0.321c0.16,0.068,0.344,0.114,0.527,0.114c0.023,0,0.068,0,0.092,0l0,0v0.206l0,0	c-0.023,0.023-0.047,0.023-0.068,0.023c-0.23,0-0.436-0.046-0.643-0.138s-0.391-0.206-0.551-0.367	c-0.16-0.16-0.275-0.344-0.344-0.55c-0.092-0.184-0.137-0.413-0.137-0.619c0-0.229,0.045-0.436,0.137-0.642s0.207-0.39,0.367-0.55	c0.16-0.161,0.32-0.275,0.527-0.344c0.184-0.092,0.412-0.138,0.643-0.138C188.293,105.547,188.316,105.547,188.34,105.547	L188.34,105.547L188.34,105.547L188.34,105.547z"/></g></svg>