<?xml version="1.0" encoding="iso-8859-1"?><!-- Generator: Adobe Illustrator 16.0.0, SVG Export Plug-In . SVG Version: 6.00 Build 0) --><!DOCTYPE svg PUBLIC "-//W3C//DTD SVG 1.1//EN" "http://www.w3.org/Graphics/SVG/1.1/DTD/svg11.dtd"><svg version="1.1" id="Layer_1" xmlns="http://www.w3.org/2000/svg" xmlns:xlink="http://www.w3.org/1999/xlink" x="0px" y="0px" width="192.756px" height="192.756px" viewBox="0 0 192.756 192.756" style="enable-background:new 0 0 192.756 192.756;" xml:space="preserve"><g><polygon style="fill-rule:evenodd;clip-rule:evenodd;fill:#FFFFFF;" points="0,0 192.756,0 192.756,192.756 0,192.756 0,0	"/><path style="fill-rule:evenodd;clip-rule:evenodd;" d="M170.793,126.861h-11.354l30.482-30.483L96.377,2.834L2.834,96.378	l30.482,30.483H21.965c-10.563,0-19.127,8.562-19.127,19.125c0,10.564,8.563,19.127,19.127,19.127H71.57l24.807,24.809	l24.808-24.809h49.607c10.562,0,19.127-8.562,19.127-19.127C189.92,135.424,181.355,126.861,170.793,126.861L170.793,126.861z"/><path style="fill-rule:evenodd;clip-rule:evenodd;fill:#FFFFFF;" d="M170.793,129.615h-18.006l33.236-33.236L96.377,6.732	L6.732,96.378l33.238,33.237H21.966c-9.042,0-16.371,7.33-16.371,16.371c0,9.043,7.33,16.371,16.371,16.371h50.746l23.667,23.666	l23.667-23.666h50.748c9.041,0,16.369-7.328,16.369-16.371C187.162,136.945,179.834,129.615,170.793,129.615L170.793,129.615z"/><polygon style="fill-rule:evenodd;clip-rule:evenodd;" points="96.377,182.322 76.412,162.355 116.344,162.355 96.377,182.322	"/><polygon style="fill-rule:evenodd;clip-rule:evenodd;" points="43.736,129.617 10.56,96.442 96.378,10.624 182.197,96.441	149.02,129.617 43.736,129.617	"/><polygon style="fill-rule:evenodd;clip-rule:evenodd;fill:#8ABD50;" points="96.379,178.229 109.494,165.113 83.264,165.113	96.379,178.229	"/><path style="fill-rule:evenodd;clip-rule:evenodd;fill:#FFFFFF;" d="M60.569,79.291c0-19.756,16.072-35.829,35.828-35.829	c19.755,0,35.83,16.073,35.83,35.829c0,6.183-1.576,12.006-4.344,17.088h50.346L96.377,14.527L14.527,96.378h0.001h50.385	C62.143,91.296,60.569,85.474,60.569,79.291L60.569,79.291z"/><path style="fill-rule:evenodd;clip-rule:evenodd;fill:#8CBE4F;" d="M178.229,96.379h-50.346	c-6.078,11.154-17.914,18.74-31.486,18.74c-13.572,0-25.407-7.586-31.484-18.741H14.528l30.482,30.483h102.738l30.482-30.482	H178.229L178.229,96.379z"/><polygon style="fill-rule:evenodd;clip-rule:evenodd;fill:#FFFFFF;" points="74.61,87.352 74.939,97.279 87.12,105.516	94.967,102.475 95.032,93.493 83.069,84.456 74.61,87.352	"/><polygon style="fill-rule:evenodd;clip-rule:evenodd;fill:#FFFFFF;" points="87.828,68.146 81.579,61.915 72.537,64.678	68.312,78.815 73.842,85.309 82.431,82.37 87.828,68.146	"/><path style="fill-rule:evenodd;clip-rule:evenodd;fill:#FFFFFF;" d="M96.09,104.379c-0.478,0.186-5.251,2.035-7.859,3.045	l-0.921,4.232c2.893,0.814,5.938,1.258,9.087,1.258c3.123,0,6.144-0.438,9.017-1.236l-0.287-4.469	C102.094,106.26,96.582,104.533,96.09,104.379L96.09,104.379z"/><path style="fill-rule:evenodd;clip-rule:evenodd;fill:#FFFFFF;" d="M110.717,58.612c0.572,0.162,6.924,1.966,9.084,2.579	l3.068-2.596c-3.947-5.038-9.295-8.923-15.455-11.066l-2.059,3.453C107.199,53.606,110.42,58.191,110.717,58.612L110.717,58.612z"	/><path style="fill-rule:evenodd;clip-rule:evenodd;fill:#FFFFFF;" d="M72.416,86.998c-0.353-0.415-4.084-4.795-5.792-6.801	l-3.819,0.326c0.246,6.793,2.516,13.075,6.226,18.266l3.722-1.686C72.653,94.132,72.434,87.549,72.416,86.998L72.416,86.998z"/><polygon style="fill-rule:evenodd;clip-rule:evenodd;fill:#FFFFFF;" points="119.5,63.372 110.496,60.816 105.645,67.775	111.057,82.708 118.324,85.305 124.225,77.354 119.5,63.372	"/><path style="fill-rule:evenodd;clip-rule:evenodd;fill:#FFFFFF;" d="M81.196,59.752c0.36-0.535,4.663-6.923,5.541-8.226	l-1.604-3.913c-6.326,2.257-11.786,6.354-15.725,11.648l2.866,3.216C75.336,61.542,80.704,59.902,81.196,59.752L81.196,59.752z"/><polygon style="fill-rule:evenodd;clip-rule:evenodd;fill:#FFFFFF;" points="108.717,59.557 103.535,52.183 88.529,52.393	88.703,52.51 83.292,60.544 89.29,66.524 103.857,66.524 108.717,59.557	"/><path style="fill-rule:evenodd;clip-rule:evenodd;fill:#FFFFFF;" d="M125.863,78.805c-1.762,2.373-5.705,7.688-6.039,8.138	c0.027,0.613,0.326,7.646,0.412,9.655l3.469,2.273c3.885-5.401,6.207-11.992,6.305-19.114L125.863,78.805L125.863,78.805z"/><polygon style="fill-rule:evenodd;clip-rule:evenodd;fill:#FFFFFF;" points="110.281,84.746 97.209,94.126 97.148,102.424	106.324,105.299 118.07,96.979 117.66,87.383 110.281,84.746	"/><path style="fill-rule:evenodd;clip-rule:evenodd;fill:#CF433F;" d="M27.594,145.824c1.196,0,2.239,0.309,3.13,0.928	c0.89,0.617,1.336,1.736,1.336,3.355c0,0.996-0.198,1.803-0.593,2.422c-0.395,0.617-0.882,1.055-1.462,1.312	c-0.581,0.26-1.165,0.389-1.754,0.389c-1.152,0-1.727-0.623-1.727-1.869v-6.457C26.813,145.852,27.17,145.824,27.594,145.824	L27.594,145.824z M19.32,136.135v0.785h0.942c0.447,0,0.845,0.119,1.195,0.357c0.35,0.24,0.525,0.682,0.525,1.332v14.455	c0,0.639-0.176,1.08-0.525,1.324c-0.35,0.244-0.749,0.365-1.195,0.365H19.32v0.803h9.106c0.914,0,1.792-0.041,2.634-0.121	c0.842-0.082,1.723-0.293,2.645-0.635c0.92-0.344,1.691-0.898,2.31-1.668c0.619-0.77,0.93-1.791,0.93-3.066	c0-0.594-0.153-1.307-0.455-2.139c-0.302-0.834-1.027-1.627-2.174-2.381s-2.854-1.133-5.12-1.133c-1.212,0-2.103,0.041-2.673,0.119	v-7.113h2.782c1.697,0,2.929,0.426,3.695,1.273c0.765,0.848,1.22,1.822,1.363,2.924h0.807v-5.482H19.32L19.32,136.135z"/><path style="fill-rule:evenodd;clip-rule:evenodd;fill:#CF433F;" d="M74.55,148.365h-5.368l2.542-6.287L74.55,148.365	L74.55,148.365z M69.648,155.557v-0.795H69.54c-0.711,0-1.282-0.072-1.71-0.217c-0.428-0.143-0.642-0.449-0.642-0.92	c0-0.361,0.092-0.73,0.277-1.107l1.19-2.867h6.342l1.467,3.385c0.13,0.336,0.196,0.568,0.196,0.697	c0,0.322-0.123,0.574-0.369,0.756c-0.246,0.184-0.752,0.273-1.518,0.273h-0.858v0.795h9.33v-0.795h-0.082	c-0.725,0-1.279-0.418-1.663-1.25l-7.835-17.766h-0.662l-6.896,16.746c-0.257,0.621-0.496,1.096-0.717,1.424	c-0.221,0.326-0.462,0.549-0.724,0.668c-0.262,0.117-0.593,0.178-0.994,0.178h-0.168v0.795H69.648L69.648,155.557z"/><path style="fill-rule:evenodd;clip-rule:evenodd;fill:#CF433F;" d="M120.045,137.42v15.652c0,1.127,0.568,1.689,1.707,1.689h1.127	v0.795h-10.186v-0.795h1.104c0.432,0,0.816-0.123,1.156-0.365c0.34-0.244,0.51-0.686,0.51-1.324V137.42h-0.812	c-0.861,0-1.584,0.07-2.168,0.209s-1.123,0.52-1.619,1.143c-0.494,0.623-0.824,1.58-0.988,2.871h-0.793v-5.508h17.406v5.508h-0.799	c-0.166-1.291-0.498-2.248-0.998-2.871s-1.043-1.004-1.633-1.143s-1.318-0.209-2.188-0.209H120.045L120.045,137.42z"/><path style="fill-rule:evenodd;clip-rule:evenodd;fill:#CF433F;" d="M155.197,135.746H156c0.104,0.83,0.492,1.242,1.16,1.242	c0.5,0,1.033-0.119,1.6-0.361c0.562-0.246,1.154-0.453,1.775-0.625c0.619-0.17,1.412-0.256,2.375-0.256	c1.604,0,3.061,0.275,4.369,0.822c1.307,0.547,2.418,1.303,3.332,2.268c0.916,0.963,1.615,2.072,2.098,3.326	c0.484,1.254,0.727,2.578,0.727,3.973c0,1.467-0.277,2.807-0.826,4.018c-0.551,1.211-1.322,2.25-2.314,3.117	c-0.992,0.869-2.145,1.531-3.455,1.988s-2.693,0.686-4.152,0.686c-1.021,0-2-0.113-2.938-0.338s-1.912-0.705-2.922-1.439	s-1.979-1.812-2.902-3.232l0.941-0.566c0.631,0.898,1.305,1.648,2.02,2.254s1.494,1.062,2.336,1.369	c0.844,0.309,1.768,0.463,2.771,0.463c2.406,0,4.066-0.789,4.977-2.369c0.908-1.58,1.365-3.498,1.365-5.752h-3.387	c-1.168,0-2.055,0.225-2.658,0.67c-0.605,0.447-0.938,1.312-1,2.592h-0.799v-7.85h0.799c0.031,0.812,0.18,1.459,0.445,1.941	c0.268,0.48,0.662,0.822,1.186,1.021s1.199,0.299,2.027,0.299h3.387c0-1.154-0.152-2.311-0.455-3.469	c-0.303-1.156-0.902-2.164-1.801-3.018c-0.9-0.855-2.158-1.281-3.775-1.281c-1.336,0-2.463,0.271-3.383,0.814	c-0.918,0.545-1.609,1.23-2.074,2.055c-0.463,0.826-0.746,1.695-0.85,2.605h-0.801V135.746L155.197,135.746z"/></g></svg>