<?xml version="1.0" encoding="iso-8859-1"?><!-- Generator: Adobe Illustrator 16.0.0, SVG Export Plug-In . SVG Version: 6.00 Build 0) --><!DOCTYPE svg PUBLIC "-//W3C//DTD SVG 1.1//EN" "http://www.w3.org/Graphics/SVG/1.1/DTD/svg11.dtd"><svg version="1.1" id="Layer_1" xmlns="http://www.w3.org/2000/svg" xmlns:xlink="http://www.w3.org/1999/xlink" x="0px" y="0px" width="192.756px" height="192.756px" viewBox="0 0 192.756 192.756" style="enable-background:new 0 0 192.756 192.756;" xml:space="preserve"><g><polygon style="fill-rule:evenodd;clip-rule:evenodd;fill:#FFFFFF;" points="0,0 192.756,0 192.756,192.756 0,192.756 0,0	"/><path style="fill-rule:evenodd;clip-rule:evenodd;fill:#AC8654;" d="M179.322,59.056c-1.963-6.077-5.631-11.896-10.918-17.172	c-15.492-15.505-42.469-24.752-72.142-24.752c-22.365,0-43.446,5.288-59.347,14.89c-13.451,8.11-21.927,18.537-24.513,29.913	c-2.542,7.643-3.898,16.421-3.898,33.258v71.432c0,2.389,0.928,4.652,2.627,6.36c1.72,1.699,3.972,2.64,6.369,2.64h157.744	c2.398,0,4.66-0.94,6.371-2.64c1.699-1.708,2.637-3.972,2.637-6.36V95.193C184.252,76.218,182.523,67.482,179.322,59.056	L179.322,59.056z"/><path style="fill-rule:evenodd;clip-rule:evenodd;fill:#CC2229;" d="M28.2,45.951c14.222-14.223,40.308-23.054,68.063-23.054	c27.767,0,53.845,8.831,68.075,23.054c4.297,4.306,7.361,8.967,9.123,13.793l-0.053,0.021c0.156,0.367,0.305,0.742,0.438,1.117	c0.906,2.805,1.377,5.672,1.377,8.539c0,25.66-35.42,46.543-78.96,46.543c-27.755,0-53.841-8.843-68.063-23.064	c-7.123-7.132-10.885-15.242-10.885-23.479c0-2.013,0.23-4.026,0.677-6.018c0.417-1.229,0.866-2.438,1.345-3.638l-0.24-0.095	C20.87,54.865,23.926,50.236,28.2,45.951L28.2,45.951z"/><path style="fill-rule:evenodd;clip-rule:evenodd;fill:#FFFFFF;" d="M178.486,166.625c0,1.785-1.449,3.242-3.242,3.242H17.5	c-0.863,0-1.667-0.343-2.281-0.957c-0.615-0.615-0.961-1.419-0.961-2.285V95.193c0-4.525,0.106-8.423,0.305-11.864	c2.104,4.797,5.317,9.393,9.561,13.649c15.501,15.48,42.465,24.752,72.139,24.752c29.673,0,56.649-9.271,72.142-24.752	c4.381-4.38,7.652-9.136,9.768-14.099c0.211,3.547,0.314,7.59,0.314,12.313V166.625L178.486,166.625z"/><path style="fill-rule:evenodd;clip-rule:evenodd;fill:#FFFFFF;" d="M68.767,39.528H54.776c-8.55,0-10.894,2.294-12.845,11.595	L34.193,87.5h17.308l7.404-34.784C60.814,44.981,62.159,41.112,68.767,39.528L68.767,39.528z"/><path style="fill-rule:evenodd;clip-rule:evenodd;fill:#FFFFFF;" d="M71.167,39.517c0,0,13.5,0,16.568,0	c8.547,0,15.118,15.097-5.766,21.584c19.985,14.127,7.111,42.486-22.961,40.517c-4.315-0.293-9.904,0-19.716-3.514	c38.173-2.43,42.769-32.239,21.793-38.183C79.8,56.597,85.484,41.373,71.167,39.517L71.167,39.517z"/><path style="fill-rule:evenodd;clip-rule:evenodd;fill:#FFFFFF;" d="M153.004,39.413c0,0-22.781,0-26.297,0	c-13.938,0-23.76,6.286-26.814,17.184c-1.139,4.002-3.713,12.928-4.15,15.848c-2.335,15.753,4.953,30.33,26.921,30.33	c3.689,0,17.473,0,17.473,0l1.795-6.287c0,0-10.258,0-12.242,0c-14.951,0-17.828-14.774-17.014-18.912	c0.406-2.128,3.158-16.903,3.596-18.635c2.074-8.205,9-13.158,18.277-13.158c2.523,0,10.992,0,12.605,0	C151.473,45.782,152.826,42.094,153.004,39.413L153.004,39.413z"/><path style="fill-rule:evenodd;clip-rule:evenodd;fill:#295BA7;" d="M46.122,155.979l-0.845,7.415h-6.559l5.057-34.993h8.133	l5.057,34.993h-6.517l-0.916-7.415H46.122L46.122,155.979z M46.539,151.466h2.524l-1.094-13.701h-0.086L46.539,151.466	L46.539,151.466z"/><path style="fill-rule:evenodd;clip-rule:evenodd;fill:#295BA7;" d="M125.531,155.979l-0.836,7.415h-6.568l5.066-34.993h8.125	l5.066,34.993h-6.527l-0.918-7.415H125.531L125.531,155.979z M125.947,151.466h2.525l-1.086-13.701h-0.094L125.947,151.466	L125.947,151.466z"/><polygon style="fill-rule:evenodd;clip-rule:evenodd;fill:#295BA7;" points="70.26,128.401 76.005,128.401 76.005,163.395	68.998,163.395 64.494,147.106 64.411,147.106 64.411,163.395 58.666,163.395 58.666,128.401 65.755,128.401 70.177,145.898	70.26,145.898 70.26,128.401	"/><polygon style="fill-rule:evenodd;clip-rule:evenodd;fill:#295BA7;" points="84.709,144.961 84.795,144.961 88.549,128.401	95.148,128.401 90.883,145.556 95.272,163.395 88.673,163.395 84.795,146.149 84.709,146.149 84.709,163.395 78.039,163.395	78.039,128.401 84.709,128.401 84.709,144.961	"/><path style="fill-rule:evenodd;clip-rule:evenodd;fill:#295BA7;" d="M116.906,140.164v-7.634c0-2.252-1.844-4.085-4.086-4.085	h-8.676c-2.24,0-4.074,1.833-4.074,4.085v26.777c0,2.231,1.834,4.087,4.074,4.087h8.676c2.242,0,4.086-1.855,4.086-4.087v-10.229	h-6.422v7.058c0,1.022-0.791,1.566-1.666,1.566c-1.146,0-1.68-0.544-1.68-2.453v-18.702c0-1.918,0.533-2.441,1.68-2.441	c0.875,0,1.666,0.523,1.666,1.563v4.495H116.906L116.906,140.164z"/><path style="fill-rule:evenodd;clip-rule:evenodd;fill:#295BA7;" d="M154.83,139.735v-4.158c0-5.609-2.512-7.176-8.154-7.176	h-8.246v34.993h6.443v-15.088h0.99c1.324,0,1.865,0.562,1.865,1.753v13.335h7.061v-11.722c0-3.597-0.074-5.564-3.662-6.608v-0.104	C154.037,144.479,154.83,141.843,154.83,139.735L154.83,139.735z M148.189,140.895c0,1.897-1.494,2.438-2.891,2.438v-9.228	c1.396,0,2.891,0.523,2.891,2.441V140.895L148.189,140.895z"/><path style="fill-rule:evenodd;clip-rule:evenodd;fill:#295BA7;" d="M33.496,145.064v-0.104c3.254-1.075,4.097-2.462,4.097-6.372	v-3.012c0-6.401-1.604-7.176-7.401-7.176h-9.688v34.993h9.874c6.174,0,7.392-1.199,7.392-7.164v-5.234	C37.77,146.463,36.833,145.064,33.496,145.064L33.496,145.064z M30.836,155.249c0,1.909-1.501,2.453-2.896,2.453v-10.125	c1.395,0,2.896,0.52,2.896,2.441V155.249L30.836,155.249z M30.836,139.662c0,1.9-1.501,2.45-2.896,2.45v-8.007	c1.395,0,2.896,0.523,2.896,2.441V139.662L30.836,139.662z"/><path style="fill-rule:evenodd;clip-rule:evenodd;fill:#295BA7;" d="M168.936,128.445h-11.656v34.949h11.656	c2.617,0,4.691-1.814,4.691-4.504v-25.952C173.627,130.051,171.824,128.445,168.936,128.445L168.936,128.445z M166.746,155.249	c0,1.909-1.502,2.453-2.887,2.453v-23.597c1.385,0,2.887,0.523,2.887,2.441V155.249L166.746,155.249z"/></g></svg>