<?xml version="1.0" encoding="iso-8859-1"?><!-- Generator: Adobe Illustrator 16.0.0, SVG Export Plug-In . SVG Version: 6.00 Build 0) --><!DOCTYPE svg PUBLIC "-//W3C//DTD SVG 1.1//EN" "http://www.w3.org/Graphics/SVG/1.1/DTD/svg11.dtd"><svg version="1.1" id="Layer_1" xmlns="http://www.w3.org/2000/svg" xmlns:xlink="http://www.w3.org/1999/xlink" x="0px" y="0px" width="192.756px" height="192.756px" viewBox="0 0 192.756 192.756" style="enable-background:new 0 0 192.756 192.756;" xml:space="preserve"><g><polygon style="fill-rule:evenodd;clip-rule:evenodd;fill:#F9DB41;" points="0,0 192.756,0 192.756,192.756 0,192.756 0,0	"/><polygon style="fill-rule:evenodd;clip-rule:evenodd;" points="97.82,96.291 103.852,79.769 109.271,79.769 103.24,96.291	109.271,112.899 103.852,112.899 97.82,96.291	"/><path style="fill-rule:evenodd;clip-rule:evenodd;" d="M29.724,79.769h4.982v21.504c0,5.245,0.699,5.857,1.748,5.857	c1.137,0,1.749-0.612,1.749-5.857V79.769h4.983v21.942c0,3.846-0.088,4.808-0.612,6.556c-0.787,2.973-3.497,4.982-6.119,4.982	c-2.622,0-5.419-2.01-6.119-4.982c-0.437-1.836-0.612-2.797-0.612-6.469V79.769L29.724,79.769z"/><polygon style="fill-rule:evenodd;clip-rule:evenodd;" points="74.568,112.899 79.551,112.899 79.551,85.451 82.436,85.451	82.436,79.769 71.771,79.769 71.771,85.451 74.568,85.451 74.568,112.899	"/><polygon style="fill-rule:evenodd;clip-rule:evenodd;" points="83.921,112.812 88.992,112.812 88.992,79.769 83.921,79.769	83.921,112.812	"/><polygon style="fill-rule:evenodd;clip-rule:evenodd;" points="92.576,112.812 97.559,112.812 97.559,79.769 92.576,79.769	92.576,112.812	"/><polygon style="fill-rule:evenodd;clip-rule:evenodd;" points="125.443,93.056 125.443,85.364 129.553,85.364 129.553,79.769	120.549,79.769 120.549,112.899 129.727,112.899 129.727,107.218 125.443,107.218 125.443,98.477 129.203,98.477 129.203,93.056	125.443,93.056	"/><path style="fill-rule:evenodd;clip-rule:evenodd;" d="M70.634,85.976c-0.787-0.874-1.049-1.136-2.186-1.136	c-1.049,0-2.098,1.136-2.098,3.497c0,2.186,1.311,4.108,2.797,6.119c1.661,2.098,3.234,5.07,3.234,9.091	c0,6.557-2.885,9.616-6.731,9.616c-1.136,0-2.972-0.524-3.846-1.573v-7.169c0.787,1.312,1.749,3.06,3.41,3.06	c1.049,0,1.923-0.961,2.185-2.447c0.262-2.36,0-4.108-2.011-6.73c-1.748-2.272-3.846-5.071-3.846-9.791	c0-6.207,3.147-9.004,6.207-9.004c1.224,0,1.661,0.174,2.885,0.524V85.976L70.634,85.976z"/><polygon style="fill-rule:evenodd;clip-rule:evenodd;" points="107.699,96.291 113.73,79.769 119.324,79.769 113.293,96.291	119.324,112.899 113.73,112.899 107.699,96.291	"/><polygon style="fill-rule:evenodd;clip-rule:evenodd;" points="173.086,112.899 167.666,112.899 173.697,96.291 167.666,79.769	173.086,79.769 179.117,96.291 173.086,112.899	"/><polygon style="fill-rule:evenodd;clip-rule:evenodd;fill:#BBBCBF;" points="163.207,112.899 157.613,112.899 163.645,96.291	157.613,79.769 163.207,79.769 169.238,96.291 163.207,112.899	"/><path style="fill-rule:evenodd;clip-rule:evenodd;" d="M23.955,94.542c1.923-1.224,2.885-3.758,2.885-6.469	c0-2.448-0.438-3.934-1.574-5.507c-1.573-2.185-4.108-2.797-7.081-2.797h-4.546v33.13h4.109c3.759,0,5.419-1.049,6.644-2.272	c1.835-1.836,3.234-4.633,3.147-8.305C27.539,98.214,25.703,95.592,23.955,94.542L23.955,94.542z M18.447,84.839	c2.011,0,3.671,0.787,3.671,3.497c0,2.972-2.011,3.934-3.671,3.934V84.839L18.447,84.839z M18.447,107.306v-9.791	c1.486,0,4.021,0.524,4.021,4.982C22.468,105.731,20.371,107.479,18.447,107.306L18.447,107.306z"/><path style="fill-rule:evenodd;clip-rule:evenodd;" d="M50.616,112.812c1.836,0,4.196-0.438,5.944-2.36	c1.836-2.098,3.847-6.906,3.847-14.686c0-7.78-1.923-12.238-4.283-14.249c-1.224-1.049-3.497-1.749-5.682-1.749h-3.759v33.043	H50.616L50.616,112.812z M51.49,85.364c1.136,0.087,2.273,0.962,2.885,2.623c0.437,1.224,1.136,3.672,1.136,7.955	c0,4.633-0.524,6.993-1.136,8.392c-0.612,1.573-1.749,2.535-2.885,2.623V85.364L51.49,85.364z"/><path style="fill-rule:evenodd;clip-rule:evenodd;" d="M146.074,112.899v-33.13h-4.721c0,0,0.525,17.484,0.611,18.533	c0,1.049,0.264,4.458,0.264,4.458s-0.264-1.749-0.613-3.497s-4.633-19.494-4.633-19.494H132v33.13h4.633	c0,0-0.438-16.87-0.523-18.095c0-1.224-0.35-4.545-0.35-4.545s0.436,2.01,0.785,3.584c0.264,1.661,4.547,19.056,4.547,19.056	H146.074L146.074,112.899z"/></g></svg>