<?xml version="1.0" encoding="iso-8859-1"?><!-- Generator: Adobe Illustrator 16.0.0, SVG Export Plug-In . SVG Version: 6.00 Build 0) --><!DOCTYPE svg PUBLIC "-//W3C//DTD SVG 1.1//EN" "http://www.w3.org/Graphics/SVG/1.1/DTD/svg11.dtd"><svg version="1.1" id="Layer_1" xmlns="http://www.w3.org/2000/svg" xmlns:xlink="http://www.w3.org/1999/xlink" x="0px" y="0px" width="192.756px" height="192.756px" viewBox="0 0 192.756 192.756" style="enable-background:new 0 0 192.756 192.756;" xml:space="preserve"><g><polygon style="fill-rule:evenodd;clip-rule:evenodd;fill:#FFFFFF;" points="0,0 192.756,0 192.756,192.756 0,192.756 0,0	"/><path style="fill-rule:evenodd;clip-rule:evenodd;fill:#EFC031;stroke:#000000;stroke-width:0.9959;stroke-miterlimit:2.6131;" d="	M2.834,96.378c0-51.663,41.88-93.543,93.543-93.543s93.544,41.88,93.544,93.543s-41.881,93.544-93.544,93.544	S2.834,148.041,2.834,96.378L2.834,96.378z"/><path style="fill-rule:evenodd;clip-rule:evenodd;fill:#FFFFFF;stroke:#000000;stroke-width:0.9959;stroke-miterlimit:2.6131;" d="	M28.834,96.378c0-37.304,30.24-67.543,67.544-67.543s67.544,30.24,67.544,67.543s-30.24,67.544-67.544,67.544	S28.834,133.682,28.834,96.378L28.834,96.378z"/><path style="fill-rule:evenodd;clip-rule:evenodd;fill:#FFFFFF;" d="M72.805,74.529c0-12.041,9.761-21.803,21.803-21.803	c12.041,0,21.802,9.762,21.802,21.803c0,12.042-9.762,21.803-21.802,21.803C82.566,96.332,72.805,86.571,72.805,74.529	L72.805,74.529z"/><polygon style="fill-rule:evenodd;clip-rule:evenodd;fill:#6083C1;" points="90.121,53.513 95.337,15.735 124.404,171.73	65.481,139.6 90.121,53.513	"/><path style="fill-rule:evenodd;clip-rule:evenodd;" d="M106.557,60.859c0.109,0.06,0.766,1.397,0.75,1.637l-0.254,0.376	c-0.174-0.547-0.684-1.165-0.623-1.762C106.434,61.028,106.379,60.76,106.557,60.859L106.557,60.859z"/><path style="fill-rule:evenodd;clip-rule:evenodd;" d="M107.553,64.006c0.066,0.023,0.318,0.001,0.377,0.001	c0.168,0.677,0.213,1.148,0.246,2.013c-0.055,0.023-0.248,0.093-0.252,0.125c-0.184-0.567-0.1-0.9-0.246-1.636l-0.25-0.378	C107.514,64.084,107.305,63.915,107.553,64.006L107.553,64.006z"/><path style="fill-rule:evenodd;clip-rule:evenodd;" d="M118.203,119.871c-0.039,0.016-0.002,0.559-0.002,0.629	C117.973,120.5,118.051,119.824,118.203,119.871L118.203,119.871z"/><path style="fill-rule:evenodd;clip-rule:evenodd;" d="M118.951,122.264c0.152,0.074-0.129,0.754-0.129,0.754	C118.832,122.889,118.758,122.164,118.951,122.264L118.951,122.264z"/><path style="fill-rule:evenodd;clip-rule:evenodd;" d="M110.848,140.727c0.877-0.037,0.248,0.447-0.127,0.502	C109.49,141.4,110.268,140.748,110.848,140.727L110.848,140.727z"/><path style="fill-rule:evenodd;clip-rule:evenodd;" d="M112.105,140.729c0.73-0.014,0.691,0.234,0,0.127	C111.918,140.822,111.918,140.729,112.105,140.729L112.105,140.729z"/><path style="fill-rule:evenodd;clip-rule:evenodd;" d="M95.724,24.233c0.185-0.05,0.503,0.127,0.503,0.127	c0.274,0.041,0.597,0.002,0.879,0.003c0.119,0.318,0.09,0.495,0.25,0.881c0.039,0.094,0.346,0.249,0.377,0.378	c0.111,0.531-0.074,1.092-0.006,1.635c0.174,1.427,0.744,3.334,0.992,4.782c0.17,0.998,0.121,1.635,0.369,2.516	c0.219,0.771,0.73,1.972,0.873,2.77c0.064,0.381-0.064,0.75-0.004,1.132c0.023,0.157,0.34,0.696,0.375,0.881	c0.131,0.735,0.004,1.167,0.121,1.887c0.053,0.342,0.318,0.959,0.373,1.258c0.17,1.002-0.051,1.312,0.119,2.39	c0.088,0.574,0.41,1.711,0.496,2.266c0.111,0.767-0.031,1.288,0.119,2.012c0.133,0.649,0.6,1.617,0.748,2.266	c0.135,0.613,0.004,1.006,0.121,1.635c0.047,0.263,0.316,0.854,0.373,1.133c0.02,0.11-0.002,1.132-0.002,1.132	c-0.039-0.094-0.342-0.402-0.377-0.504c-0.264-0.756-0.168-1.325-0.371-2.139c-0.256-1.019-0.869-2.322-1.121-3.399	c-0.174-0.743-0.076-1.112-0.246-1.887c-0.381-1.707-1.037-3.961-1.367-5.663c-0.281-1.451-0.326-2.61-0.615-4.025	c-0.268-1.291-0.857-2.734-1.121-4.028c-0.264-1.282-0.287-2.26-0.619-3.523c-0.202-0.775-0.706-1.602-0.872-2.518	c-0.232-1.258-0.309-2.19-0.619-3.271C95.563,24.311,95.609,24.26,95.724,24.233L95.724,24.233z"/><path style="fill-rule:evenodd;clip-rule:evenodd;" d="M98.303,45.115c0.627,2.423,0.943,5.073,1.486,7.676	c0.004,0.031,0.066,0.594,0.125,0.755c0.021,0.071,0.822,0.556,0.123,0.629c-0.461,0.046-0.695-0.175-1.006-0.254	c-0.154-1.054-0.508-2.049-0.619-2.894C98.158,49.139,98.219,47.001,98.303,45.115L98.303,45.115z"/><path style="fill-rule:evenodd;clip-rule:evenodd;" d="M96.157,48.001c0.371,0.818,0.894,1.87,1.125,2.77	c0.17,0.688,0.035,1.234,0.244,1.887c0.117,0.37,0.6,0.898,0.752,1.26c0.105,0.251,0.111,0.947,0.248,1.132	c0.176,0.24,1.578,0.496,2.01,0.635c0.541,0.17,1.189,0.385,1.758,0.634c0.096,0.04,0.404,0.355,0.502,0.379	c0.096,0.024,0.301-0.05,0.379,0.001c1.086,0.726,1.109,4.888,1.238,6.668c0.086,1.238,0.109,2.292,0.24,3.271l-0.25,0v-0.251	c-0.035-0.103-0.342-0.245-0.377-0.378c-0.047-0.162,0.143-0.125,0.127-0.377c-0.004-0.004-0.5-1.133-0.5-1.133	c-0.438-0.359-1.279-0.306-1.758-0.634c-0.436-0.3-0.625-0.895-1.002-1.261c-0.248-0.24-0.711-0.329-0.879-0.631	c-0.117-0.205,0.025-0.428-0.123-0.629c-0.162-0.216-1.135-0.727-1.381-0.884c-0.785-0.502-1.591-0.249-2.64-0.511l-0.25-0.252	c-0.57-0.155-0.806-0.1-1.383-0.255l-0.251-0.252c-0.907-0.167-3.776,0.048-4.528,0.238c-0.169,0.039-0.488,0.333-0.63,0.375	c-0.641,0.175-1.14,0.083-1.761,0.247c-0.767,0.198-1.586,0.742-2.267,1c-0.26,0.093-0.409-0.009-0.629,0.124	c-0.248,0.145-0.505,0.58-0.757,0.752c-0.221,0.145-0.279-0.017-0.503,0.125c-0.146,0.085-0.233,0.404-0.379,0.502	c-0.09,0.054-0.271-0.044-0.377-0.001c-0.295,0.109-1.033,1.074-1.261,1.379c-0.06,0.075-0.335,0.172-0.378,0.25	c-0.146,0.235-0.112,0.514-0.254,0.754c-0.106,0.168-0.445,0.273-0.504,0.501c-0.048,0.165,0.054,0.342-0.001,0.503	c1.104,0.046,2.405,0.066,3.395,0.262c1.174,0.228,0.719,0.104-0.001,0.251c0,0-0.374,0.246-0.378,0.25	c-1.412,0.287-2.792,0.569-4.152,0.868c-0.285,2.034-0.367,4.53-0.522,6.538c-0.062,0.738,0.185,1.246,0.12,1.886	c-0.004,0-0.381,1.292-0.382,1.508c-0.009,0.405,0.199,0.547,0.123,1.006c-0.101,0.582-0.877,1.35-0.761,2.136	c0.023,0.169,0.301,0.476,0.375,0.629c1.706,0.005,3.51-0.064,5.281,0.141c-0.114,0.087-0.095,0.173-0.252,0.251	c-1.146,0.535-3.104,0.832-4.405,1.119c0.146,1.128,0.428,1.384,0.874,2.14c0.137,0.232,0.506,0.524,0.627,0.757	c0.09,0.177,0.003,0.357,0.124,0.503c0.106,0.13,0.809,0.431,0.879,0.631L80.7,87.066c0.137,0.13,0.393,0.095,0.502,0.252	c0.035,0.051,0.07,0.331,0.125,0.378c0.278,0.241,0.702,0.289,1.005,0.506c0.145,0.103,0.454,0.591,0.627,0.631	c0.29,0.063,1.45-0.267,1.761-0.247l0.502,0.253c1.623,0.268,3.575,0.266,5.155,0.393c2.106,0.163,4.323-0.274,6.413,0.019	c0.394,0.052,1.119,0.443,1.507,0.507c0.326,0.048,0.695-0.088,1.006,0.003c0.1,0.027,0.322,0.323,0.502,0.379v0.251	c-0.633-0.049-0.75-0.08-1.383-0.004c-0.768,0.089-2.253,0.048-3.019-0.009c-3.312-0.261-6.453,0.106-9.684,0.098	c-0.02,0.035-0.111,0.247-0.126,0.251c0.729,0.43,1.69,1.156,2.511,1.39c0.946,0.267,1.65,0.186,2.639,0.385	c1.002,0.2,2.635,0.743,3.897,0.641l0.504-0.25c0.475-0.077,1.1,0.141,1.382,0.129l0.504-0.25c0.715-0.072,1.434,0.106,2.137,0.007	c1.408-0.212,2.873-1.077,4.281-1.497c-0.092,0.137-0.127,0.51-0.254,0.628c-0.314,0.282-2.789,1.238-3.273,1.374	c-0.621,0.171-1.588,0.035-1.889,0.498c-0.174,0.259-0.148,1.01-0.254,1.383c-0.141,0.475-0.539,1.169-0.635,1.632	c-0.231,1.061-0.029,1.836-0.26,2.891c-0.06,0.252-0.276,0.715-0.38,1.131h-0.251c-0.167-2.189-0.541-4.457-0.86-6.667	c-1.246,0.024-3.89-0.251-5.28-0.645c-0.259-0.075-0.659-0.434-0.878-0.505c-1.308-0.432-2.356-0.521-3.519-1.016	c-0.82-0.353-1.432-0.893-2.386-1.265l-0.125-0.251c-0.251-0.051-0.684,0.116-0.755,0.124c-1.82,0.187-4.032,0.106-5.533-0.016	c0.101-0.919,0.035-2.268,0.136-3.27c0.012-0.134-0.12-0.7-0.124-0.629c0.055-0.023,0.091-0.4,0.127-0.503l0.252,0.001	c0.098,0.181,0.337,0.406,0.375,0.504c0.129,0.323-0.025,0.617,0.124,0.881c0.403,0.708,1.762,0.874,2.764,1.014	c-0.712-0.914-1.791-1.644-2.382-2.522c-0.137-0.205-0.019-0.295-0.124-0.504c-0.36-0.696-1.108-1.327-1.503-2.016	c-0.387-0.673-0.456-1.357-0.748-2.14c-0.152-0.405-0.63-0.968-0.75-1.385c-0.14-0.472-0.029-0.771-0.122-1.258	c-0.232-1.188-0.46-2.446-0.617-3.901c-0.821-0.096-1.422-0.286-2.011-0.382c-0.283-0.048-0.602,0.069-0.88-0.003	c-0.236-0.06-0.733-0.458-1.005-0.506c-0.161-0.032-0.362,0.062-0.502-0.001c-0.224-0.104-0.447-0.551-0.627-0.631	c-0.522-0.229-0.849-0.002-1.257-0.255c-0.066-0.043-0.188-0.338-0.25-0.377c2.163-0.383,4.608-0.753,6.794-1.112	c0.224-1.332,0.437-2.714,0.892-3.896c0.048-0.129,0.331-0.384,0.379-0.502c0.233-0.616,0.227-1.084,0.507-1.633l0.252-0.125	c0.222-0.346,0.972-1.695,1.012-2.01c0.041-0.357-0.166-0.971-0.122-1.509c0.057-0.778,0.217-1.842,0.26-2.766	c-0.003,0-0.158-1.042,0.004-1.132c0.516-0.297,3.729-0.091,4.401,0.013c-0.217,0.314-0.292,0.577-0.506,0.879	c-0.185-0.075-0.209,0.357,0.125,0.252c0.315-0.105,1.331-1.042,1.639-1.252c0.804-0.572,2.232-1.397,3.149-1.751	c0.153-0.062,0.334,0.044,0.503,0.001c0.229-0.062,0.61-0.427,0.882-0.5c0.444-0.125,0.656-0.006,1.132-0.123	c0.83-0.209,2.132-0.646,3.146-0.745c0.817-0.084,1.846,0.206,2.64,0.008c0.079-0.023,0.237-0.216,0.378-0.25	c0.071-1.713,0.084-3.395,0.392-5.029C95.725,49.081,96.065,48.429,96.157,48.001L96.157,48.001z"/><path style="fill-rule:evenodd;clip-rule:evenodd;" d="M108.301,66.649l0.25,0.252c0.244,0.917,0.367,2.033,0.494,2.894	c0.111,0.779-0.047,1.627,0.244,2.264c0.162,0.351,0.695,0.34,0.879,0.632c0.133,0.213,0.016,0.417,0.125,0.629l0.252,0.001	c0.098,0.845-1.004,1.254-1.139,2.008c-0.264,1.438,0.098,3.069-0.014,4.527c-0.172,2.192-0.68,4.046-1.148,5.781	c-0.104,0.37,0.006,0.551-0.129,0.881c-0.143,0.337-0.631,0.76-0.758,1.129c-0.115,0.326,0.018,0.594-0.129,0.88	c-0.158,0.294-0.656,0.595-0.881,0.877c-0.266-1.982-0.564-4.486-0.484-6.415c0.395,0.268,0.666,0.501,1.004,0.758	c0.152-0.4,0.371-0.997,0.633-1.382c0.043-0.07,0.334-0.137,0.377-0.25c0.088-0.259-0.057-0.613,0.002-0.881	c0.061-0.294,0.443-0.67,0.506-1.004c0.256-1.433-0.082-2.759,0.139-4.275c0.02-0.142,0.373-0.82,0.381-0.879	c0.016-0.204-0.236-1.184-0.248-1.384c-0.049-0.684,0.154-1.653,0.133-2.137l-0.25-0.629c-0.127-0.943,0.012-1.572-0.119-2.516	c-0.057-0.405-0.283-1.015-0.371-1.636C108.057,66.766,108.301,66.649,108.301,66.649L108.301,66.649z"/><path style="fill-rule:evenodd;clip-rule:evenodd;" d="M88.177,67.47c4.717-0.332,9.601,0.154,13.958,0.167	c0.191,0.775,0.596,2.065,0.242,3.019c-0.166,0.436-0.545,0.839-1.26,0.75l-0.25-0.252c-0.268-0.106-0.393-0.009-0.629-0.127	c-0.67-0.34-1.25-1.115-2.133-1.264c-1.616-0.272-2.701,0.149-4.527-0.139l0-0.251c-0.637-0.002-1.277,0.02-1.76-0.131	c-0.33-0.103-0.855-0.564-1.255-0.632c-1.053-0.188-2.217,0.174-3.27-0.01c-0.715-0.128-1.276-0.499-2.262-0.636l0-0.251	C85.811,67.651,87.411,67.523,88.177,67.47L88.177,67.47z"/><path style="fill-rule:evenodd;clip-rule:evenodd;" d="M101.238,72.916c0.248,0.005,0.504,0.002,0.756,0.003	c0.029,0.817,0.34,1.694,0.117,2.515c-0.062,0.224-0.4,0.333-0.504,0.501c0-0.043,0-0.083,0-0.126	c-0.936,0.269-1.564,0.106-2.514-0.007c-1.332-0.162-2.211-0.62-3.268-0.764c-0.385-0.056-0.881,0.091-1.257-0.004	c-0.032-0.008-0.404-0.359-0.502-0.379c-1.135-0.274-2.177-0.167-3.395-0.262c-0.09-0.008-1.041-0.25-1.131-0.254	c-0.813-0.065-1.71,0.125-2.515-0.008l-0.502-0.253c-0.915-0.065-2.012,0.076-3.144-0.009c-0.251-0.02-0.939-0.128-1.383-0.129	c0.035-0.016,0.001-0.448,0.001-0.503c0.288-0.016,0.908-0.127,1.007-0.123c0.098,0,0.447,0.245,0.502,0.253	c0.452,0.057,1.034-0.17,1.635-0.121c1.23,0.094,2.79,0.118,4.276,0.012c3.148-0.227,6.837,0.142,10.186-0.096	C99.898,73.14,100.936,72.904,101.238,72.916L101.238,72.916z"/><path style="fill-rule:evenodd;clip-rule:evenodd;" d="M90.157,78.165c1.235-0.075,2.605,0.215,3.772,0.137	c2.504-0.173,5.584-0.109,8.301-0.101c0.156,1.478,0.146,2.189-0.389,3.268c-0.16-0.06-0.338,0.042-0.502-0.001	c-0.236-0.063-0.32-0.421-0.502-0.504c-0.342-0.158-1.877-0.493-2.137-0.509c-0.42-0.033-0.508,0.179-0.879,0.123	c-0.441-0.068-1.159-0.562-1.634-0.633c-0.868-0.136-1.615,0.027-2.389-0.133c-0.491-0.104-1.032-0.283-1.76-0.382l0.001-0.252	c-1.029-0.199-1.993,0.207-2.893,0.117c-0.393-0.04-0.934-0.443-1.256-0.506c-0.44-0.092-0.652,0.002-1.132-0.003	c-0.023-0.043-0.102-0.248-0.125-0.252C87.461,78.314,89.167,78.221,90.157,78.165L90.157,78.165z"/><path style="fill-rule:evenodd;clip-rule:evenodd;" d="M109.629,85.013c0.555-0.096,0.711,0.183,1.006,0.255	c0.076,1.018,0.141,1.553,0.369,2.39l0.252,0.378c0.127,0.83-0.016,1.356,0.119,2.138c0.205,1.204,0.777,2.601,0.994,3.776	c0.105,0.59-0.021,0.971,0.121,1.509c0.086,0.323,0.414,0.784,0.5,1.133c0.176,0.732,0.074,1.285,0.246,2.014	c0.039,0.176,0.336,0.68,0.375,0.881c0.266,1.467,0.326,2.379,0.617,3.773c0.119,0.586,0.514,1.43,0.623,2.016	c0.146,0.816,0.086,1.273,0.246,2.012c0.15,0.703,0.588,1.598,0.748,2.266c0.441,1.893,0.648,3.311,1.115,5.16	c0.33,1.32,0.873,2.191,0.869,4.152c-1.123-3.053-1.734-6.367-2.613-9.691c-0.197-0.75-0.678-1.773-0.873-2.518	c-0.182-0.691-0.07-1.145-0.246-1.887c-0.17-0.717-0.693-1.668-0.873-2.393c-0.201-0.805-0.125-1.375-0.371-2.139	c-0.16-0.492-0.609-1.219-0.75-1.762c-0.492-1.881-0.641-3.527-1.115-5.412c-0.074-0.294-0.422-0.838-0.5-1.133	c-0.1-0.377,0.006-0.546-0.123-0.88l-0.25-0.252c-0.139-0.562,0.025-0.888-0.121-1.383c-0.031-0.102-0.342-0.41-0.377-0.504	c-0.062-0.161,0.057-0.337,0.002-0.503l-0.252-0.126c-0.078-0.204,0.057-0.409,0.002-0.629c-0.115-0.452-0.672-1.311-0.496-2.013	L109,85.388C109.066,85.267,109.471,85.036,109.629,85.013L109.629,85.013z"/><path style="fill-rule:evenodd;clip-rule:evenodd;" d="M103.693,93.672c0.4-0.105,0.576,0.163,0.754,0.254	c0.691,0.344,1.129,1.021,1.252,1.89c0.107,0.787-0.092,1.938-0.133,2.514c-0.123,1.521,0.006,2.975,0.111,4.402	c0.113,1.604,0.449,3.916,0.613,5.535c0.172,1.738-0.01,3.246,0.111,4.904c0.117,1.635,0.543,3.699,0.738,5.285	c0.215,1.744,0.117,3.273,0.111,5.029c-0.262-1.572-0.406-3.188-0.613-5.031c-0.139-1.203-0.613-2.852-0.742-4.152	c-0.328-3.283-0.359-6.131-0.854-9.309c-0.139-0.881-0.584-2.072-0.746-2.895c-0.158-0.803-0.059-1.383-0.119-2.264	c-0.064-0.893-0.383-2.162-0.494-3.02c-0.084-0.621-0.1-2.449,0.008-2.515c-0.023-0.122,0.064-0.468-0.125-0.378	C103.615,93.735,103.492,93.719,103.693,93.672L103.693,93.672z"/><path style="fill-rule:evenodd;clip-rule:evenodd;" d="M82.31,95.37c-0.04,0.188,0.188,0.315,0.125,0.377	c-0.56,0.53-0.566,2.895-0.766,3.897c-0.096,0.459-0.463,1.275-0.508,1.758c-0.093,0.932,0.387,1.912,0.243,2.768	c-0.004,0.016-0.354,0.311-0.378,0.377c-0.242,0.611-0.082,1.107-0.256,1.76l-0.252,0.25c-0.2,1.178,0.164,2.779-0.012,3.646	c-0.104,0.496-0.663,0.934-0.759,1.508c-0.188,1.115,0.021,1.996-0.135,3.143c-0.104,0.746-0.555,1.736-0.636,2.514	c-0.118,1.072,0.01,1.836-0.134,2.893l-0.253,0.627c-0.021,0.318,0.174,1,0.121,1.51c-0.053,0.486-0.475,1.418-0.508,1.76	c-0.032,0.326-0.05,1.111-0.003,1.383l0.25,0.252c0.053,0.854,0.045,2.062-0.009,2.893c-0.057,0.812-0.648,1.311-0.885,1.883	c-0.067,0.154,0.042,0.334-0.001,0.504c-0.084,0.299-0.443,0.898-0.507,1.256c-0.275,1.453,0.233,3.475-0.016,5.281l-0.253,0.502	c-0.26,1.553,0.183,3.225-0.014,4.779c-0.04,0.295-0.344,0.863-0.38,1.131c-0.104,0.734-0.004,1.518-0.007,2.264	c2.429-0.096,4.679-0.631,6.92-1.111c0.244-0.055,0.944-0.344,1.258-0.373c8.18-0.818,15.38-2.184,23.274-3.328l-0.127,0.252	c-0.244,0.09-0.625-0.045-0.881-0.004c-0.393,0.062-0.904,0.406-1.258,0.5c-0.539,0.133-0.822-0.014-1.385,0.121	c-0.766,0.184-1.703,0.75-2.518,0.873c-0.672,0.098-1.367-0.141-1.885,0.121c-0.205,0.098-0.23,0.521-0.506,0.627	c-0.236,0.086-0.629-0.029-0.881-0.002c-0.518,0.053-1.467,0.588-1.762,0.623c-0.228,0.023-0.074-0.197-0.376-0.127l-0.253,0.25	c-0.484,0.129-0.809-0.01-1.258,0.123l-0.252,0.25c-0.551,0.211-1.259,0.393-1.763,0.498c-1.03,0.209-1.706,0.152-2.767,0.369	l-0.378,0.25c-0.55,0.078-1.084-0.094-1.635-0.004l-0.378,0.25c-0.771,0.207-1.714,0.412-2.391,0.496	c-0.401,0.045-0.864-0.076-1.257-0.004l-0.252,0.252c-0.622,0.162-1.065,0.055-1.761,0.246c-0.149,0.037-0.268,0.328-0.378,0.375	c-0.354,0.145-1.207,0.221-1.51,0.248c1.461,0.117,2.965,0.791,4.272,1.018c1.284,0.221,2.086,0.184,3.395,0.389	c0.416,0.062,1.099,0.424,1.507,0.506c2.525,0.508,4.97,0.605,7.542,1.029c1.45,0.236,3.231,0.768,4.649,1.02	c1.678,0.295,3.041,0.328,4.777,0.518c0.971,0.1,2.393,0.432,3.395,0.512c0.006-2.094-0.225-3.623-0.361-5.533	c-0.076-1.047,0.018-1.781-0.117-2.768c-0.096-0.676-0.439-1.723-0.496-2.516c-0.283-3.916-0.547-7.725-0.846-11.699	c0.02,0.061,0.357,0.207,0.377,0.254c0.141,0.404-0.062,0.955-0.004,1.383c0.027,0.229,0.35,0.791,0.373,1.008	c0.047,0.479-0.162,0.588-0.129,1.006c0.023,0.311,0.344,1.238,0.373,1.635c0.049,0.717-0.086,1.426-0.006,2.139	c0.096,0.863,0.418,2.236,0.494,3.145c0.025,0.361-0.098,0.785-0.004,1.133l0.25,0.252c0.15,1.029,0.039,1.814,0.117,2.893	c0.096,1.34,0.213,2.877,0.365,4.402c0.035,0.35,0.342,1.098,0.373,1.385c0.061,0.602-0.09,1.006-0.006,1.76l0.252,0.002	c0.279-0.1,0.658-0.789,0.883-1.004c0.482-0.475,0.994-0.811,1.514-1.254c0.771-0.67,1.365-1.6,2.145-2.258	c0.248-0.211,0.535-0.266,0.756-0.5c0.225-0.246,0.289-0.629,0.506-0.879h0.252c0,0,0.348-0.717,0.379-0.752	c0.484-0.607,1.256-1.035,1.766-1.631c0.252-0.301,0.359-0.615,0.631-0.877c0.975-0.961,2.168-1.959,2.902-3.137	c0.133-0.223,0.236-0.447,0.379-0.754c-0.979,0.127-1.572,0.1-2.643,0.244c-0.279,0.035-0.936,0.336-1.258,0.375	c-0.959,0.107-1.58,0.006-2.516,0.117c-0.754,0.084-1.631,0.252-2.516,0.119c0-0.043,0.025-0.369,0.002-0.377	c1.568-0.26,3.529-0.191,5.283-0.488c0.549-0.096,1.043-0.516,1.51-0.625c0.686-0.166,1.207-0.125,1.762-0.246	c0,0,0.143-0.6,0.129-0.754c-0.123-1.014-0.689-2.395-0.871-3.398c-0.77-4.191-1.639-7.895-2.605-11.828	c0.105,0.217,0.422,0.527,0.5,0.756c0.062,0.193-0.045,0.428-0.002,0.629c0.117,0.594,0.404,1.578,0.621,2.391l0.252,0.254	c0.051,0.199-0.072,0.436-0.002,0.629c0.09,0.252,0.553,0.656,0.627,0.881c0.082,0.268-0.049,0.602-0.004,0.881l0.25,0.504	c0.146,0.92,0.074,1.471,0.246,2.264c0.484,2.254,1.5,4.414,1.992,6.672c0.26-0.098,0.502-0.016,0.754-0.125	c0.338-0.152,0.781-0.791,1.135-0.877c0.086-0.023-0.002,0.744-0.002,0.756c0.943-0.072,2.064-0.254,3.145-0.369	c-0.102,0.035-0.244,0.338-0.377,0.377c-1.066,0.279-2.328,0.023-3.146,0.494c-0.158,0.086-0.248,0.371-0.379,0.502	c-0.713,0.689-0.631,0.854-0.635,2.262c-0.016-0.012-0.283,0.088-0.379,0.123c-0.102-0.125-0.213-0.574-0.375-0.629h-0.252	c-0.678,0.637-1.197,1.516-1.891,2.131c-0.324,0.283-0.744,0.418-1.01,0.752c-0.287,0.354-0.359,0.758-0.631,1.131	c-0.178,0.23-0.65,0.469-0.758,0.752c-0.039,0.098,0.059,0.299-0.002,0.377c-0.082,0.102-0.428,0.125-0.502,0.25	c-0.111,0.172-0.002,0.35-0.129,0.502c-0.268,0.314-0.734,0.441-1.008,0.752c-0.229,0.256-0.281,0.625-0.506,0.879	c-0.113,0.121-0.396,0.117-0.502,0.25l-0.002,0.252c-0.1,0.277-0.693,0.504-0.883,0.752c-0.303,0.387-0.359,0.824-0.633,1.256	c-0.504,0.783-0.926,1.148-1.264,2.26c0.559,0.123,1.371,0.168,2.012,0.383c0.098,0.031,0.297,0.346,0.375,0.379	c-0.855,0.064-3.006-0.201-3.521,0.24c-0.221,0.184-0.32,1.076-0.508,1.383c-0.168,0.27-0.688,0.508-0.756,0.877	c-0.115,0.586,0.207,1.633,0.244,2.139c0.076,1.09,0.043,1.84,0.117,2.893c0.016,0.256,0.287,1.385,0.248,1.637	c-0.016,0.082-0.213,0.119-0.254,0.375c-0.15-0.734-0.531-1.963-0.619-2.768c-0.139-1.195-0.088-2.189-0.242-3.27	c-0.232-0.049-0.07-0.053-0.125-0.254c-0.582-0.047-1.164,0.1-1.635-0.129c-0.164-0.084-0.141-0.355-0.25-0.504	c-0.113-0.154-0.463-0.289-0.502-0.506c-0.076-0.393,0.709-1.719,0.887-1.883c0.186-0.176,0.494-0.168,0.629-0.375	c0.115-0.193,0.002-0.307,0.127-0.504c-1.5-0.318-2.965-0.637-4.65-0.768c-0.342-0.027-0.934-0.094-1.256-0.004l-0.254,0.252	c-0.479,0.068-1.229-0.131-1.508-0.131c-0.412-0.006-0.744,0.162-1.258,0.121l-0.502-0.252c-0.402-0.029-0.941,0.205-1.51,0.121	l-0.252-0.252c-0.682-0.188-2.247-0.156-2.765-0.135c-0.503,0.016-1.148,0.352-1.887,0.246c-0.467-0.068-1.118-0.557-1.507-0.633	c-1.591-0.314-3.407,0.014-4.652-0.139c-0.149-0.021-0.663-0.363-0.753-0.381c-0.84-0.158-1.8,0.156-2.641-0.008	c-0.118-0.023-0.541-0.367-0.627-0.379c-0.404-0.068-0.602,0.168-0.88,0.123c-0.625-0.104-1.551-0.791-2.514-0.635	c-0.083,0.01-0.315,0.352-0.378,0.375c-0.696,0.246-0.896-0.156-1.635-0.004c-0.178,0.033-0.576,0.477-0.756,0.5	c-0.374,0.043-1.202-0.361-1.508-0.508c-0.04,0.322-0.01,0.939-0.129,1.383c-0.274,0.994-2.017,1.613-3.4,1.5	c-0.275-0.023-0.801-0.312-1.005-0.381c-1.593-0.535-0.924-0.938-0.622-2.391c-0.291-0.037-0.82-0.25-1.257-0.129	c-0.232,0.057-0.407,0.748-1.385,0.498c-0.648-0.17-0.823-1.043-1.001-1.764c0,0-0.758-0.178-0.503-0.002	c-1.034,0.258-0.814,0.277-1.511,0.625c-0.339,0.164-0.543,0.184-1.133,0.248c-0.063-0.086-0.164-0.35-0.25-0.379h-0.251	c-0.215-0.311-0.248-1.258-0.248-1.258c0.024-0.342,0.002-0.664,0.003-1.006c0.13-0.043,0.193-0.236,0.252-0.252	c0.578-0.197,1.097-0.004,1.761-0.119c0.177-0.035,0.681-0.332,0.881-0.375c0.444-0.102,0.742,0.037,1.132-0.123	c0.457-0.195,0.615-0.838,0.884-1.254c0.334,0.012,0.342-0.191,0.755-0.125l0.125,0.252c0.168,0.064,0.448-0.037,0.628,0.002	c0.342,0.068,1.009,0.463,1.383,0.508c0.298,0.033,0.468-0.137,0.628-0.125c0.601-1.211,0.595-3.039,0.894-4.523	c0.438-2.195,1.228-4.666,1.654-6.785c0.172-0.877,0.087-1.49,0.259-2.389c0.2-1.076,0.688-2.561,0.891-3.645	c0.116-0.633-0.017-1.025,0.13-1.635l0.252-0.25c0.159-0.586,0.315-1.465,0.383-1.885c0.216-1.408,0.164-2.336,0.388-3.773	c0.06-0.393,0.416-0.988,0.507-1.381c0.462-2.016,0.889-3.998,1.275-5.906c0.299-1.5,0.334-2.715,0.641-4.273	c0.08-0.416,0.416-1.162,0.508-1.635c0.108-0.572-0.005-0.84,0.13-1.383c0.191-0.777,0.704-1.621,0.888-2.387	c0.286-1.225,0.265-2.184,0.513-3.393C81.166,99.48,81.801,97.199,82.31,95.37L82.31,95.37z"/><path style="fill-rule:evenodd;clip-rule:evenodd;" d="M95.334,28.507c-0.385,2.525-0.557,4.859-0.903,7.542	c-0.044,0.334-0.341,1.029-0.381,1.382c-0.113,0.923-0.005,1.485-0.133,2.389c-0.085,0.554-0.452,1.374-0.509,2.011	c-0.194,2.083-0.215,3.732-0.519,5.657c-0.168,1.053-0.365,3.591-0.14,4.527c0,0,0.271,0.166,0.125,0.252	c-0.122,0.066-0.247,1.021-0.255,1.131c-0.604-0.073-1.179-0.161-1.885-0.258c-0.023-0.295-0.19-0.908-0.122-1.383l0.253-0.502	c0.259-1.226,0.526-2.58,0.765-3.645c0.239-1.1,0.183-1.996,0.386-3.143c0.236-1.359,0.74-3.027,1.019-4.398	c0.339-1.701,0.312-3.166,0.643-4.902c0.176-0.947,0.687-2.211,0.89-3.267c0.208-1.104,0.136-2.31,0.512-3.268L95.334,28.507	L95.334,28.507z"/><path style="fill-rule:evenodd;clip-rule:evenodd;" d="M32.217,57.676l1.004-1.672l-10.395-6.246l-1.568,3.401l0.334,0.201	c1.083-1.355,1.125-1.393,2.402-0.625L32.217,57.676L32.217,57.676z"/><path style="fill-rule:evenodd;clip-rule:evenodd;" d="M36.299,51.249l0.733-0.843l-7.614-6.618l0.023-0.027l11.453,2.203	l1.116-1.285l-9.006-7.827l-0.732,0.843l7.279,6.328l-0.023,0.026l-10.943-2.112l-2.454,2.823l0.294,0.256	c1.228-0.953,1.337-1.187,2.582-0.105L36.299,51.249L36.299,51.249z"/><path style="fill-rule:evenodd;clip-rule:evenodd;" d="M47.5,39.594l1.449-1.305l-7.427-8.249l0.896-0.806	c1.015-0.914,1.721-0.978,2.634,0.037l0.369-0.332l-1.809-1.903l-6.746,6.075l1.667,1.958l0.369-0.332	c-0.787-1.033-0.78-1.636,0.26-2.573l0.91-0.818L47.5,39.594L47.5,39.594z"/><path style="fill-rule:evenodd;clip-rule:evenodd;" d="M55.168,33.764l6.064-3.644l-1.279-2.231l-0.425,0.256	c0.621,1.24,0.393,1.791-0.473,2.311l-1.687,1.014c-0.76,0.457-0.976,0.545-1.487-0.306l-2.037-3.39l1.839-1.104	c0.912-0.548,1.539-0.263,2.032,0.558l0.425-0.255l-1.917-3.191l-0.426,0.255c0.21,0.557,0.506,1.29-0.543,1.919l-1.839,1.105	l-1.817-3.024c-0.438-0.729-0.277-0.909,0.482-1.365l1.186-0.713c1.003-0.603,1.833-0.667,2.563,0.549l0.426-0.255l-1.396-2.222	l-7.28,4.374l0.201,0.334c1.536-0.612,1.582-0.64,2.485,0.865L55.168,33.764L55.168,33.764z"/><path style="fill-rule:evenodd;clip-rule:evenodd;" d="M65.718,27.84l1.833-0.667l-1.886-5.182l1.033-0.375l4.835,4.108	l1.916-0.697l-5.061-4.365c1.237-0.696,2.24-1.777,1.548-3.677c-1.085-2.982-4.535-1.727-5.784-1.272l-4.099,1.492l0.134,0.367	c1.64-0.314,1.673-0.327,2.273,1.323L65.718,27.84L65.718,27.84z M64.3,18.243c-0.437-1.2-0.546-1.5,0.571-1.906	c1.4-0.509,2.614-0.386,3.269,1.414c0.68,1.866-0.728,2.718-1.811,3.112l-0.95,0.346L64.3,18.243L64.3,18.243z"/><path style="fill-rule:evenodd;clip-rule:evenodd;" d="M77.77,23.414l1.104-0.174l-1.578-9.964l0.035-0.005l7.357,9.048	l1.681-0.266l-1.867-11.786l-1.103,0.175l1.509,9.527l-0.035,0.005l-7.025-8.652l-3.695,0.585l0.061,0.386	c1.553,0.059,1.787-0.05,2.045,1.579L77.77,23.414L77.77,23.414z"/><path style="fill-rule:evenodd;clip-rule:evenodd;" d="M90.327,21.678l1.097-0.058l1.135-3.752l4.515-0.237l1.521,3.614l1.84-0.096	l-4.944-11.69l-3.329,0.175l0.021,0.389c0.714,0.069,1.37,0.052,1.407,0.761c0.006,0.124-0.156,0.754-0.246,1.061L90.327,21.678	L90.327,21.678z M94.44,11.751l2.289,5.064l-3.913,0.205L94.44,11.751L94.44,11.751z"/><path style="fill-rule:evenodd;clip-rule:evenodd;" d="M106.738,22.071l1.936,0.238l1.352-11.016l1.197,0.147	c1.355,0.166,1.865,0.658,1.699,2.013l0.492,0.061l0.25-2.613l-9.01-1.106l-0.383,2.542l0.492,0.061	c0.264-1.272,0.723-1.662,2.111-1.492l1.215,0.149L106.738,22.071L106.738,22.071z"/><path style="fill-rule:evenodd;clip-rule:evenodd;" d="M116.121,24.02l1.891,0.472l2.934-11.767l-3.711-0.505l-0.094,0.379	c1.613,0.64,1.66,0.669,1.301,2.115L116.121,24.02L116.121,24.02z"/><path style="fill-rule:evenodd;clip-rule:evenodd;" d="M127.227,28.207c3.314,1.617,5.352-0.013,7-3.391	c1.672-3.426,1.717-6.067-1.598-7.684c-3.459-1.687-5.463-0.002-7.135,3.424C123.83,23.966,123.865,26.567,127.227,28.207	L127.227,28.207z M127.246,21.412c1.051-2.151,2.547-4.735,5.018-3.531c2.422,1.182,1.229,3.992,0.211,6.08	c-0.996,2.04-2.412,4.702-4.883,3.498C125.17,26.277,126.283,23.387,127.246,21.412L127.246,21.412z"/><path style="fill-rule:evenodd;clip-rule:evenodd;" d="M136.193,32.452l0.893,0.672l6.07-8.057l0.029,0.021l-1.398,11.578	l1.359,1.024l7.18-9.529l-0.893-0.672l-5.803,7.703l-0.029-0.021l1.344-11.064l-2.986-2.251l-0.234,0.312	c1.035,1.159,1.275,1.251,0.283,2.568L136.193,32.452L136.193,32.452z"/><path style="fill-rule:evenodd;clip-rule:evenodd;" d="M146.725,40.137l0.736,0.817l3.631-1.479l3.023,3.36l-1.85,3.456l1.234,1.37	l5.973-11.2l-2.23-2.477l-0.291,0.261c0.396,0.598,0.822,1.098,0.295,1.572c-0.092,0.083-0.684,0.354-0.979,0.476L146.725,40.137	L146.725,40.137z M157.029,37.086l-2.496,4.966l-2.621-2.912L157.029,37.086L157.029,37.086z"/><path style="fill-rule:evenodd;clip-rule:evenodd;" d="M156.18,50.796l4.129,5.896l2.137-1.43l-0.285-0.407	c-1.365,0.956-1.982,0.198-2.623-0.717l-0.875-1.249c-0.682-0.973-0.682-0.973,0.408-1.736l8.162-5.715l-2.471-2.816l-0.318,0.224	c0.797,1.541,0.812,1.595-0.406,2.449L156.18,50.796L156.18,50.796z"/><path style="fill-rule:evenodd;clip-rule:evenodd;" d="M25.424,144.799l4.058,5.795l2.136-1.43l-0.284-0.408	c-1.194,0.707-1.759,0.518-2.339-0.309l-1.129-1.613c-0.509-0.727-0.611-0.936,0.201-1.504l3.239-2.27l1.23,1.758	c0.61,0.871,0.369,1.518-0.415,2.066l0.285,0.406l3.05-2.135l-0.285-0.408c-0.54,0.248-1.251,0.594-1.952-0.408l-1.23-1.756	l2.89-2.025c0.698-0.486,0.888-0.34,1.396,0.387l0.793,1.133c0.671,0.959,0.793,1.783-0.368,2.596l0.284,0.408l2.119-1.551	l-4.871-6.955l-0.319,0.223c0.718,1.49,0.748,1.533-0.689,2.539L25.424,144.799L25.424,144.799z"/><path style="fill-rule:evenodd;clip-rule:evenodd;" d="M34.667,156.6l0.843,0.732l6.851-7.881l0.027,0.023l-4.055,10.312	l0.95,0.826l9.731-5.52l0.026,0.023l-6.92,7.961l1.338,1.164l7.829-9.006l-1.807-1.57l-9.016,5.129l-0.027-0.021l3.771-9.691	l-3.037-2.639l-0.256,0.293c0.939,1.217,1.173,1.326,0.091,2.57L34.667,156.6L34.667,156.6z"/><path style="fill-rule:evenodd;clip-rule:evenodd;" d="M49.84,168.76l0.968,0.559l5.222-9.043l0.03,0.018l-2.013,10.896	l1.091,0.629l8.499-7.273l0.031,0.018l-5.275,9.137l1.536,0.885l5.966-10.334l-2.073-1.195l-7.873,6.756l-0.03-0.018l1.853-10.232	l-3.485-2.012l-0.195,0.338c1.154,1.016,1.405,1.078,0.581,2.506L49.84,168.76L49.84,168.76z"/><path style="fill-rule:evenodd;clip-rule:evenodd;" d="M66.564,177.324l1.057,0.303l2.294-3.178l4.346,1.246l0.262,3.91l1.772,0.51	l-0.87-12.664l-3.204-0.918l-0.107,0.375c0.652,0.299,1.278,0.496,1.083,1.178c-0.034,0.119-0.393,0.662-0.578,0.922	L66.564,177.324L66.564,177.324z M73.685,169.277l0.516,5.533l-3.766-1.08L73.685,169.277L73.685,169.277z"/><path style="fill-rule:evenodd;clip-rule:evenodd;" d="M89.565,182.254l1.099,0.02l1.394-3.664l4.52,0.078l1.266,3.711l1.844,0.031	l-4.118-12.006l-3.333-0.059l-0.007,0.391c0.708,0.119,1.363,0.148,1.35,0.857c-0.002,0.123-0.208,0.74-0.319,1.041L89.565,182.254	L89.565,182.254z M94.361,172.637l1.931,5.213l-3.918-0.068L94.361,172.637L94.361,172.637z"/><path style="fill-rule:evenodd;clip-rule:evenodd;" d="M107.465,181.643l1.629-0.258l1.219-9.762l0.035-0.006l4.525,8.852	l1.662-0.264l0.604-12.176l-1.139,0.18l-0.414,9.85l-0.035,0.006l-4.664-9.045l-1.209,0.191l-1.254,9.982l-0.035,0.006	l-3.824-9.178l-3.17,0.502l0.062,0.385c1.498,0.049,1.652,0.008,2.271,1.543L107.465,181.643L107.465,181.643z"/><path style="fill-rule:evenodd;clip-rule:evenodd;" d="M124.039,177.865l1.033-0.375l-0.012-3.92l4.248-1.547l2.512,3.012	l1.732-0.631l-8.146-9.734l-3.131,1.141l0.133,0.367c0.703-0.143,1.324-0.352,1.568,0.316c0.041,0.115,0.07,0.766,0.074,1.086	L124.039,177.865L124.039,177.865z M125.07,167.17l3.67,4.174l-3.682,1.34L125.07,167.17L125.07,167.17z"/><path style="fill-rule:evenodd;clip-rule:evenodd;" d="M139.059,171.094l1.672-1.006l-2.84-4.727l0.941-0.566l5.529,3.111	l1.748-1.051l-5.801-3.32c1.082-0.918,1.859-2.172,0.818-3.904c-1.635-2.719-4.779-0.83-5.92-0.145l-3.738,2.246l0.201,0.334	c1.549-0.621,1.58-0.639,2.484,0.865L139.059,171.094L139.059,171.094z M135.834,161.943c-0.656-1.096-0.82-1.369,0.197-1.98	c1.277-0.768,2.492-0.877,3.479,0.764c1.023,1.703-0.195,2.807-1.184,3.4l-0.865,0.521L135.834,161.943L135.834,161.943z"/><path style="fill-rule:evenodd;clip-rule:evenodd;" d="M145.91,153.883c-0.557-0.619-0.324-0.996,0.439-1.684	c2.479-2.23,4.096-0.992,6.195,1.34c2.396,2.662,2.9,4.283,0.502,6.443c-0.908,0.818-1.229,0.461-1.691-0.051L145.91,153.883	L145.91,153.883z M151.246,162.725l1.965-1.768c2.568-2.314,4.508-4.584,0.76-8.748c-3.357-3.729-5.807-2.766-8.311-0.512	l-3.648,3.287l0.26,0.289c1.391-0.893,1.43-0.93,2.605,0.375L151.246,162.725L151.246,162.725z"/><path style="fill-rule:evenodd;clip-rule:evenodd;" d="M156.836,139.459c-0.35,0.314-1.227,1.098-1.963,2.074	c-1.504,1.996-1.508,3.857,0.049,5.031c2.988,2.252,6.244-2.51,8.537-0.781c1.289,0.971,0.996,2.127,0.324,3.018	c-0.855,1.133-2.303,1.818-2.889,2.064l1.146,0.865c0.295-0.244,1.414-1.111,2.236-2.201c1.473-1.953,1.914-4.131-0.111-5.656	c-3.031-2.283-6.301,2.469-8.48,0.824c-0.936-0.703-0.914-1.643-0.35-2.395c0.832-1.104,2.076-1.811,2.547-2.053L156.836,139.459	L156.836,139.459z"/><path style="fill-rule:evenodd;clip-rule:evenodd;fill:#9CB7C0;" d="M49.315,90.489c0-1.18-0.135-2.563-1.281-2.563	c-1.012,0-1.72,0.169-2.327,0.438v-0.573l5.125-2.832h1.079v21.21h-2.596V90.489L49.315,90.489z"/><path style="fill-rule:evenodd;clip-rule:evenodd;fill:#9CB7C0;" d="M61.115,104.889c0.91,0.135,1.821,0.338,2.765,0.338	c6.272,0,7.048-5.701,7.048-9.578c-0.81,0.809-2.125,2.259-5.024,2.259c-3.743,0-5.867-2.395-5.867-6.373	c0-4.317,2.529-6.576,6.913-6.576c5.868,0,6.98,5.395,6.98,10.217c0,6.407-1.955,11.364-8.834,11.364	c-1.753,0-3.373-0.27-3.979-0.371V104.889L61.115,104.889z M66.645,96.593c2.461,0,3.743-2.057,4.282-2.799	c-0.101-1.214-0.168-7.52-4.147-7.52c-2.731,0-3.743,2.495-3.743,5.125C63.037,94.266,64.285,96.593,66.645,96.593L66.645,96.593z"	/><path style="fill-rule:evenodd;clip-rule:evenodd;fill:#9CB7C0;" d="M118.666,104.889c0.91,0.135,1.82,0.338,2.766,0.338	c6.271,0,7.047-5.701,7.047-9.578c-0.809,0.809-2.125,2.259-5.023,2.259c-3.744,0-5.867-2.395-5.867-6.373	c0-4.317,2.527-6.576,6.912-6.576c5.867,0,6.98,5.395,6.98,10.217c0,6.407-1.957,11.364-8.836,11.364	c-1.752,0-3.371-0.27-3.979-0.371V104.889L118.666,104.889z M124.195,96.593c2.463,0,3.744-2.057,4.283-2.799	c-0.102-1.214-0.168-7.52-4.146-7.52c-2.732,0-3.744,2.495-3.744,5.125C120.588,94.266,121.836,96.593,124.195,96.593	L124.195,96.593z"/><path style="fill-rule:evenodd;clip-rule:evenodd;fill:#9CB7C0;" d="M136.164,104.889c0.91,0.135,1.822,0.338,2.766,0.338	c6.271,0,7.049-5.701,7.049-9.578c-0.811,0.809-2.125,2.259-5.025,2.259c-3.742,0-5.867-2.395-5.867-6.373	c0-4.317,2.529-6.576,6.912-6.576c5.867,0,6.98,5.395,6.98,10.217c0,6.407-1.955,11.364-8.834,11.364	c-1.754,0-3.373-0.27-3.98-0.371V104.889L136.164,104.889z M141.695,96.593c2.461,0,3.742-2.057,4.283-2.799	c-0.102-1.214-0.17-7.52-4.148-7.52c-2.732,0-3.744,2.495-3.744,5.125C138.086,94.266,139.334,96.593,141.695,96.593	L141.695,96.593z"/><path style="fill-rule:evenodd;clip-rule:evenodd;fill:#4E8A95;stroke:#000000;stroke-width:0.9959;stroke-miterlimit:2.6131;" d="	M11.791,96.191c0-2.134,1.73-3.864,3.865-3.864s3.865,1.73,3.865,3.864c0,2.135-1.73,3.865-3.865,3.865	S11.791,98.326,11.791,96.191L11.791,96.191z"/><path style="fill-rule:evenodd;clip-rule:evenodd;fill:#4E8A95;stroke:#000000;stroke-width:0.9959;stroke-miterlimit:2.6131;" d="	M172.756,96.337c0-2.134,1.73-3.865,3.865-3.865s3.865,1.73,3.865,3.865c0,2.134-1.73,3.864-3.865,3.864	S172.756,98.471,172.756,96.337L172.756,96.337z"/></g></svg>