<?xml version="1.0" encoding="iso-8859-1"?><!-- Generator: Adobe Illustrator 16.0.0, SVG Export Plug-In . SVG Version: 6.00 Build 0) --><!DOCTYPE svg PUBLIC "-//W3C//DTD SVG 1.1//EN" "http://www.w3.org/Graphics/SVG/1.1/DTD/svg11.dtd"><svg version="1.1" id="Layer_1" xmlns="http://www.w3.org/2000/svg" xmlns:xlink="http://www.w3.org/1999/xlink" x="0px" y="0px" width="192.756px" height="192.756px" viewBox="0 0 192.756 192.756" style="enable-background:new 0 0 192.756 192.756;" xml:space="preserve"><g><polygon style="fill-rule:evenodd;clip-rule:evenodd;fill:#FADF3C;" points="0,0 192.756,0 192.756,192.756 0,192.756 0,0	"/><polygon style="fill-rule:evenodd;clip-rule:evenodd;" points="135.508,131.84 148.346,131.84 148.346,119.305 135.508,119.305	135.508,131.84	"/><polygon style="fill-rule:evenodd;clip-rule:evenodd;" points="142.844,177.693 148.346,177.693 148.346,134.59 142.844,134.59	142.844,177.693	"/><polygon style="fill-rule:evenodd;clip-rule:evenodd;fill:#C23C40;" points="21.482,109.523 171.273,109.523 171.273,107.994	21.482,107.994 21.482,109.523	"/><polygon style="fill-rule:evenodd;clip-rule:evenodd;" points="135.508,177.693 141.01,177.693 141.01,134.59 135.508,134.59	135.508,177.693	"/><path style="fill-rule:evenodd;clip-rule:evenodd;" d="M130.311,177.693v-33.016c0-6.725-4.891-11.615-12.229-11.615	c-5.197,0-8.865,1.527-11.922,4.584v-3.057h-5.502v11.617c3.057-6.113,9.781-7.949,13.756-7.949c4.586,0,10.395,2.752,10.395,9.172	v30.264H130.311L130.311,177.693z"/><path style="fill-rule:evenodd;clip-rule:evenodd;" d="M122.975,177.693V147.43c0-5.197-4.281-7.336-8.561-7.336	c-4.891,0-13.756,2.445-13.756,14.061v23.539h5.502v-27.512c0-3.059,2.141-5.809,6.113-5.809c3.975,0,4.893,2.139,4.893,4.584	v28.736H122.975L122.975,177.693z"/><polygon style="fill-rule:evenodd;clip-rule:evenodd;" points="93.321,177.693 99.129,177.693 99.129,134.59 93.321,134.59	93.321,177.693	"/><polygon style="fill-rule:evenodd;clip-rule:evenodd;" points="89.042,130.311 89.042,125.725 52.663,125.725 52.663,146.818	87.207,146.818 87.207,141.928 59.389,141.928 59.389,130.311 89.042,130.311	"/><polygon style="fill-rule:evenodd;clip-rule:evenodd;" points="89.958,177.693 89.958,172.496 50.829,172.496 50.829,123.891	89.042,123.891 89.042,119.305 44.715,119.305 44.715,177.693 89.958,177.693	"/><polygon style="fill-rule:evenodd;clip-rule:evenodd;" points="89.958,170.662 89.958,165.465 59.083,165.465 59.083,153.238	87.207,153.238 87.207,148.652 52.663,148.652 52.663,170.662 89.958,170.662	"/><path style="fill-rule:evenodd;clip-rule:evenodd;fill:#C23C40;" d="M111.051,26.374c0-0.611-0.611-1.528-1.223-1.528	c-3.057-1.834-6.113,0.305-9.17,0.305c-1.223,0-2.445,0.306-3.057-0.305c0-0.612,0.305-0.612,0.305-1.223	c-0.611,0-1.528-0.306-2.445-0.306c0,0-1.834,0-3.057-0.611c-4.28-1.528-8.254-2.445-13.145-0.306	c-1.529,0.611-3.057,1.223-4.586,1.223c-0.917,0,1.223,1.528,0.917,2.446c-2.446,0.306-4.891,1.223-7.031,3.057v0.306	c1.529,1.528,3.668,2.14,6.114,2.14c0.611,0,2.14,1.834,5.809,2.14c5.197,0.917,8.254-1.834,11.922-0.306	c-0.306-0.612-0.306-0.917-0.306-1.529c4.28,1.223,7.642,0.917,11.005-0.611C106.16,30.348,107.689,26.068,111.051,26.374	L111.051,26.374z"/><path style="fill-rule:evenodd;clip-rule:evenodd;" d="M148.652,83.233c-0.611-0.611-1.529-1.528-2.141-1.834	c-1.527-0.306-1.527-2.14-2.139-3.363c-0.918-2.445,1.527-1.834,1.223-3.363c-0.307-0.917-0.611-1.223-1.529-1.834	c0-0.917,0.918-1.223,1.529-1.223c0-0.611-0.307-0.917-0.611-1.223c-0.918-0.306-1.529-0.306-2.141-0.612	c0-0.611,2.141-1.223,1.834-3.057c-0.611,0.306-1.527,0-2.445-0.306c-0.611-0.611,0.611-1.223,0.307-1.834	c-1.529-0.611-3.059-1.528-4.586-2.14c-1.529-0.306-1.223-1.834-1.834-3.057c-1.834-4.585-3.057-8.865-6.42-12.839	c-0.611-0.917-0.918-0.917-1.834-1.834c0-0.306-0.307-0.917,0.305-1.223s1.529-1.223,1.529-1.834c1.527-3.058,1.527-7.031,0-9.783	c-1.834-3.057-4.586-4.28-7.643-4.28c-4.586,0-7.643,3.668-9.172,7.643c-2.139,4.891-1.527,7.337-4.891,9.782	c-0.305,0.611-1.527,0.917-2.75-0.306c-0.611-0.611-1.223-1.834-0.918-2.751c0.307,0.306,0.918,1.223,1.223,1.223	c0.611,0.611,1.223,0.611,1.834,0.306s0.918-0.917,0.918-1.834c0-0.917-0.611-1.834-1.223-2.446c-0.918-0.917-2.752-0.611-3.67,0	c-1.527,0.612-2.445,2.446-2.139,4.28c0,1.223,0.916,2.14,1.223,3.668c0,0-0.307,0.611-0.611,0.611	c-0.918,0-1.529-0.306-2.141-1.223c-0.305-0.306,0-0.917-0.611-0.917c-1.223,0.917-0.916,2.446-0.916,3.668	c0,0.306,0,0.611-0.307,0.611c-1.223-1.223-1.834-2.14-2.445-3.668c-1.223,0.611-1.223,1.528-1.223,2.446	c-0.306,0.917,0.611,2.14,0,2.14c-1.529-0.306-2.14-2.446-2.14-4.28c-0.611,0.306-1.223,0.917-1.528,1.223	c-0.611,0.917-0.611,2.14-1.834,2.14c-1.223-0.306-1.529-1.834-1.529-3.363c-0.306-0.306-0.611,0.306-0.917,0.612	c-0.917,0.611-1.528,1.834-2.14,2.751c-0.917-1.223-0.917-2.751-1.223-4.28l0,0c-1.528,0.611-3.057,5.197-5.197,5.197	c0,0,0-0.306,0-0.612c0.917-1.223,0.612-3.057,0.612-4.585c0-0.306,0-1.528-0.612-1.528c-0.917,1.223-1.223,1.834-2.446,2.751	c-1.223,1.223-2.751,2.14-2.751,2.14c0-0.612,0.306-1.223,0.306-1.529c0.306-0.611,0.611-1.528,0.611-2.445	s-0.306-1.834-0.306-2.14s0-0.306-0.306-0.306c0,0-0.611,0.611-2.446,1.528c-1.834,1.223-3.974,0.306-4.28,0.611	c0,0,0,0.917-0.306,1.528c-0.306,0.917-0.611,1.834-1.223,1.834S61.223,46.244,60,46.549c-0.917,0.612-2.752,6.114-2.752,6.114	c-2.445-0.306-3.057-0.917-3.974-2.446c-0.612-0.306-0.612,0.306-0.612,0.612c-0.305,0-0.611,1.528-0.611,3.974	c0,0.611,0,1.528,0.306,2.446c0,0.611,0,1.223,0,1.528c1.834,9.782,6.114,18.342,7.031,28.125	c1.223,5.196-3.668,7.336-5.502,11.004l0.306,0.307c1.834,0,3.668,0,5.809,0c0.611,0,1.222-0.611,1.528-1.223	c0.306-2.141,0.611-4.892,1.528-7.032c2.14-0.306,2.751-2.751,4.585-3.974c0-0.611-0.917-0.917-1.222-1.834	c0.611-0.612,1.528-1.223,2.14-2.14c0.306-0.917-0.917-1.223-0.917-1.834c0-0.306,0.306-0.611,0.612-0.917	c0.306-0.917,1.834-0.917,0.917-1.834c-0.306-1.223-1.529-0.611-2.14-1.528c0.306-1.223,1.223-2.751,2.445-3.363	c-0.917-0.917-2.445-1.528-3.668-1.528c0-0.917,0-1.834,0-2.446l0.306-0.306c1.834,0.917,3.058,1.528,4.892,2.446	c-0.306,1.528,0.306,2.751,0.611,4.28c0.306,2.14,1.834,3.668,1.528,5.808c-0.306,1.834-2.14,2.445-3.057,3.363	c-0.306,0.305-1.223,0.611-1.223,1.223c1.223,1.529,2.751,2.446,4.28,3.668l0.306,0.306c1.223-1.528,1.528-3.363,2.445-4.585	c0.612-0.306,1.529-0.306,2.14-0.917c0.611,0,1.223-0.306,1.528-0.306c-0.305-1.223-1.528-2.14-2.445-2.751	c0.611-0.611,1.223-0.611,2.14-0.611c0.305-0.306,0.611-0.306,0.917-0.917c-0.917,0-1.834-0.917-1.834-1.834	c0.917-0.611,2.445-1.528,3.057-3.362c-0.611-0.612-1.528-0.612-2.14-0.917c0-0.917,0.305-1.834,0.611-2.751	c0-0.306,0-0.917,0.611-0.917c2.445,0.612,5.502,0.612,8.254,0c0.306,0.306,0.611,0.306,0.611,0.612	c-0.611,3.362-1.834,6.725-2.446,10.088c-0.917,1.223-2.446,2.14-3.974,3.057c-0.611,0.611-1.834,0.917-2.14,2.14l4.585,3.668	h0.611c0.917-1.223,1.529-2.446,2.446-3.668c0-0.611,0-1.529,0.306-1.834c1.223,0,2.445-0.306,3.362-0.611	c0-0.917-0.917-1.528-1.528-2.445c0.917-0.306,2.14,0,3.057-0.611c0.306,0,0.917-0.611,0.917-1.528h-0.917c0,0-0.611,0-0.305-0.306	c1.528-0.305,3.057-0.611,4.28-1.834c-0.307,0-0.612-0.306-0.918-0.611c0.306-0.306,0.611-0.306,0.918-0.306	c0.916-0.611,1.834-1.528,1.834-2.751c-0.918,0-2.141-0.306-2.446-0.917c0.612-0.917,1.528-1.528,2.75-1.528	c1.223,3.057,3.057,6.114,5.504,8.865c0,0.306,0,0.612,0,0.917l-4.893,5.808c0,0.306-0.305,0.917,0.307,0.917l6.725-0.306	c0.307,0,0.918-0.306,0.918-0.611c0.305-1.834,0.305-3.974,0.611-5.808c0.916-0.611,1.527-2.446,3.057-2.446	c0-0.611-0.918-0.917-1.529-1.223c0-1.223,0.918-1.834,1.529-2.446c-0.611-0.306-1.529,0.611-2.141,0	c0.611-0.306,0.918-0.611,1.529-1.834v-0.306c-0.918,0.306-1.223,0-1.834,0c-0.611-0.306-1.223-0.917-1.223-1.528	c0.611-1.223,1.527-2.14,2.445-3.057c0.305,0,0.611-0.611,0.916,0c0.307,0.917,0.611,1.834,1.223,2.751	c0,0.612,0,1.223,0.613,1.834c1.527,0.917,3.057,2.446,4.584,4.28c0.307,0.917,1.529,1.834,1.223,3.363l-3.973,6.114l-0.307,0.611	c0.307,0,0.307,0.306,0.611,0.306l6.42-1.528l0.611-0.306l-0.305-4.585c0.611-0.917,1.527-1.223,2.445-2.14	c-0.307-0.306-0.611-0.306-0.918-0.612c0-0.917,0.918-0.917,1.223-1.528c0-0.611-1.527-0.611-1.527-1.528	c0.916-0.612,1.834-1.529,1.834-2.751c-0.307-0.306-0.918,0.306-1.223,0.306c-0.307,0-0.307-0.611-0.611-0.306	c-0.918-0.611-1.834-0.611-3.059-0.611c-0.305-0.917-0.611-1.834-0.611-3.057h0.307c4.891,1.529,9.477,2.751,14.674,3.363	l0.916,0.611c2.141,3.668,3.668,7.031,6.115,10.394c0.611,0.611,1.223,1.223,1.223,2.14c-1.223,2.14-3.057,3.668-4.586,5.502	l-0.307,0.917c0.307,0.306,0.611,0.306,0.918,0.611l6.113-1.223l0.611-0.306c0-1.529,0.611-3.057,0.307-4.585	C146.818,84.15,148.041,84.15,148.652,83.233L148.652,83.233z M74.673,21.482l-1.223-5.808c0-0.306-0.611-0.917-0.917-0.612	C67.948,16.591,64.585,18.12,60,19.648c-0.306,0.306-0.612,0.306-1.223,0l-7.031-4.891c0.306,3.057,0.612,5.808,0.917,7.642	c0.306,0.306,0,0.306-0.305,0.306c-1.223,0-2.446,1.223-3.363,2.445c-1.223,2.14-2.445,3.974-4.279,4.891	c0.306,0.917,0.917,1.529,1.834,1.834c0.611,0,1.223,0,1.834,0.306c0,0.306,0,0.306-0.306,0.611	c-1.528,3.057,0.917,7.031-2.14,9.171c1.223,0.612,3.057,0,4.28-1.223l0,0c-0.917,2.14-1.223,4.585-0.917,6.725	c0,0.612-0.306,1.529-0.611,2.14c3.057-0.306,5.197-3.974,6.114-7.031c0,0.306,0,0.306,0,0.306c-0.306,1.223-1.223,3.974,0,5.502	c0.306,0.306,0.611,0.917,1.223,0.917c0.611-2.14,1.528-4.28,3.057-5.502c1.529,0,3.057,0.917,4.585,1.223	c0.917-1.834-0.611-4.891-0.611-4.891l0,0c0,0,1.223,1.223,1.834,1.834c0.917,0.612,3.057,0.917,4.28,0.306	c0.611-0.611,1.222-0.917,1.222-1.529c-3.974,0.306-4.28-4.891-6.114-7.336h0.306c0.917,0.611,1.528,1.834,2.446,2.445l5.502,1.223	l0.611-0.611c0-0.917,0.611-2.14,0.306-3.057c-0.611-0.612-0.917,0.611-1.528,0.611c-1.223-0.611-2.14-0.611-3.668-1.223	l-2.751-5.197v-0.306l3.669-2.14c0.305,0.306,0.611,0.917,0.917,1.223c0.917-0.306,0.611-1.528,0.917-2.14	c0.611,0,0.611,0.612,0.917,1.223c0.917,0,0.611-1.528,1.223-2.14C73.451,22.705,74.979,22.705,74.673,21.482L74.673,21.482z M126.947,34.933c0.918,1.834,0.307,3.974-0.611,5.197c-0.916,1.529-2.75,1.834-4.584,1.529c-0.918-0.306-1.836-0.917-2.752-1.529	c-0.918,1.529-2.752,3.668-4.279,4.891c-1.223,0.611-2.752,1.834-4.281,1.834v-0.611c3.059-3.057,4.586-7.948,6.115-10.394	c1.223-2.751,3.057-4.28,5.197-4.28C123.586,31.57,126.336,33.099,126.947,34.933L126.947,34.933z M63.668,23.928	c0,0.917-0.611,1.528-1.528,1.528c-0.917,0-1.528-0.611-1.528-1.528c0-0.917,0.611-1.529,1.528-1.529	C63.057,22.399,63.668,23.011,63.668,23.928L63.668,23.928z"/></g></svg>