<?xml version="1.0" encoding="iso-8859-1"?><!-- Generator: Adobe Illustrator 16.0.0, SVG Export Plug-In . SVG Version: 6.00 Build 0) --><!DOCTYPE svg PUBLIC "-//W3C//DTD SVG 1.1//EN" "http://www.w3.org/Graphics/SVG/1.1/DTD/svg11.dtd"><svg version="1.1" id="Layer_1" xmlns="http://www.w3.org/2000/svg" xmlns:xlink="http://www.w3.org/1999/xlink" x="0px" y="0px" width="192.756px" height="192.756px" viewBox="0 0 192.756 192.756" style="enable-background:new 0 0 192.756 192.756;" xml:space="preserve"><g><polygon style="fill-rule:evenodd;clip-rule:evenodd;fill:#FFFFFF;" points="0,0 192.756,0 192.756,192.756 0,192.756 0,0	"/><path style="fill-rule:evenodd;clip-rule:evenodd;fill:#CC2229;" d="M14.02,174.572H12.72v-9.561h6.497v9.561h-1.299v-4.102h-1.3	v4.102h-1.299v-4.102H14.02V174.572L14.02,174.572z M12.72,174.572h1.299H12.72L12.72,174.572z M20.563,165.012h1.3v9.561h-1.3	V165.012L20.563,165.012z M23.162,165.012h1.299v9.561h-1.299V165.012L23.162,165.012z M25.761,165.012h1.299v4.758h-1.299V165.012	L25.761,165.012z M36.156,165.012h1.299v4.758h-1.299V165.012L36.156,165.012z M45.251,165.012h-1.3v4.758h1.3V165.012	L45.251,165.012z M30.958,165.012h1.299v4.758h-1.299V165.012L30.958,165.012z M27.061,169.812h1.299v4.76h-1.299V169.812	L27.061,169.812z M37.455,169.812h1.299v4.76h-1.299V169.812L37.455,169.812z M43.952,169.812h-1.299v4.76h1.299V169.812	L43.952,169.812z M28.36,165.012h1.299v9.561H28.36V165.012L28.36,165.012z M38.754,165.012h1.3v9.561h-1.3V165.012L38.754,165.012	z M42.652,165.012h-1.299v9.561h1.299V165.012L42.652,165.012z M33.557,165.012h1.299v9.561h-1.299V165.012L33.557,165.012z M46.55,165.012h1.3v9.561h-1.3V165.012L46.55,165.012z M49.149,165.012h1.3v9.561h-1.3V165.012L49.149,165.012z M51.748,165.012	h1.3v9.561h-1.3V165.012L51.748,165.012z M50.449,165.012h1.299v4.758h-1.299V165.012L50.449,165.012z M77.636,174.572h-1.299	v-9.561h6.497v9.561h-1.299v-4.102h-1.299v4.102h-1.3v-4.102h-1.299V174.572L77.636,174.572z M76.337,174.572h1.299H76.337	L76.337,174.572z M84.18,165.012h1.3v9.561h-1.3V165.012L84.18,165.012z M86.779,165.012h1.3v9.561h-1.3V165.012L86.779,165.012z M89.377,165.012h1.3v4.758h-1.3V165.012L89.377,165.012z M99.773,165.012h1.299v4.758h-1.299V165.012L99.773,165.012z M108.867,165.012h-1.299v4.758h1.299V165.012L108.867,165.012z M94.575,165.012h1.299v4.758h-1.299V165.012L94.575,165.012z M90.677,169.812h1.299v4.76h-1.299V169.812L90.677,169.812z M101.072,169.812h1.299v4.76h-1.299V169.812L101.072,169.812z M107.568,169.812h-1.299v4.76h1.299V169.812L107.568,169.812z M91.976,165.012h1.3v9.561h-1.3V165.012L91.976,165.012z M102.371,165.012h1.299v9.561h-1.299V165.012L102.371,165.012z M106.27,165.012h-1.301v9.561h1.301V165.012L106.27,165.012z M97.174,165.012h1.299v9.561h-1.299V165.012L97.174,165.012z M110.166,165.012h1.301v9.561h-1.301V165.012L110.166,165.012z M112.766,165.012h1.299v9.561h-1.299V165.012L112.766,165.012z M115.365,165.012h1.299v9.561h-1.299V165.012L115.365,165.012z M114.064,165.012h1.301v4.758h-1.301V165.012L114.064,165.012z M141.008,174.572h-1.299v-9.561h6.496v9.561h-1.299v-4.102h-1.299	v4.102h-1.301v-4.102h-1.299V174.572L141.008,174.572z M139.709,174.572h1.299H139.709L139.709,174.572z M147.553,165.012h1.299	v9.561h-1.299V165.012L147.553,165.012z M150.15,165.012h1.301v9.561h-1.301V165.012L150.15,165.012z M152.75,165.012h1.299v4.758	h-1.299V165.012L152.75,165.012z M163.145,165.012h1.299v4.758h-1.299V165.012L163.145,165.012z M172.24,165.012h-1.299v4.758	h1.299V165.012L172.24,165.012z M157.947,165.012h1.299v4.758h-1.299V165.012L157.947,165.012z M154.049,169.812h1.301v4.76h-1.301	V169.812L154.049,169.812z M164.443,169.812h1.301v4.76h-1.301V169.812L164.443,169.812z M170.941,169.812h-1.301v4.76h1.301	V169.812L170.941,169.812z M155.35,165.012h1.299v9.561h-1.299V165.012L155.35,165.012z M165.744,165.012h1.299v9.561h-1.299	V165.012L165.744,165.012z M169.641,165.012h-1.299v9.561h1.299V165.012L169.641,165.012z M160.547,165.012h1.299v9.561h-1.299	V165.012L160.547,165.012z M173.539,165.012h1.299v9.561h-1.299V165.012L173.539,165.012z M176.139,165.012h1.299v9.561h-1.299	V165.012L176.139,165.012z M178.736,165.012h1.299v9.561h-1.299V165.012L178.736,165.012z M177.438,165.012h1.299v4.758h-1.299	V165.012L177.438,165.012z M69.744,169.992l-9.737,3.643v-7.285L69.744,169.992L69.744,169.992z M133.475,169.99l-9.738,3.643	v-7.285L133.475,169.99L133.475,169.99z M14.652,152.609h5.697c0.406,0,0.737,0.258,0.737,0.572v8.746	c0,0.314-0.332,0.572-0.737,0.572h-5.697c-0.406,0-0.737-0.258-0.737-0.572v-8.746C13.915,152.867,14.246,152.609,14.652,152.609	L14.652,152.609z M28.994,152.609h5.696c0.406,0,0.737,0.258,0.737,0.572v8.746c0,0.314-0.331,0.572-0.737,0.572h-5.696	c-0.406,0-0.737-0.258-0.737-0.572v-8.746C28.256,152.867,28.588,152.609,28.994,152.609L28.994,152.609z M43.335,152.609h5.697	c0.406,0,0.737,0.258,0.737,0.572v8.746c0,0.314-0.332,0.572-0.737,0.572h-5.697c-0.405,0-0.737-0.258-0.737-0.572v-8.746	C42.598,152.867,42.93,152.609,43.335,152.609L43.335,152.609z M57.676,152.609h5.697c0.406,0,0.737,0.258,0.737,0.572v8.746	c0,0.314-0.331,0.572-0.737,0.572h-5.697c-0.405,0-0.737-0.258-0.737-0.572v-8.746C56.939,152.867,57.271,152.609,57.676,152.609	L57.676,152.609z M72.017,152.609h5.697c0.406,0,0.737,0.258,0.737,0.572v8.746c0,0.314-0.332,0.572-0.737,0.572h-5.697	c-0.405,0-0.737-0.258-0.737-0.572v-8.746C71.28,152.867,71.612,152.609,72.017,152.609L72.017,152.609z M86.359,152.609h5.697	c0.406,0,0.737,0.258,0.737,0.572v8.746c0,0.314-0.331,0.572-0.737,0.572h-5.697c-0.406,0-0.737-0.258-0.737-0.572v-8.746	C85.622,152.867,85.953,152.609,86.359,152.609L86.359,152.609z M100.701,152.609h5.695c0.406,0,0.738,0.258,0.738,0.572v8.746	c0,0.314-0.332,0.572-0.738,0.572h-5.695c-0.406,0-0.738-0.258-0.738-0.572v-8.746C99.963,152.867,100.295,152.609,100.701,152.609	L100.701,152.609z M115.041,152.609h5.697c0.406,0,0.736,0.258,0.736,0.572v8.746c0,0.314-0.33,0.572-0.736,0.572h-5.697	c-0.404,0-0.736-0.258-0.736-0.572v-8.746C114.305,152.867,114.637,152.609,115.041,152.609L115.041,152.609z M129.383,152.609	h5.697c0.406,0,0.736,0.258,0.736,0.572v8.746c0,0.314-0.33,0.572-0.736,0.572h-5.697c-0.406,0-0.736-0.258-0.736-0.572v-8.746	C128.646,152.867,128.977,152.609,129.383,152.609L129.383,152.609z M143.725,152.609h5.697c0.404,0,0.736,0.258,0.736,0.572v8.746	c0,0.314-0.332,0.572-0.736,0.572h-5.697c-0.406,0-0.738-0.258-0.738-0.572v-8.746	C142.986,152.867,143.318,152.609,143.725,152.609L143.725,152.609z M158.066,152.609h5.695c0.406,0,0.738,0.258,0.738,0.572v8.746	c0,0.314-0.332,0.572-0.738,0.572h-5.695c-0.406,0-0.738-0.258-0.738-0.572v-8.746C157.328,152.867,157.66,152.609,158.066,152.609	L158.066,152.609z M172.406,152.609h5.697c0.406,0,0.736,0.258,0.736,0.572v8.746c0,0.314-0.33,0.572-0.736,0.572h-5.697	c-0.404,0-0.736-0.258-0.736-0.572v-8.746C171.67,152.867,172.002,152.609,172.406,152.609L172.406,152.609z M14.652,18.185h5.697	c0.406,0,0.737,0.257,0.737,0.573v8.745c0,0.315-0.332,0.573-0.737,0.573h-5.697c-0.406,0-0.737-0.258-0.737-0.573v-8.745	C13.915,18.442,14.246,18.185,14.652,18.185L14.652,18.185z M28.994,18.185h5.696c0.406,0,0.737,0.257,0.737,0.573v8.745	c0,0.315-0.331,0.573-0.737,0.573h-5.696c-0.406,0-0.737-0.258-0.737-0.573v-8.745C28.256,18.442,28.588,18.185,28.994,18.185	L28.994,18.185z M43.335,18.185h5.697c0.406,0,0.737,0.257,0.737,0.573v8.745c0,0.315-0.332,0.573-0.737,0.573h-5.697	c-0.405,0-0.737-0.258-0.737-0.573v-8.745C42.598,18.442,42.93,18.185,43.335,18.185L43.335,18.185z M57.676,18.185h5.697	c0.406,0,0.737,0.257,0.737,0.573v8.745c0,0.315-0.331,0.573-0.737,0.573h-5.697c-0.405,0-0.737-0.258-0.737-0.573v-8.745	C56.939,18.442,57.271,18.185,57.676,18.185L57.676,18.185z M72.017,18.185h5.697c0.406,0,0.737,0.257,0.737,0.573v8.745	c0,0.315-0.332,0.573-0.737,0.573h-5.697c-0.405,0-0.737-0.258-0.737-0.573v-8.745C71.28,18.442,71.612,18.185,72.017,18.185	L72.017,18.185z M86.359,18.185h5.697c0.406,0,0.737,0.257,0.737,0.573v8.745c0,0.315-0.331,0.573-0.737,0.573h-5.697	c-0.406,0-0.737-0.258-0.737-0.573v-8.745C85.622,18.442,85.953,18.185,86.359,18.185L86.359,18.185z M100.701,18.185h5.695	c0.406,0,0.738,0.257,0.738,0.573v8.745c0,0.315-0.332,0.573-0.738,0.573h-5.695c-0.406,0-0.738-0.258-0.738-0.573v-8.745	C99.963,18.442,100.295,18.185,100.701,18.185L100.701,18.185z M115.041,18.185h5.697c0.406,0,0.736,0.257,0.736,0.573v8.745	c0,0.315-0.33,0.573-0.736,0.573h-5.697c-0.404,0-0.736-0.258-0.736-0.573v-8.745C114.305,18.442,114.637,18.185,115.041,18.185	L115.041,18.185z M129.383,18.185h5.697c0.406,0,0.736,0.257,0.736,0.573v8.745c0,0.315-0.33,0.573-0.736,0.573h-5.697	c-0.406,0-0.736-0.258-0.736-0.573v-8.745C128.646,18.442,128.977,18.185,129.383,18.185L129.383,18.185z M143.725,18.185h5.697	c0.404,0,0.736,0.257,0.736,0.573v8.745c0,0.315-0.332,0.573-0.736,0.573h-5.697c-0.406,0-0.738-0.258-0.738-0.573v-8.745	C142.986,18.442,143.318,18.185,143.725,18.185L143.725,18.185z M158.066,18.185h5.695c0.406,0,0.738,0.257,0.738,0.573v8.745	c0,0.315-0.332,0.573-0.738,0.573h-5.695c-0.406,0-0.738-0.258-0.738-0.573v-8.745C157.328,18.442,157.66,18.185,158.066,18.185	L158.066,18.185z M172.406,18.185h5.697c0.406,0,0.736,0.257,0.736,0.573v8.745c0,0.315-0.33,0.573-0.736,0.573h-5.697	c-0.404,0-0.736-0.258-0.736-0.573v-8.745C171.67,18.442,172.002,18.185,172.406,18.185L172.406,18.185z M19.591,132.645	l0.156-0.787c0.921-3.686,2.125-7.959,3.641-12.793c1.501-4.846,3.385-10.457,5.624-16.82c-0.255,0.068-0.595,0.158-1.034,0.27	c-2.465,0.586-4.023,0.889-4.661,0.889c-0.496,0-0.893-0.18-1.176-0.518c-0.298-0.336-0.439-0.809-0.439-1.393	c0-1.406,0.383-3.059,1.147-4.959c0.751-1.9,1.516-3.148,2.252-3.744c1.006-0.787,3.357-1.552,7.055-2.271	c3.711-0.73,7.593-1.09,11.63-1.09c6.474,0,11.602,1.271,15.398,3.8c3.783,2.541,5.681,5.948,5.681,10.231	c0,3.43-1.247,6.555-3.74,9.387c-2.479,2.834-6.134,5.264-10.95,7.287c0.992,1.404,2.352,3.271,4.094,5.598	c1.729,2.328,3.627,4.812,5.695,7.477l0.424,0.461c0.213,0.281,0.383,0.574,0.496,0.855c0.114,0.281,0.17,0.551,0.17,0.787	c0,0.943-1.219,2.045-3.655,3.293c-0.425,0.203-0.723,0.361-0.921,0.463l-0.539,0.27c-0.822,0.438-1.714,0.787-2.649,1.033	c-0.949,0.258-1.756,0.383-2.45,0.383c-0.496,0-0.935-0.078-1.289-0.248c-0.354-0.168-0.694-0.438-0.992-0.809l-0.425-0.629	c-1.161-1.463-3.074-4.127-5.737-7.982c-2.678-3.857-4.647-6.656-5.921-8.389c-0.609,1.979-1.204,4.25-1.799,6.803	c-0.595,2.562-0.949,4.047-1.062,4.463l-0.085,0.461c-0.269,0.943-0.694,1.596-1.246,1.967c-0.552,0.359-1.402,0.541-2.564,0.541	c-0.397,0-0.907-0.035-1.544-0.102c-0.637-0.068-1.402-0.17-2.323-0.326l-0.581-0.068c-2.182-0.326-3.711-0.697-4.561-1.123	c-0.864-0.416-1.29-0.967-1.29-1.643c0-0.135,0-0.258,0.014-0.383C19.449,133.162,19.506,132.949,19.591,132.645L19.591,132.645z M40.131,112.025c3.103-0.281,5.638-1.135,7.636-2.551c1.997-1.418,2.989-3.037,2.989-4.857c0-1.293-0.638-2.316-1.913-3.059	c-1.275-0.754-3.045-1.123-5.312-1.123c-1.133,0-2.536,0.088-4.207,0.279c-1.672,0.18-3.641,0.473-5.879,0.879l6.021,1.539	c0.949,0.225,1.658,0.539,2.154,0.943c0.51,0.406,0.75,0.867,0.75,1.395c0,0.113-0.027,0.305-0.099,0.574	c-0.071,0.281-0.156,0.562-0.269,0.844L40.131,112.025L40.131,112.025z M67.104,130.971c0.411-1.652,1.076-4.082,2.012-7.297	c0.92-3.217,1.955-6.678,3.088-10.367c1.856-5.855,3.287-10.207,4.292-13.029c1.02-2.822,2.012-5.386,3.018-7.69l0.241-0.584	c0.438-1.012,0.92-1.698,1.431-2.046c0.51-0.348,1.289-0.528,2.309-0.528c0.779,0,1.474,0.011,2.111,0.034	c0.638,0.023,1.205,0.057,1.7,0.102l0.623,0.067c2.72,0.281,4.519,0.606,5.426,0.978c0.892,0.383,1.345,0.911,1.345,1.585	c0,0.113-0.014,0.248-0.057,0.416c-0.042,0.158-0.113,0.338-0.198,0.54l-0.156,0.596c-0.581,1.776-1.445,4.386-2.578,7.802	c-5.015,15.088-8.203,25.488-9.59,31.199l-0.156,0.787c-0.34,1.293-0.836,2.193-1.502,2.676c-0.666,0.484-1.657,0.721-2.989,0.721	c-0.439,0-0.978-0.035-1.615-0.102c-0.637-0.068-1.275-0.146-1.913-0.26l-0.325-0.066c-2.777-0.461-4.59-0.967-5.469-1.518	c-0.864-0.551-1.303-1.383-1.303-2.508c0-0.102,0.028-0.314,0.084-0.619c0.029-0.18,0.057-0.314,0.085-0.393L67.104,130.971	L67.104,130.971z M100.848,132.354l-0.086-0.395c-0.184-1.057-0.396-4.25-0.623-9.59c-0.211-5.34-0.326-11.186-0.326-17.561	c0-2.564,0.029-4.936,0.1-7.096c0.072-2.169,0.156-3.912,0.227-5.25l0.086-0.528c0.113-0.989,0.424-1.653,0.92-2.001	c0.496-0.337,1.346-0.506,2.564-0.506c0.553,0,1.516,0.079,2.861,0.236c0.143,0.011,0.24,0.022,0.297,0.022l0.496,0.068	c0.113,0.022,0.256,0.044,0.412,0.067c4.434,0.686,6.643,1.855,6.643,3.53v0.259v0.528c0,0.281-0.27,3.295-0.793,9.006	c-0.523,5.723-0.906,11.367-1.162,16.92c3.57-5.486,6.701-10.691,9.365-15.594c2.676-4.914,4.66-9.028,5.963-12.345l0.07-0.394	c0.283-0.764,0.639-1.327,1.092-1.664c0.439-0.337,1.02-0.505,1.742-0.505c0.496,0,1.176,0.056,2.055,0.157	c0.863,0.112,1.756,0.258,2.678,0.427l0.41,0.169c2.408,0.506,4.008,0.956,4.787,1.349c0.795,0.393,1.191,0.888,1.191,1.484	c0,0.113-0.029,0.281-0.1,0.495c-0.07,0.225-0.199,0.562-0.396,1.022l-0.213,0.495c-1.076,2.485-2.465,5.284-4.164,8.411	c-1.701,3.135-3.6,6.352-5.668,9.668c-2.635,4.16-5.311,8.105-8.031,11.861c-2.734,3.756-5.242,6.971-7.537,9.658l-0.41,0.461	c-0.666,0.719-1.203,1.191-1.629,1.393c-0.412,0.215-0.893,0.316-1.445,0.316c-0.58,0-1.262-0.045-2.039-0.146	c-0.766-0.102-1.531-0.236-2.281-0.416l-0.779-0.191c-0.256-0.068-0.609-0.158-1.09-0.27	C102.773,135.141,101.047,133.949,100.848,132.354L100.848,132.354z M155.754,115.117h6.475c0.199-2.35,0.34-4.43,0.439-6.238	c0.1-1.811,0.143-3.193,0.143-4.139v-2.17v-1.945c-1.389,2.283-2.65,4.621-3.826,7.006	C157.822,110.014,156.746,112.51,155.754,115.117L155.754,115.117z M136.744,125.461l-1.035-0.102	c-0.381-0.021-0.721-0.18-1.02-0.473c-0.283-0.291-0.424-0.65-0.424-1.066c0-0.158,0.057-0.461,0.184-0.912	c0.113-0.449,0.367-1.314,0.766-2.584l0.084-0.463l0.043-0.135c1.076-3.553,2.705-5.328,4.887-5.328h2.535	c2.295-4.498,4.562-8.656,6.801-12.469c2.252-3.811,4.193-6.881,5.865-9.208l0.537-0.664c0.822-1.112,1.559-1.843,2.211-2.192	c0.65-0.337,1.486-0.506,2.521-0.506c0.41,0,0.934,0.023,1.543,0.068c0.623,0.045,1.305,0.112,2.027,0.191l0.777,0.067	c3.131,0.36,5.158,0.798,6.107,1.338c0.934,0.54,1.5,1.462,1.699,2.789l0.17,0.821c0.496,3.115,0.893,7.24,1.176,12.378	c0.297,5.148,0.439,10.658,0.439,16.539c0,3.035-0.086,5.744-0.256,8.139c0,0.18,0,0.27,0,0.293l-0.07,0.764	c-0.17,1.496-0.68,2.52-1.516,3.059c-0.85,0.551-2.422,0.889-4.717,0.99l-0.666,0.066h-1.119c-1.771,0-3.088-0.248-3.967-0.742	c-0.865-0.494-1.332-1.248-1.389-2.26v-5.789v-4.645v-4.25l-2.691,4.869c-0.283,0.527-0.652,0.91-1.105,1.135	c-0.453,0.236-1.105,0.35-1.969,0.35h-4.066c-1.246,2.461-2.521,4.99-3.824,7.611c-0.297,0.572-0.48,0.91-0.537,1.023l-0.326,0.719	c-0.396,0.709-0.85,1.225-1.375,1.551c-0.523,0.326-1.176,0.496-1.955,0.496c-0.58,0-1.232-0.057-1.939-0.17	c-0.723-0.102-1.432-0.258-2.125-0.461l-0.652-0.123c-1.969-0.529-3.287-1.012-3.953-1.439c-0.664-0.428-0.99-0.955-0.99-1.596	c0-0.158,0-0.305,0.014-0.449c0.014-0.137,0.07-0.35,0.156-0.643l0.156-0.461c0.17-0.504,0.523-1.314,1.061-2.416	C135.355,128.059,136.008,126.822,136.744,125.461L136.744,125.461z M20.513,30.587h151.729c4.287,0,7.793,2.689,7.793,5.976	v107.561c0,3.285-3.506,5.975-7.793,5.975H20.513c-4.286,0-7.792-2.689-7.792-5.975V36.562	C12.72,33.276,16.227,30.587,20.513,30.587L20.513,30.587z M69.832,53.421h-7.719l-3.148,10.834c-1,3.43-1.983,5.837-2.941,7.22	c-0.959,1.384-2.232,2.428-3.801,3.122c-1.57,0.702-3.223,1.05-4.95,1.05c-0.388,0-0.76-0.033-1.116-0.099l-1.694-4.361h0.603	c1.297-0.027,2.306-0.322,3.041-0.886c0.736-0.564,1.611-2.624,2.628-6.185l3.074-10.697h-4.214l1.091-4.459h4.503	c0.678-2.027,1.595-3.542,2.76-4.545c1.165-1.003,2.694-1.883,4.586-2.637c1.901-0.748,3.893-1.122,5.991-1.122	c1.033,0,2.107,0.098,3.223,0.289l-1.256,4.46c-0.959-0.19-1.727-0.289-2.331-0.289c-1.305,0-2.338,0.079-3.099,0.229l-0.29,0.388	c-0.19,0.269-0.413,0.702-0.653,1.305l-0.413,1.036c-0.032,0.105-0.132,0.4-0.289,0.886h7.553L69.832,53.421L69.832,53.421z M97.117,57.435c0,2.164-0.645,4.079-1.926,5.745c-1.28,1.665-3.082,2.911-5.412,3.738c-2.323,0.826-4.694,1.239-7.115,1.239	c-3.579,0-6.578-0.872-8.991-2.617c-2.413-1.738-3.62-3.981-3.62-6.722c0-3.063,1.38-5.535,4.149-7.412	c2.768-1.875,6.23-2.813,10.379-2.813c3.933,0,7.007,0.866,9.223,2.597C96.01,52.916,97.117,55.001,97.117,57.435L97.117,57.435z M89.25,53.125c-0.917-0.348-2.017-0.518-3.289-0.518c-2.313,0-4.239,0.932-5.792,2.788c-1.545,1.856-2.322,4.04-2.322,6.539	c0,0.373,0.05,0.879,0.148,1.515c0.224,0.105,0.397,0.177,0.529,0.216l0.851,0.21c0.728,0.177,1.322,0.269,1.785,0.269	c2.182,0,4.091-0.971,5.718-2.906c1.628-1.935,2.446-4.329,2.446-7.188v-0.209C89.325,53.749,89.3,53.513,89.25,53.125	L89.25,53.125z M116.703,67.272c-2.895,0.59-5.414,0.885-7.578,0.885c-2.273,0-4.215-0.649-5.811-1.948	c-1.594-1.305-2.396-2.552-2.396-3.739c0-0.78,0.225-1.954,0.678-3.515l1.596-5.536h-4.545l1.305-4.459h4.596l1.701-5.896h8.396	l-1.793,5.896h9.008l-1.307,4.459h-9.082L109.9,58.7c-0.709,2.387-1.066,3.778-1.066,4.171c0,0.551,0.596,0.826,1.795,0.826	c2.238,0,4.709-0.295,7.404-0.885L116.703,67.272L116.703,67.272z M148.303,57.435c0,2.164-0.645,4.079-1.926,5.745	c-1.281,1.665-3.084,2.911-5.412,3.738c-2.324,0.826-4.695,1.239-7.115,1.239c-3.578,0-6.578-0.872-8.992-2.617	c-2.412-1.738-3.619-3.981-3.619-6.722c0-3.063,1.381-5.535,4.148-7.412c2.768-1.875,6.23-2.813,10.379-2.813	c3.934,0,7.008,0.866,9.223,2.597C147.193,52.916,148.303,55.001,148.303,57.435L148.303,57.435z M140.436,53.125	c-0.918-0.348-2.018-0.518-3.289-0.518c-2.314,0-4.24,0.932-5.793,2.788c-1.545,1.856-2.322,4.04-2.322,6.539	c0,0.373,0.051,0.879,0.148,1.515c0.223,0.105,0.396,0.177,0.529,0.216l0.852,0.21c0.727,0.177,1.322,0.269,1.783,0.269	c2.184,0,4.092-0.971,5.721-2.906c1.627-1.935,2.445-4.329,2.445-7.188v-0.209C140.51,53.749,140.484,53.513,140.436,53.125	L140.436,53.125z M16.066,82.441l160.623-0.038v59.567c0,3.154-3.367,5.736-7.48,5.736H23.547c-4.113,0-7.481-2.58-7.481-5.736	V82.441L16.066,82.441z"/></g></svg>