<?xml version="1.0" encoding="iso-8859-1"?><!-- Generator: Adobe Illustrator 16.0.0, SVG Export Plug-In . SVG Version: 6.00 Build 0) --><!DOCTYPE svg PUBLIC "-//W3C//DTD SVG 1.1//EN" "http://www.w3.org/Graphics/SVG/1.1/DTD/svg11.dtd"><svg version="1.1" id="Layer_1" xmlns="http://www.w3.org/2000/svg" xmlns:xlink="http://www.w3.org/1999/xlink" x="0px" y="0px" width="192.756px" height="192.756px" viewBox="0 0 192.756 192.756" style="enable-background:new 0 0 192.756 192.756;" xml:space="preserve"><g><polygon style="fill-rule:evenodd;clip-rule:evenodd;fill:#FFFFFF;" points="0,0 192.756,0 192.756,192.756 0,192.756 0,0	"/><path d="M173.371,69.327c-0.207-4.068-0.896-8.052-2.045-11.952c-1.166-3.967-2.811-7.897-4.9-11.789l0.004-0.002	c-2-3.562-4.701-6.849-8.059-9.835c-3.453-3.071-7.576-5.799-12.322-8.158c-4.887-2.372-10.512-4.154-16.957-5.347	c-6.535-1.209-13.969-1.813-22.385-1.813v-8.362c8.83,0,16.762,0.659,23.887,1.978c7.215,1.335,13.545,3.346,19.08,6.032	l0.033,0.017c5.461,2.711,10.219,5.859,14.217,9.416c4.043,3.595,7.336,7.631,9.818,12.074l0.033,0.049	c2.355,4.387,4.219,8.85,5.555,13.39c1.355,4.606,2.166,9.244,2.402,13.913L173.371,69.327L173.371,69.327z"/><polygon points="106.707,20.43 53.492,20.43 21.209,172.326 72.645,172.326 72.645,180.689 16.053,180.689 10.897,180.689	11.97,175.643 46.03,15.383 46.735,12.068 50.113,12.068 106.707,12.068 106.707,20.43	"/><path d="M72.645,172.326c9.742,0,18.732-0.938,26.994-2.787c8.199-1.836,15.768-4.59,22.727-8.234	c6.975-3.652,13.154-7.836,18.598-12.551c5.414-4.689,10.139-9.936,14.225-15.736h-0.002c3.879-5.756,7.148-11.77,9.793-17.986	c2.662-6.256,4.709-12.742,6.125-19.404c0.943-4.438,1.613-8.934,2.004-13.461c0.383-4.424,0.473-8.714,0.264-12.84l8.361-0.392	c0.232,4.594,0.143,9.253-0.262,13.95c-0.4,4.629-1.137,9.465-2.203,14.474c-1.523,7.17-3.732,14.17-6.611,20.939	c-2.869,6.736-6.389,13.221-10.547,19.389l-0.047,0.066c-4.473,6.357-9.666,12.125-15.645,17.305	c-5.971,5.172-12.684,9.727-20.197,13.66c-7.529,3.943-15.783,6.938-24.785,8.953c-8.939,2.002-18.529,3.018-28.791,3.018V172.326	L72.645,172.326z"/><path d="M136.342,76.021h-31.277l-1.691,7.959h26.234h5.158l-1.074,5.046l-5.287,24.863l-0.703,3.316h-3.379H96.306l-8.053,37.871	l-0.705,3.316h-3.378H53.866H48.71l1.073-5.047L72.816,45.022l0.705-3.315h3.378h64.962l5.156,0l-1.074,5.047l-5.518,25.952	l-0.705,3.315H136.342L136.342,76.021z M101.686,67.659h31.279l3.74-17.59H80.277l-21.255,99.96h21.77l8.054-37.871l0.705-3.316	h3.378h28.015l3.51-16.5H98.217h-5.156l1.073-5.047l3.47-16.321l0.705-3.315H101.686L101.686,67.659z"/><path d="M43.325,47.706c2.979-0.315,5.935-0.495,8.856-0.387c2.933,0.108,5.839,0.507,8.71,1.352	c2.928,0.867,5.473,2.135,7.672,3.725c2.346,1.696,4.295,3.755,5.892,6.081l-0.543,0.37c-1.556-2.266-3.452-4.271-5.732-5.919	c-2.139-1.546-4.619-2.781-7.474-3.627c-2.808-0.825-5.661-1.216-8.548-1.323c-2.898-0.107-5.822,0.071-8.766,0.381L43.325,47.706	L43.325,47.706z M61.274,154.207c0.02,1.662,0.007,3.318-0.109,4.951c-0.118,1.639-0.342,3.268-0.744,4.879	c-0.365,2.164-1.619,3.957-3.316,5.566c-1.666,1.578-3.756,2.973-5.847,4.367c-0.208,0.219-0.422,0.586-0.615,1.004	c-0.246,0.531-0.451,1.133-0.566,1.609l-0.638-0.154c0.125-0.518,0.346-1.164,0.607-1.73c0.229-0.496,0.493-0.939,0.765-1.211	l0.019-0.02l0.032-0.021c2.078-1.385,4.156-2.77,5.791-4.32c1.607-1.521,2.791-3.207,3.125-5.215l0.004-0.025	c0.391-1.564,0.61-3.16,0.725-4.775c0.116-1.625,0.129-3.26,0.109-4.896L61.274,154.207L61.274,154.207z"/><path style="fill-rule:evenodd;clip-rule:evenodd;fill:#33348E;" d="M64.281,41.319c0,7.276-4.18,14.635-1.391,20.208	c1.447,3.378,5.898,3.416,10.119,2.657l3.891-18.296h41.66c0.863-1.509,1.471-3.311,1.471-5.267c1.396,0,1.396-2.09,2.092-2.09	c5.576,0.698,10.453-2.091,16.029-0.697c2.09,0,4.18,2.091,6.27,3.485c2.092,2.092,4.184-1.394,6.273-2.788	c4.613-2.881,11.613,1.87,16.654,0.828c-4.576-6.169-11.146-11.386-19.486-15.525c-10.422-5.06-23.91-7.585-41.154-7.585H78.035	c-4.638,5.582-6.281,13.577-11.662,19.496c-0.695,0.695,0.697,2.786,0,3.484C65.677,39.926,64.281,40.622,64.281,41.319	L64.281,41.319z"/><path style="fill-rule:evenodd;clip-rule:evenodd;fill:#CC2229;" d="M40.642,60.816c5.866,5.451,10.013,12.059,17.37,16.74	c3.485,2.089,9.059,2.089,11.151,0c0.497-0.498,0.944-1.032,1.343-1.598l2.652-12.475c-0.193-2.083-0.618-4.166-1.208-6.137	c-0.697-3.483-0.697-6.968-0.697-10.453c0-2.092,2.091-3.483,3.482-3.483c8.363-2.79,14.635-7.666,21.605-11.151	c2.088-1.394,6.27,0,8.362-1.394c1.391-2.089,2.787-5.573,0.695-6.969c-3.484-2.09-6.271-3.483-8.361-6.27	c-0.163-0.486-0.343-0.944-0.542-1.377h-46.38L40.642,60.816L40.642,60.816z"/><path style="fill-rule:evenodd;clip-rule:evenodd;fill:#FFF22D;" d="M81.418,154.211c0.335,0.225,0.663,0.455,0.983,0.695	c0.696,0,1.394-0.695,1.768-0.695H81.418L81.418,154.211z M84.169,154.211c4.502,4.877,10.078,8.361,17.045,6.27	c9.32-0.666,18.639-0.061,27.957,1.818c12.174-7.182,21.895-16.164,29.477-26.947c8.059-11.957,13.605-25.064,16.537-38.857	c2.004-9.428,2.809-18.625,2.365-27.364c-0.441-8.736-3.004-17.242-7.451-25.521c-4.498-8.049-12.047-14.715-22.238-19.774	c-0.773-0.376-1.564-0.737-2.373-1.085c-4.984-0.638-10.262-0.145-15.006,1.148c-6.967,2.091-11.148,8.363-16.027,13.242	c-2.471,2.471-4.404,5.478-5.439,8.75h32.846l-5.52,25.952h-16.768c0.443,1.208,0.363,2.417-0.24,3.625	c-3.795,4.465-7.59,8.644-11.408,12.696h21.682l-5.285,24.863H92.928L84.169,154.211L84.169,154.211z"/><path style="fill-rule:evenodd;clip-rule:evenodd;fill:#CC2229;" d="M139.52,56.897c4.666-0.771,9.299-0.584,13.961,0.449	c0.695,0,2.785,2.79,3.484,2.79c5.574,1.391,16.725,2.089,13.936,7.663c-2.092,4.181-10.453,2.789-13.936,6.272	c-5.576,5.574,0.695,15.332-3.484,22.3c-2.787,4.877-9.758,2.787-15.33,2.787c-2.789-0.695-3.484-3.483-5.576-4.181	c-1.434-0.615-2.867-0.748-4.285-0.611l1.318-6.205H98.217l3.469-16.321h34.656L139.52,56.897L139.52,56.897z"/><path style="fill-rule:evenodd;clip-rule:evenodd;fill:#33A457;" d="M29.699,176.508c0.812-3.404,2.873-6.398,6.013-8.361	c6.303-4.584,11.666-11.055,18.412-15.146l-0.257,1.211h30.303l1.428-6.713c0.796,0.125,1.59,0.271,2.379,0.439	c0.696,0,4.878-1.393,2.092,4.182c8.36,0.695,15.329,4.879,23.692,6.969c3.828,1.094,6.801,3.906,8.912,6.75	c-14.143,7.047-30.764,10.67-50.027,10.67H29.699L29.699,176.508z"/><path style="fill-rule:evenodd;clip-rule:evenodd;fill:#CC2229;" d="M115.674,168.963c-0.391-0.736-0.797-1.473-1.219-2.211	c0-0.697-3.482,0.699-4.877,0c-1.395-2.088-3.486-1.393-4.877-2.088c-0.699-1.396-2.092-2.789-3.486-4.184	c-2.787-3.482-9.059-4.879-11.147-8.361c-3.485-7.666,9.754-6.271,15.329-4.879c2.092,0.697,4.182,3.484,6.969,4.879	c2.789,2.092,6.969,0.695,10.451,0.695c-0.695-2.09,1.396-5.574-0.695-5.574c-6.271-1.393-11.846-2.787-16.029-6.967	c-1.391-1.396-1.391-4.879,0-6.273c1.396-1.393,4.881-1.393,5.576-3.484c0.697-1.391,0.697-3.482,2.092-3.482	c4.877-1.395,9.756-1.395,13.938,1.391c5.572,3.486,9.754,6.971,13.936,11.154c2.09,1.391,5.574,2.785,6.27,0.695	c2.092-2.092,2.092-6.273,0-8.363c-2.783-4.182-9.057-5.574-12.541-9.059c-3.482-2.789-3.482-7.664-6.969-11.15	c-0.695-1.393-0.695-4.879,0-5.574c4.182-2.789,9.758-2.789,13.24-0.697c6.27,2.789,7.666,11.15,13.24,15.332	c-0.465,4.65,3.107,7.439,6.57,10.23c-0.895,1.469-1.826,2.924-2.795,4.359c-8.568,12.186-19.867,22.074-34.355,29.66	C121.518,166.465,118.645,167.783,115.674,168.963L115.674,168.963z"/></g></svg>