<?xml version="1.0" encoding="iso-8859-1"?><!-- Generator: Adobe Illustrator 16.0.0, SVG Export Plug-In . SVG Version: 6.00 Build 0) --><!DOCTYPE svg PUBLIC "-//W3C//DTD SVG 1.1//EN" "http://www.w3.org/Graphics/SVG/1.1/DTD/svg11.dtd"><svg version="1.1" id="Capa_1" xmlns="http://www.w3.org/2000/svg" xmlns:xlink="http://www.w3.org/1999/xlink" x="0px" y="0px" width="331.728px" height="376.92px" viewBox="0 -0.001 331.728 376.92" style="enable-background:new 0 -0.001 331.728 376.92;" xml:space="preserve"><g><g><linearGradient id="SVGID_1_" gradientUnits="userSpaceOnUse" x1="-809.8289" y1="1384.8203" x2="-882.7903" y2="1352.3358" gradientTransform="matrix(1 0 0 -1 1045.9302 1497.0938)"><stop offset="0" style="stop-color:#FFCC00"/><stop offset="1" style="stop-color:#CC9900"/></linearGradient><path style="fill:url(#SVGID_1_);" d="M231.299,235.544c-0.438,0-0.873-0.009-1.317-0.036	c-13.681-0.723-24.193-12.458-23.478-26.219c4.769-91.614-67.604-132.611-68.339-133.013	c-12.012-6.626-16.413-21.792-9.825-33.875c6.585-12.088,21.663-16.514,33.679-9.888c4.104,2.262,100.408,56.819,94.032,179.383	C255.358,225.214,244.401,235.544,231.299,235.544z"/></g><g><linearGradient id="SVGID_2_" gradientUnits="userSpaceOnUse" x1="-970.1125" y1="1427.8398" x2="-887.1723" y2="1314.4611" gradientTransform="matrix(1 0 0 -1 1045.9302 1497.0938)"><stop offset="0" style="stop-color:#6699CC"/><stop offset="1" style="stop-color:#3366CC"/></linearGradient><path style="fill:url(#SVGID_2_);" d="M146.713,206.176c-0.057,0-0.108,0-0.162,0c-13.248,0-23.917-9.777-23.83-23.029	c0.353-53.084-54.617-83.103-55.173-83.402c-11.633-6.341-15.923-20.629-9.583-32.261c6.337-11.633,20.9-15.79,32.542-9.445	c3.299,1.793,80.729,43.892,80.19,125.359C170.608,196.587,159.885,206.176,146.713,206.176z"/></g><g><linearGradient id="SVGID_3_" gradientUnits="userSpaceOnUse" x1="-804.6746" y1="1497.0947" x2="-804.6746" y2="1261.541" gradientTransform="matrix(1 0 0 -1 1045.9302 1497.0938)"><stop offset="0" style="stop-color:#57B149"/><stop offset="1" style="stop-color:#39823E"/></linearGradient><path style="fill:url(#SVGID_3_);" d="M230.936,235.553c-3.515,0-7.081-0.74-10.481-2.307	c-12.611-5.796-18.134-20.719-12.335-33.327c40.084-87.188,1.891-162.426,1.499-163.176c-6.412-12.306-1.631-27.486,10.68-33.894	c12.31-6.416,27.484-1.633,33.896,10.682c2.058,3.954,49.846,98.075-0.41,207.377	C249.549,230.119,240.448,235.553,230.936,235.553z"/></g><g><linearGradient id="SVGID_4_" gradientUnits="userSpaceOnUse" x1="-890.2659" y1="1467.9805" x2="-890.2659" y2="1288.6777" gradientTransform="matrix(1 0 0 -1 1045.9302 1497.0938)"><stop offset="0" style="stop-color:#DE1F26"/><stop offset="1" style="stop-color:#CC0000"/></linearGradient><path style="fill:url(#SVGID_4_);" d="M146.688,208.416c-4.766,0-9.575-1.41-13.771-4.359	c-10.841-7.617-13.453-22.578-5.839-33.417c30.121-42.871,0.402-106.334,0.094-106.963c-5.836-11.892-0.928-26.264,10.965-32.1	c11.894-5.845,26.27-0.928,32.104,10.959c1.771,3.614,42.843,89.142-3.903,155.68	C161.667,204.864,154.235,208.416,146.688,208.416z"/></g></g><g><g><path style="fill:#3F63AC;" d="M195.801,290.876c2.062,1.705,6.365,5.294,6.365,12.116c0,6.637-3.768,9.78-7.537,12.739	c-1.166,1.164-2.513,2.424-2.513,4.398c0,1.971,1.347,3.049,2.332,3.858l3.234,2.506c3.943,3.319,7.533,6.374,7.533,12.567	c0,8.435-8.168,16.957-23.597,16.957c-13.015,0-19.29-6.19-19.29-12.832c0-3.233,1.61-7.803,6.909-10.947	c5.559-3.409,13.099-3.855,17.135-4.129c-1.259-1.616-2.691-3.319-2.691-6.098c0-1.524,0.451-2.426,0.898-3.501	c-0.991,0.091-1.973,0.179-2.874,0.179c-9.511,0-14.893-7.09-14.893-14.084c0-4.127,1.887-8.708,5.74-12.026	c5.116-4.216,11.217-4.934,16.064-4.934H207.1l-5.741,3.229L195.801,290.876L195.801,290.876z M189.423,330.717	c-0.714-0.089-1.162-0.089-2.057-0.089c-0.811,0-5.659,0.18-9.427,1.438c-1.975,0.717-7.714,2.869-7.714,9.239	c0,6.372,6.191,10.95,15.794,10.95c8.608,0,13.188-4.136,13.188-9.688C199.209,337.979,196.246,335.566,189.423,330.717z M192.027,313.67c2.062-2.067,2.241-4.937,2.241-6.552c0-6.46-3.856-16.509-11.3-16.509c-2.34,0-4.849,1.164-6.288,2.963	c-1.522,1.886-1.972,4.303-1.972,6.64c0,6.009,3.502,15.969,11.22,15.969C188.169,316.181,190.587,315.104,192.027,313.67z"/><path style="fill:#3F63AC;" d="M139.31,329.282c-14.242,0-21.856-11.105-21.856-21.144c0-11.736,9.584-21.768,23.204-21.768	c13.165,0,21.407,10.301,21.407,21.144C162.064,318.081,153.917,329.282,139.31,329.282z M150.506,322.027	c2.154-2.869,2.692-6.45,2.692-9.947c0-7.881-3.764-22.93-14.871-22.93c-2.958,0-5.914,1.166-8.062,3.048	c-3.494,3.135-4.125,7.076-4.125,10.929c0,8.866,4.391,23.468,15.23,23.468C144.865,326.594,148.449,324.894,150.506,322.027z"/><path style="fill:#3F63AC;" d="M90.755,329.282c-14.242,0-21.859-11.105-21.859-21.144c0-11.736,9.588-21.768,23.205-21.768	c13.167,0,21.408,10.301,21.408,21.144C113.509,318.081,105.359,329.282,90.755,329.282z M101.952,322.027	c2.153-2.869,2.688-6.45,2.688-9.947c0-7.881-3.763-22.93-14.871-22.93c-2.955,0-5.913,1.166-8.062,3.048	c-3.494,3.135-4.12,7.076-4.12,10.929c0,8.866,4.388,23.468,15.23,23.468C96.313,326.594,99.896,324.894,101.952,322.027z"/><path style="fill:#3F63AC;" d="M62.053,327.877l-12.881,2.973c-5.226,0.811-9.907,1.53-14.858,1.53	C9.455,332.38,0,314.096,0,299.772c0-17.469,13.418-33.678,36.387-33.678c4.863,0,9.544,0.718,13.775,1.89	c6.756,1.893,9.908,4.233,11.892,5.585l-7.479,7.114l-3.149,0.721l2.252-3.604c-3.062-2.972-8.65-8.464-19.274-8.464	c-14.229,0-24.947,10.811-24.947,26.571c0,16.929,12.248,32.867,31.88,32.867c5.77,0,8.737-1.165,11.439-2.251v-14.497	l-13.597,0.719l7.203-3.873h19.095l-2.34,2.249c-0.637,0.54-0.721,0.724-0.902,1.438c-0.094,0.813-0.179,3.429-0.179,4.326v10.991	H62.053z"/><path style="fill:#3F63AC;" d="M224.265,325.287c-2.975-0.273-3.602-0.812-3.602-4.323v-0.995v-49.982	c0.021-0.194,0.033-0.394,0.053-0.58c0.359-3.152,1.264-3.691,4.056-5.315h-12.88l-6.758,3.243h6.886v0.042l-0.005-0.032v52.626	v2.977c0,1.8-0.357,2.068-2.431,4.77h15.941l3.334-1.979C227.327,325.553,225.798,325.463,224.265,325.287z"/><path style="fill:#3F63AC;" d="M260.913,326.113c-0.98,0.537-1.966,1.165-2.944,1.609c-2.958,1.341-5.998,1.699-8.685,1.699	c-2.857,0-7.333-0.182-11.896-3.487c-6.348-4.474-9.122-12.164-9.122-18.876c0-13.86,11.271-20.658,20.48-20.658	c3.223,0,6.535,0.806,9.221,2.506c4.466,2.945,5.628,6.792,6.255,8.85l-21.018,8.501l-6.892,0.536	c2.233,11.359,9.93,17.978,18.426,17.978c4.564,0,7.874-1.607,10.913-3.129L260.913,326.113z M252.507,299.456	c1.699-0.625,2.592-1.161,2.592-2.412c0-3.576-4.024-7.694-8.854-7.694c-3.582,0-10.288,2.776-10.288,12.436	c0,1.521,0.182,3.131,0.271,4.742L252.507,299.456z"/></g><g><path style="fill:#3F63AC;" d="M217.061,347.646l3.126,14.555c0.625,3.195,1.25,6.152,1.685,9.111h0.145	c0.528-2.899,1.298-5.976,2.067-9.053l3.8-14.613h3.562l3.607,14.316c0.864,3.434,1.537,6.449,2.066,9.35h0.145	c0.386-2.899,1.011-5.916,1.78-9.289l3.317-14.377h4.187l-7.504,28.636h-3.849l-3.56-13.666c-0.818-3.195-1.491-6.035-2.067-9.407	h-0.099c-0.575,3.432-1.299,6.39-2.114,9.466l-3.753,13.607h-3.849l-7.021-28.636H217.061z"/><path style="fill:#3F63AC;" d="M270.229,369.403c0,2.484,0.104,4.91,0.371,6.865h-4.206l-0.371-3.611h-0.159	c-1.437,2.249-4.207,4.262-7.879,4.262c-5.216,0-7.877-4.084-7.877-8.226c0-6.925,5.535-10.714,15.489-10.654v-0.591	c0-2.309-0.586-6.627-5.855-6.569c-2.448,0-4.949,0.771-6.759,2.131l-1.065-3.489c2.13-1.48,5.271-2.486,8.519-2.486	c7.877,0,9.794,5.977,9.794,11.658L270.229,369.403L270.229,369.403z M265.702,361.649c-5.107-0.118-10.91,0.888-10.91,6.45	c0,3.435,2.022,4.972,4.364,4.972c3.406,0,5.59-2.368,6.335-4.792c0.157-0.593,0.211-1.184,0.211-1.657V361.649z"/><path style="fill:#3F63AC;" d="M277.094,335.125h4.232v41.156h-4.232V335.125z"/><path style="fill:#3F63AC;" d="M286.782,335.125h4.233v41.156h-4.233V335.125z"/><path style="fill:#3F63AC;" d="M299.062,362.894c0.1,7.041,3.916,9.94,8.442,9.94c3.205,0,5.188-0.651,6.815-1.479l0.815,3.729	c-1.579,0.827-4.326,1.833-8.24,1.833c-7.579,0-12.107-5.857-12.107-14.498c0-8.64,4.373-15.388,11.548-15.388	c8.088,0,10.174,8.166,10.174,13.434c0,1.064-0.054,1.834-0.153,2.429H299.062L299.062,362.894z M312.183,359.166	c0.052-3.256-1.167-8.405-6.203-8.405c-4.577,0-6.511,4.795-6.866,8.405H312.183z"/><path style="fill:#3F63AC;" d="M325.898,337.413v10.191h5.829v3.969h-5.829v15.456c0,3.552,0.784,5.565,3.054,5.565	c1.11,0,1.759-0.117,2.36-0.354l0.186,3.968c-0.787,0.355-2.037,0.711-3.609,0.711c-1.899,0-3.427-0.829-4.398-2.191	c-1.111-1.6-1.573-4.146-1.573-7.521v-15.633h-3.473v-3.969h3.473v-8.653L325.898,337.413z"/></g></g></svg>