<?xml version="1.0" encoding="iso-8859-1"?><!-- Generator: Adobe Illustrator 16.0.0, SVG Export Plug-In . SVG Version: 6.00 Build 0) --><!DOCTYPE svg PUBLIC "-//W3C//DTD SVG 1.1//EN" "http://www.w3.org/Graphics/SVG/1.1/DTD/svg11.dtd"><svg version="1.1" id="Layer_1" xmlns="http://www.w3.org/2000/svg" xmlns:xlink="http://www.w3.org/1999/xlink" x="0px" y="0px" width="43.938px" height="11.636px" viewBox="0 0 43.938 11.636" style="enable-background:new 0 0 43.938 11.636;" xml:space="preserve"><g><path style="fill:#3B4095;" d="M34.701,5.538c-0.86,0-1.465,0.573-1.832,1.714c0.521-0.226,1.039-0.451,1.556-0.669	c0.622-0.283,1.117-0.542,1.485-0.783C35.602,5.625,35.198,5.538,34.701,5.538L34.701,5.538z M34.887,11.403	c-1.101,0-2.001-0.262-2.701-0.788c-0.773-0.58-1.16-1.397-1.16-2.451c0-1.167,0.307-2.152,0.92-2.959	c0.681-0.894,1.598-1.339,2.756-1.339c0.801,0,1.466,0.13,1.996,0.387c0.695,0.342,1.042,0.87,1.042,1.589	c0,0.507-0.282,0.955-0.849,1.346c-0.259,0.182-0.777,0.443-1.556,0.788l-2.327,1.03c0.443,0.481,1.068,0.719,1.879,0.719	c0.615,0,1.139-0.127,1.568-0.38c0.382-0.226,0.688-0.339,0.917-0.339c0.321,0,0.535,0.106,0.641,0.316c0,0,0-3.353,0.015-3.848	c0.009-0.283,0.014-0.497,0.014-0.639c0-0.516,0.315-0.905,0.889-0.905c0.512,0,0.816,0.262,0.912,0.788	c0.816-0.608,1.719-0.913,2.714-0.913c0.922,0,1.382,0.613,1.382,1.837c0,0.235-0.003,0.389-0.008,0.464	c-0.042,0.705-0.36,1.057-0.959,1.057c-0.58,0-0.87-0.3-0.87-0.898l-0.035-0.698c-1.035,0.165-1.777,0.698-2.224,1.596l0.008,3.472	c0,0.529-0.402,0.913-0.952,0.913c-0.549,0-0.885-0.371-0.885-0.913v-0.542c-0.147,0.352-0.506,0.649-1.075,0.896	C36.292,11.264,35.608,11.403,34.887,11.403L34.887,11.403z M28.953,10.573c-0.047,0.464-0.41,0.787-0.898,0.787	c-0.464,0-0.794-0.24-0.987-0.719c-0.498-1.242-1.259-3.098-2.287-5.566c-0.176-0.417-0.09-0.767,0.21-1.026	c0.2-0.172,0.429-0.259,0.688-0.259c0.396,0,0.679,0.181,0.849,0.544c0.262,0.559,0.773,1.862,1.534,3.911	c0.243-0.521,0.58-1.313,1.01-2.376c0.129-0.354,0.33-0.849,0.601-1.485c0.188-0.368,0.474-0.552,0.855-0.552	c0.26,0,0.488,0.085,0.688,0.255c0.201,0.172,0.3,0.382,0.3,0.636c0,0.165-0.372,1.078-1.12,2.735	C29.79,8.812,29.307,9.85,28.953,10.573L28.953,10.573z M24.16,7.846c0.007,0.684,0.04,1.843,0.047,2.527	c0,0.541-0.404,0.919-0.952,0.919c-0.556,0-0.955-0.38-0.955-0.919c-0.007-0.684-0.04-1.843-0.047-2.527	c0-0.41,0.023-0.922,0.068-1.54s0.068-1.131,0.068-1.54c0-0.269,0.09-0.488,0.269-0.66c0.182-0.172,0.408-0.259,0.687-0.259	c0.549,0,0.952,0.38,0.952,0.919c0,0.408-0.023,0.922-0.068,1.54S24.16,7.436,24.16,7.846L24.16,7.846z M23.573,2.784	c-0.295,0-0.55-0.099-0.767-0.297c-0.217-0.198-0.325-0.438-0.325-0.727c0-0.285,0.108-0.525,0.325-0.724	c0.217-0.198,0.472-0.297,0.767-0.297s0.549,0.099,0.764,0.297c0.215,0.198,0.32,0.438,0.32,0.724c0,0.288-0.105,0.528-0.32,0.727	C24.122,2.685,23.868,2.784,23.573,2.784L23.573,2.784z M21.253,10.068c0,0.875-0.318,1.313-0.952,1.313	c-0.558,0-0.955-0.388-0.955-0.938V0.891c0-0.266,0.097-0.486,0.29-0.655C19.82,0.078,20.049,0,20.319,0	c0.545,0,0.934,0.357,0.934,0.891V10.068L21.253,10.068z M18.097,10.068c0,0.875-0.318,1.313-0.953,1.313	c-0.278,0-0.504-0.087-0.686-0.262c-0.18-0.177-0.269-0.401-0.269-0.677V0.891c0-0.266,0.097-0.486,0.29-0.655	C16.663,0.078,16.892,0,17.163,0c0.545,0,0.934,0.357,0.934,0.891V10.068L18.097,10.068z M15.38,7.094	c0.003,0.773,0.012,2.016,0.015,2.789c0.007,0.241,0.04,0.623,0.047,0.863c0,0.259-0.094,0.472-0.28,0.639	c-0.187,0.167-0.415,0.252-0.687,0.252c-0.384,0-0.662-0.172-0.837-0.519c-0.589,0.217-1.199,0.325-1.829,0.325	c-0.653,0-1.204-0.137-1.65-0.413c-0.502-0.316-0.801-0.775-0.897-1.379c-0.153-0.977-0.24-1.863-0.263-2.663	C8.982,7,8.966,7.012,8.949,7.022c-0.314,1.372-0.943,2.471-1.894,3.296c-0.962,0.828-2.089,1.242-3.383,1.242	C1.225,11.561,0,10.267,0,7.678C0,6.5,0.29,5.292,0.87,4.052c0.58-1.237,1.325-2.242,2.237-3.01	c0.639-0.54,1.325-0.809,2.058-0.809c0.446,0,1.054,0.16,1.822,0.483C7.9,1.099,8.354,1.506,8.354,1.94	c0,0.247-0.094,0.469-0.282,0.665C7.883,2.801,7.65,2.899,7.374,2.899c-0.137,0-0.443-0.129-0.915-0.391	C5.988,2.249,5.557,2.119,5.165,2.119c-0.415,0-0.974,0.446-1.678,1.339c-1.026,1.299-1.54,2.706-1.54,4.22	c0,0.771,0.113,1.292,0.34,1.568c0.238,0.29,0.7,0.436,1.386,0.436c0.705,0,1.322-0.2,1.857-0.601	c0.566-0.425,0.985-1.04,1.257-1.851C5.719,7.312,4.79,7.532,3.998,7.886C3.854,7.949,3.713,7.982,3.569,7.982	c-0.285,0-0.523-0.106-0.712-0.318c-0.17-0.188-0.255-0.401-0.255-0.642c0-0.705,0.832-1.195,2.499-1.476	c0.94-0.158,2.037-0.235,3.289-0.235c0.26,0,0.48,0.08,0.661,0.239c0.034-0.318,0.083-0.655,0.146-1.01	C9.289,4.024,9.6,3.765,10.13,3.765c0.267,0,0.495,0.083,0.684,0.25s0.283,0.379,0.283,0.634c0,0.203-0.033,0.516-0.099,0.948	c-0.066,0.429-0.1,0.757-0.1,0.98c0,1.284,0.087,2.251,0.262,2.886c0.232,0.099,0.445,0.158,0.648,0.158	c0.512,0,1.073-0.073,1.686-0.221c-0.002-0.757-0.017-1.747-0.021-2.367c0-0.945,0.042-1.759,0.129-2.444	c0.068-0.55,0.382-0.823,0.941-0.823c0.271,0,0.504,0.085,0.698,0.255c0.193,0.172,0.283,0.384,0.269,0.644	C15.423,6.417,15.38,7.226,15.38,7.094L15.38,7.094z"/></g></svg>