<?xml version="1.0" encoding="iso-8859-1"?><!-- Generator: Adobe Illustrator 16.0.0, SVG Export Plug-In . SVG Version: 6.00 Build 0) --><!DOCTYPE svg PUBLIC "-//W3C//DTD SVG 1.1//EN" "http://www.w3.org/Graphics/SVG/1.1/DTD/svg11.dtd"><svg version="1.1" id="Layer_1" xmlns="http://www.w3.org/2000/svg" xmlns:xlink="http://www.w3.org/1999/xlink" x="0px" y="0px" width="192.756px" height="192.756px" viewBox="0 0 192.756 192.756" style="enable-background:new 0 0 192.756 192.756;" xml:space="preserve"><g><polygon style="fill-rule:evenodd;clip-rule:evenodd;fill:#FFFFFF;" points="0,0 192.756,0 192.756,192.756 0,192.756 0,0	"/><polygon style="fill-rule:evenodd;clip-rule:evenodd;" points="156.754,157.615 158.6,157.615 158.6,156.936 154.129,156.936	154.129,157.615 155.977,157.615 155.977,163.447 156.754,163.447 156.754,157.615	"/><polygon style="fill-rule:evenodd;clip-rule:evenodd;" points="159.281,163.447 159.961,163.447 159.961,157.615 162.002,163.447	162.586,163.447 164.723,157.615 164.723,163.447 165.5,163.447 165.5,156.936 164.334,156.936 162.391,162.379 160.35,156.936	159.281,156.936 159.281,163.447	"/><path style="fill-rule:evenodd;clip-rule:evenodd;fill:#668FCA;" d="M117.293,26.406c11.76-8.164,44.709-27.117,59.482-15.065	c9.719,7.873,4.373,24.395,2.041,31.199c-0.389,1.75,1.652,2.041,2.041,0.389c4.859-12.246,6.318-28.672-0.777-35.086	c-15.648-14.093-52.484,4.957-69.688,15.454L117.293,26.406L117.293,26.406z"/><path style="fill-rule:evenodd;clip-rule:evenodd;fill:#668FCA;" d="M178.816,116.795l-55.4-0.098	c-2.332,11.469-10.107,17.592-22.256,17.592c-15.26,0-25.757-8.357-26.437-27.699l105.162-0.098	c0.195-3.984-0.291-6.803-0.291-9.914c0-44.222-32.268-76.685-82.127-76.685c-23.133,0-41.793,6.804-55.984,19.633	C25.349,54.3,16.408,73.641,16.408,95.996c0,23.229,10.982,45.292,29.741,59.579c14.093,10.594,31.977,15.939,53.941,15.939	C140.426,171.514,168.709,149.258,178.816,116.795L178.816,116.795z"/><path style="fill-rule:evenodd;clip-rule:evenodd;fill:#FFFFFF;" d="M74.529,82.292c0.292-16.814,12.343-24.104,24.979-24.104	c13.314,0,24.104,7.678,24.104,24.104H74.529L74.529,82.292z"/><path style="fill-rule:evenodd;clip-rule:evenodd;fill:#FFFFFF;" d="M12.617,135.455c17.105-49.859,53.456-84.849,71.631-95.734	c-0.097,0-0.097,0.292,0,0c1.361-0.681,0.486-2.43-0.972-1.75c-9.719,5.054-47.722,24.882-70.173,64.05	C14.658,103.771,10.868,133.707,12.617,135.455L12.617,135.455z"/><path style="fill-rule:evenodd;clip-rule:evenodd;fill:#668FCA;" d="M19.226,186.385c-20.021-12.635-10.011-47.041,1.847-71.533	l9.233,19.826c-8.358,17.885-13.024,36.934-3.985,43.736c11.663,8.748,35.669,1.07,52.775-9.33l5.54,0.486	C62.574,184.246,34.68,196.104,19.226,186.385L19.226,186.385z"/></g></svg>