<?xml version="1.0" encoding="iso-8859-1"?><!-- Generator: Adobe Illustrator 16.0.0, SVG Export Plug-In . SVG Version: 6.00 Build 0) --><!DOCTYPE svg PUBLIC "-//W3C//DTD SVG 1.1//EN" "http://www.w3.org/Graphics/SVG/1.1/DTD/svg11.dtd"><svg version="1.1" id="Layer_1" xmlns="http://www.w3.org/2000/svg" xmlns:xlink="http://www.w3.org/1999/xlink" x="0px" y="0px" width="192.756px" height="192.756px" viewBox="0 0 192.756 192.756" style="enable-background:new 0 0 192.756 192.756;" xml:space="preserve"><g><polygon style="fill-rule:evenodd;clip-rule:evenodd;fill:#FFFFFF;" points="0,0 192.756,0 192.756,192.756 0,192.756 0,0	"/><polygon style="fill-rule:evenodd;clip-rule:evenodd;fill:#D97944;" points="2.834,19.496 189.922,19.496 189.922,173.26	2.834,173.26 2.834,19.496	"/><path style="fill-rule:evenodd;clip-rule:evenodd;fill:#FFFFFF;" d="M157.24,128.41v-20.5h-10.572l0.004,11.215	c0,3.002-2.436,5.447-5.439,5.447c-3.008,0-5.447-2.445-5.447-5.447l-0.004-55.102h-10.574v64.387H157.24L157.24,128.41z"/><path style="fill-rule:evenodd;clip-rule:evenodd;fill:#FFFFFF;" d="M77.798,117.199c0,6.404-4.169,12.176-16.017,12.176	c-11.856,0-16.017-7.531-16.017-12.176v-9.289h10.569v11.215c0,3.002,2.444,5.447,5.452,5.447c3.008,0,5.444-2.52,5.444-5.525	l-0.004-55.023h10.573V117.199L77.798,117.199z"/><path style="fill-rule:evenodd;clip-rule:evenodd;fill:#FFFFFF;" d="M117.52,85.484v-10.97c0-7.129-6.486-10.491-10.572-10.491	H85.805v64.387h21.142c7.932,0,10.572-5.129,10.572-8.408v-19.299c0-2.725-2.803-6.332-6.971-6.332	C114.717,94.372,117.52,88.688,117.52,85.484L117.52,85.484z M102.787,123.141l-6.414-0.014V97.176h6.414	c4.16,0,4.16,2.967,4.16,13.053C106.947,120.32,106.947,123.141,102.787,123.141L102.787,123.141z M102.141,91.744l-5.767-0.008	V70.104h5.767c3.846,0,4.807,0.808,4.807,10.892C106.947,91.089,105.986,91.744,102.141,91.744L102.141,91.744z"/><path style="fill-rule:evenodd;clip-rule:evenodd;fill:#FFFFFF;" d="M51.047,88.653c-3.375,0-6.116,2.742-6.116,6.121	c0,3.378,2.741,6.121,6.116,6.121c3.378,0,6.116-2.742,6.116-6.121C57.163,91.395,54.425,88.653,51.047,88.653L51.047,88.653z"/><polygon style="fill-rule:evenodd;clip-rule:evenodd;fill:#FFFFFF;" points="41.272,64.023 51.047,86.283 60.816,64.023	41.272,64.023	"/></g></svg>