<?xml version="1.0" encoding="iso-8859-1"?><!-- Generator: Adobe Illustrator 16.0.0, SVG Export Plug-In . SVG Version: 6.00 Build 0) --><!DOCTYPE svg PUBLIC "-//W3C//DTD SVG 1.1//EN" "http://www.w3.org/Graphics/SVG/1.1/DTD/svg11.dtd"><svg version="1.1" id="Layer_1" xmlns="http://www.w3.org/2000/svg" xmlns:xlink="http://www.w3.org/1999/xlink" x="0px" y="0px" width="192.756px" height="192.756px" viewBox="0 0 192.756 192.756" style="enable-background:new 0 0 192.756 192.756;" xml:space="preserve"><g><polygon style="fill-rule:evenodd;clip-rule:evenodd;fill:#FFFFFF;" points="0,0 192.756,0 192.756,192.756 0,192.756 0,0	"/><path style="fill-rule:evenodd;clip-rule:evenodd;fill:#00ACEC;" d="M165.895,66.292h24.027l-2.361,12.835h-9.756l-2.26,12.116	h8.729l-2.156,12.117h-8.729l-9.344,52.471h-14.271L165.895,66.292L165.895,66.292z M160.76,66.292h-14.58l-8.832,47.131	c-0.615,3.184-1.129,5.236-1.539,6.16c-0.514,0.822-1.131,1.232-2.055,1.232c-0.82,0-1.334-0.41-1.438-1.129	c-0.102-0.822,0.104-2.568,0.617-5.443l9.035-47.952h-14.684l-7.086,37.889c-1.334,7.188-2.156,11.912-2.361,14.17	c-0.102,2.26,0.205,4.416,1.131,6.469c0.82,2.055,2.463,3.697,4.824,4.93c2.363,1.334,5.135,1.951,8.523,1.951	c3.08,0,5.75-0.514,8.215-1.643c2.465-1.027,4.518-2.67,6.264-4.725c1.746-2.053,2.979-4.107,3.594-6.059	c0.719-1.949,1.438-5.338,2.361-10.268L160.76,66.292L160.76,66.292z M101.102,107.469c0.615-7.291,1.539-16.122,2.875-26.801	c-3.799,12.219-6.367,21.049-7.702,26.801H101.102L101.102,107.469z M115.99,66.292l-4.518,64.073H98.021l1.438-11.602h-5.134	l-3.081,11.602H76.664l20.536-64.073H115.99L115.99,66.292z M85.597,66.292H73.275l-5.34,28.854L65.06,66.292H52.841	l-12.014,64.073h12.322l5.442-29.16l2.156,29.16h12.835L85.597,66.292L85.597,66.292z M46.27,66.806L34.153,95.762l2.978,34.603	H23.679l-2.464-22.896l-4.312,22.896H2.834l14.684-93.44h14.067l-7.188,51.136l8.934-21.255H46.27L46.27,66.806z"/></g></svg>