<?xml version="1.0" encoding="iso-8859-1"?><!-- Generator: Adobe Illustrator 16.0.0, SVG Export Plug-In . SVG Version: 6.00 Build 0) --><!DOCTYPE svg PUBLIC "-//W3C//DTD SVG 1.1//EN" "http://www.w3.org/Graphics/SVG/1.1/DTD/svg11.dtd"><svg version="1.1" id="Layer_1" xmlns="http://www.w3.org/2000/svg" xmlns:xlink="http://www.w3.org/1999/xlink" x="0px" y="0px" width="192.756px" height="192.756px" viewBox="0 0 192.756 192.756" style="enable-background:new 0 0 192.756 192.756;" xml:space="preserve"><g><polygon style="fill-rule:evenodd;clip-rule:evenodd;fill:#FFFFFF;" points="0,0 192.756,0 192.756,192.756 0,192.756 0,0	"/><path style="fill-rule:evenodd;clip-rule:evenodd;fill:#B42736;" d="M11.914,110.34h16.725v-6.429l6.543,6.395h22.883	L42.704,95.294l13.262-12.841H34.902l-6.264,6.065v-6.1H11.914V110.34L11.914,110.34z M82.452,81.187	c-13.882,0-25.137,6.803-25.137,15.191c0,8.391,11.255,15.191,25.137,15.191c13.884,0,25.136-6.801,25.136-15.191	C107.588,87.99,96.335,81.187,82.452,81.187L82.452,81.187z M82.452,104.048c-3.06,0-5.542-3.434-5.542-7.67s2.482-7.67,5.542-7.67	c3.062,0,5.542,3.434,5.542,7.67S85.513,104.048,82.452,104.048L82.452,104.048z M164.117,110.34h16.725V82.418h-16.725V110.34	L164.117,110.34z M140.533,90.466v-8.047h15.396v27.921h-17.775l-7.977-8.048v8.048h-15.395V82.418h17.773L140.533,90.466	L140.533,90.466z"/></g></svg>