<?xml version="1.0" encoding="iso-8859-1"?><!-- Generator: Adobe Illustrator 16.0.0, SVG Export Plug-In . SVG Version: 6.00 Build 0) --><!DOCTYPE svg PUBLIC "-//W3C//DTD SVG 1.1//EN" "http://www.w3.org/Graphics/SVG/1.1/DTD/svg11.dtd"><svg version="1.1" id="Layer_1" xmlns="http://www.w3.org/2000/svg" xmlns:xlink="http://www.w3.org/1999/xlink" x="0px" y="0px" width="192.756px" height="192.756px" viewBox="0 0 192.756 192.756" style="enable-background:new 0 0 192.756 192.756;" xml:space="preserve"><g><polygon style="fill-rule:evenodd;clip-rule:evenodd;fill:#FFFFFF;" points="0,0 192.756,0 192.756,192.756 0,192.756 0,0	"/><path style="fill-rule:evenodd;clip-rule:evenodd;fill:#F5D9AC;" d="M101.189,18.557c37.408,0,67.918,30.51,67.918,67.917	c0,37.409-30.51,67.917-67.918,67.917c-37.408,0-67.917-30.508-67.917-67.917C33.272,49.067,63.782,18.557,101.189,18.557	L101.189,18.557z"/><path style="fill:#9E2D32;" d="M32.623,96.141c-0.151-1.516-0.298-3.358-0.396-5.121c-0.086-1.562-0.143-3.154-0.143-4.546	c0-38.062,31.044-69.106,69.106-69.106c19.031,0,36.309,7.761,48.828,20.279c12.518,12.518,20.279,29.796,20.279,48.827	c0,4.189-0.447,8.448-1.246,12.62c-0.844,4.408-2.084,8.715-3.609,12.736c-0.6,1.584-2.822,0.754-2.221-0.836	c1.479-3.896,2.68-8.072,3.498-12.346c0.77-4.016,1.199-8.124,1.199-12.174c0-18.375-7.494-35.057-19.584-47.146	c-12.088-12.088-28.77-19.582-47.145-19.582c-36.752,0-66.728,29.975-66.728,66.728c0,1.3,0.057,2.853,0.144,4.417	c0.105,1.889,0.244,3.677,0.378,5.018C35.151,97.598,32.792,97.83,32.623,96.141L32.623,96.141z"/><polygon style="fill-rule:evenodd;clip-rule:evenodd;fill:#FFFFFF;" points="101.189,51.108 104.85,28.192 105.613,51.387	112.111,29.111 109.969,52.219 119.199,30.935 114.184,53.592 126.006,33.635 118.195,55.483 132.418,37.167 121.938,57.863	138.34,41.478 125.352,60.694 143.676,46.499 128.387,63.931 148.342,52.149 130.992,67.524 152.264,58.341 133.127,71.417	155.379,64.977 134.758,75.546 157.641,71.952 135.861,79.848 159.012,79.155 136.416,84.254 159.473,86.475 136.416,88.695	159.012,93.793 135.861,93.102 157.641,100.998 134.758,97.404 155.379,107.973 133.127,101.533 152.262,114.607 130.99,105.426	148.342,120.801 128.385,109.018 143.676,126.451 125.352,112.256 138.34,131.471 121.936,115.086 132.418,135.781	118.193,117.467 126.004,139.314 114.184,119.357 119.199,142.014 109.967,120.73 112.111,143.838 105.613,121.562 104.85,144.756	101.189,121.84 97.529,144.756 96.765,121.562 90.268,143.838 92.411,120.729 83.179,142.014 88.196,119.357 76.374,139.314	84.185,117.465 69.96,135.781 80.442,115.086 64.039,131.471 77.027,112.254 58.704,126.451 73.993,109.018 54.038,120.799	71.388,105.424 50.116,114.607 69.252,101.531 47,107.973 67.621,97.402 44.738,100.998 66.519,93.101 43.367,93.793	65.963,88.694 42.907,86.474 65.963,84.253 43.367,79.155 66.519,79.847 44.738,71.952 67.621,75.545 47,64.977 69.252,71.416	50.117,58.341 71.388,67.524 54.039,52.149 73.994,63.931 58.704,46.499 77.028,60.693 64.039,41.478 80.443,57.862 69.96,37.167	84.186,55.482 76.375,33.634 88.196,53.592 83.18,30.935 92.412,52.219 90.269,29.111 96.766,51.387 97.529,28.192 101.189,51.108	"/><path style="fill-rule:evenodd;clip-rule:evenodd;fill:#9E2D32;" d="M95.969,40.449c-0.319-3.806-2.796-7.182-4.816-7.623	c8.236-2.808,19.912-5.517,27.402-3.956c2.615,0.544,4.553,1.621,3.158,4.663c-0.885,1.931,0.748,1.969,2.568,1.854	c6.174-0.391,14.338-1.963,20.986-1.829c3.73,0.076,9.727,0.1,8.545,5.052c1.668-7.454-21.578-2.108-27.957-1.085	c-2.781,0.446-9.756,1.95-8.055-2.335c1.232-3.103-4.006-2.398-7.557-1.61C105.461,34.642,99.688,36.458,95.969,40.449	L95.969,40.449z M66.827,47.477c-1.601,4.965-2.529,10.461-2.634,16.315c-0.258,14.407,4.519,28.019,12.213,37.702	c-0.531-6.075,9.294-12.675,22.329-14.873c13.387-2.256,25.223,0.964,26.346,7.169c0.285,1.572-0.146,3.188-1.164,4.762	c6.277-7.957,10.064-18.016,9.969-28.565c-0.086-9.424-3.26-17.781-8.506-24.139c-2.096-1.943-6.586-2.753-10.871-1.804	c-0.678,0.15-1.316,0.337-1.91,0.555c-2.863-1.483-7.387-2.397-12.656-2.345c-5.708,0.057-11.034,1.236-14.586,3.006	c-2.182-0.577-5.049-0.816-8.19-0.591C72.902,44.975,69.109,46.067,66.827,47.477L66.827,47.477z M115.42,77.064	c1.037-3.048,1.736-6.565,1.83-9.907c0.111-3.843-0.557-7.961-1.752-11.378L115.42,77.064L115.42,77.064z M84.554,57.193	c-0.757,3.475-0.983,7.427-0.556,11.319c0.487,4.443,1.833,8.809,3.679,12.353L84.554,57.193L84.554,57.193z M101.686,120.85	c-2.672-0.014-5.102-0.504-7.251-1.391c1.18-1.699,2.508-3.203,3.87-4.441c-1.7,1.016-3.425,2.34-5.016,3.916	c-0.94-0.473-1.819-1.027-2.635-1.654c1.659-2.453,3.528-4.65,5.789-6.432c0.608-0.51,1.229-0.984,1.862-1.416	c-0.697,0.312-1.396,0.666-2.086,1.057c-2.632,1.383-4.934,3.279-7.071,5.48c-0.627-0.617-1.205-1.287-1.731-2	c2.244-3.119,4.698-5.912,7.928-8.1c0.95-0.678,1.941-1.291,2.962-1.828c-1.096,0.365-2.174,0.807-3.223,1.316	c-3.476,1.594-6.312,3.881-8.992,6.518c-0.428-0.791-0.802-1.621-1.121-2.488c2.609-3.297,5.448-6.24,9.239-8.533	c1.291-0.781,2.663-1.482,4.097-2.068c-1.506,0.371-2.966,0.859-4.358,1.441c-3.805,1.592-6.876,3.859-9.757,6.482	c-0.307-1.391-0.486-2.85-0.527-4.361c3.783-4.225,11.242-8.33,19.424-8.928v10.225c0,0.463,0.006,1.01,0.01,1.619	c0.033,4.416,0.092,12.277-1.16,15.031L101.686,120.85L101.686,120.85z M105.035,93.412v-1.717l2.504,0.131v2.038	c6.295,1.53,10.561,5.615,11.572,8.232c-0.102,9.084-5.498,15.697-12.512,17.971c-0.129,0.473-0.273,0.893-0.438,1.256	l-0.484,1.068l-2.834,0.197l1.041-2.293c1.252-2.754,1.191-10.615,1.16-15.031c-0.006-0.609-0.01-1.156-0.01-1.619V93.412	L105.035,93.412z"/><path style="fill:#C89A74;" d="M162.242,130.566l-0.84-0.129c-0.051-0.008-0.201-0.035-0.41-0.074	c-0.74,3.568-1.117,5.377-1.182,5.688c-0.395,1.91-0.789,3.82-1.182,5.73c-0.109,0.537-0.221,1.076-0.332,1.613	c-0.662,3.225-1.326,6.457-1.988,9.688c0.582,0.098,1,0.17,1.271,0.217c0.029,0.004,0.547,0.096,1.494,0.266	c0.002-0.004,0.004-0.01,0.004-0.014c0.439-1.879,0.881-3.76,1.324-5.641c0.439-1.881,0.885-3.762,1.328-5.641	c0.312-1.324,0.625-2.65,0.936-3.975c0.609-2.592,1.219-5.188,1.709-7.225c-0.057-0.014-0.131-0.031-0.229-0.055L162.242,130.566	L162.242,130.566z M137.521,143.977l0.852-1.473c-1.377-0.143-2.709-0.275-4.002-0.398c-1.402-0.133-3.205-0.291-5.377-0.469	c-0.186,3.01,0.037,5.113,0.502,6.555c0.504,1.564,1.254,2.068,1.918,2.123c0.943,0.076,1.838-0.477,2.705-1.379	C135.293,147.715,136.41,145.9,137.521,143.977L137.521,143.977z M129.797,133.238c0.289,0.023,0.576,0.045,0.861,0.068	c0.797,0.062,1.594,0.125,2.328,0.184c0.068-0.516,0.326-2.408,0.428-4.262c0.033-0.604,0.258-3.82-0.611-4.078	c-0.93-0.275-1.77,1.85-2.146,3.023C130.137,129.795,129.963,131.549,129.797,133.238L129.797,133.238z M101.768,148.873	l0.354-0.006c0.098-0.002,0.193-0.004,0.293-0.004c0-0.004,0-0.008,0-0.01c0.027-1.498,0.051-2.707,0.072-3.766	c0.055-2.746,0.107-5.494,0.154-8.109c0.023-1.354,0.047-2.707,0.07-4.062c0.043-2.578,0.088-5.154,0.137-7.727	c-1.24,0.016-2.465,0.033-3.693,0.051c-0.078,0.002-0.154,0.004-0.23,0.004c0.012,0.998,0.023,1.996,0.033,2.994	c0.033,2.928,0.066,5.863,0.105,8.871c0.037,2.82,0.068,5.719,0.102,8.623c0.01,1.055,0.023,2.111,0.035,3.17	c0.049,0,0.102-0.002,0.16-0.002l2.408-0.039V148.873L101.768,148.873z M69.386,127.039l0.005,0.045l-2.376,0.236	c-0.067,0.008-0.182,0.02-0.327,0.035c0.023,0.055,0.046,0.107,0.072,0.162c1.365,2.979,2.589,5.686,3.672,8.125	c0.199,0.447,0.397,0.893,0.594,1.336c0.048-0.262,0.096-0.525,0.146-0.791c0.555-3.002,1.07-5.695,1.542-8.061	c0.038-0.189,0.061-0.441,0.072-0.707c0.011-0.238,0.007-0.488-0.005-0.719c-0.493,0.039-0.607,0.051-0.72,0.062L69.386,127.039	L69.386,127.039z M49.853,123.67l-0.313-1.764c-0.455,0.209-0.931,0.357-1.414,0.441c-2.126,0.369-3.797-0.275-5.065-1.438	c-0.064-0.059-0.127-0.117-0.189-0.18c0.093,1.084,0.178,2.186,0.22,3.408c0.089,2.592-0.179,4.811-0.829,6.674	c-0.146,0.418-0.309,0.816-0.49,1.195c2.872,0.738,5.049,2.439,6.743,4.564c2.277,2.855,3.545,6.385,4.486,9.223	c0.115,0.346,0.233,0.701,0.353,1.055c-0.034-0.615-0.1-1.275-0.203-1.973l-0.345-2.367l2.371-0.328	c0.294-0.041,0.928-0.133,1.569-0.225c0.313-0.045,0.63-0.092,0.951-0.137l2.402-0.342c-0.713-1.424-1.408-2.789-2.092-4.115	c-1.137-2.209-2.311-4.451-3.495-6.701c-0.293-0.555-0.62-1.115-0.955-1.438c-0.069-0.066-0.07-0.119-0.09-0.117h-0.009	c-0.056,0.008-0.103,0.016-0.143,0.021v0.004c-0.025,0.004-0.081,0.012-0.195,0.027l-2.304,0.338l-0.381-2.307	c-0.02-0.121-0.114-0.707-0.204-1.27C50.14,125.342,50.047,124.76,49.853,123.67L49.853,123.67z M43.464,154.633	c-0.702-1.629-1.274-3.258-1.75-4.639c-0.01-0.031-0.378-1.125-0.737-2.193c-1.743-5.186-3.055-9.094-6.311-9.473	c0.298,1.25,0.324,1.359,0.373,1.561c0.54,2.238,1.067,4.422,1.275,5.301c0.229,0.973,0.635,2.678,1.121,4.709	c0.375,1.572,0.753,3.146,1.129,4.719c0.166,0.693,0.269,0.998,0.331,1.041c0.1,0.068-0.018-0.113,0.151-0.146	c0.303-0.061,0.61-0.123,0.917-0.186c0.316-0.064,0.664-0.135,1.412-0.281L43.464,154.633L43.464,154.633z M146.443,119.473	c6.109,0.953,12.293,1.93,18.311,3.234c5.738,1.246,11.479,2.834,17.119,4.443c-0.736,2.623-1.475,5.246-2.211,7.865	c-1.197-0.332-2.395-0.66-3.592-0.982c-1.922,7.264-3.863,14.525-5.771,21.795c1.375,0.293,2.752,0.584,4.129,0.873	c-1.744,6.23-3.504,12.455-5.25,18.688c-2.254-0.381-4.51-0.771-6.762-1.148l0.533-2.432c0.939-4.277,1.076-6.705,0.441-8	c-0.463-0.943-1.791-1.391-3.873-1.771c-6.518-1.191-13.088-2.07-19.654-2.934c0.408-2.334,0.807-4.668,1.182-7.006	c-2.904,4.32-6.361,7.816-12.018,7.375c-4.719-0.371-8.109-3.549-10.098-7.656c-0.369-0.768-0.699-1.578-0.984-2.424	c-0.146,2.672-0.311,5.346-0.461,8.02c-2.938-0.068-5.875-0.135-8.812-0.164c-5.283-0.057-10.432,0.025-15.708,0.236	c-2.966,0.119-5.929,0.283-8.894,0.457c-0.13-2.791-0.273-5.574-0.443-8.361c1.207-0.066,2.414-0.131,3.618-0.203	c0.032-0.002,0.065-0.004,0.097-0.006c0-0.006-0.001-0.012-0.001-0.018c-0.153-3.949-0.278-7.898-0.433-11.846	c-0.154-3.938-0.324-7.875-0.465-11.812c-1.324,0.068-2.651,0.137-3.979,0.205v-0.006l-0.356,0.045	c-0.462,0.062-0.725,0.268-0.886,0.539c-0.312,0.525-0.51,1.42-0.699,2.283h-0.01c-0.641,2.908-1.272,5.865-1.891,8.887	c-1.807,8.846-3.293,17.736-4.641,26.664c-0.687,4.549-1.714,10.014-7.296,10.697c-2.263,0.275-4.2-0.574-5.685-2.078	c-1.454-1.471-2.431-3.596-2.772-5.812v-0.01c-0.395-2.561-0.276-4.414,0.094-5.742c0.468-1.682,1.418-2.877,2.693-3.434	c2.214-0.967,4.721-0.08,6.083,1.904c0.117-0.781,0.263-1.717,0.439-2.826c-0.963-2.086-1.924-4.145-2.876-6.156	c-1.005-2.121-2.09-4.373-3.28-6.795c-0.418-0.85-0.829-1.68-1.235-2.49l0.246,2.359c0.773,7.424,0.011,11.883-1.282,14.572	c-1.584,3.297-3.94,4.264-5.697,4.557c-3.551,0.594-6.149-1.637-8.099-4.793c-0.549-0.891-1.042-1.846-1.487-2.816	c0.546,2.451,1.091,4.902,1.635,7.355c-3.603,0.703-7.206,1.418-10.799,2.176c-3.502,0.74-7.001,1.506-10.5,2.277	c-1.319-4.58-1.228-4.287-2.314-8.045c1.645-0.389,3.228-0.686,4.735-1.033c-0.037-0.15-0.099-0.393-0.193-0.742	c-2.497-9.326-5.038-18.639-7.536-27.963c-0.907-3.385-1.723-6.83-2.76-10.176c-1.775,0.459-3.545,0.951-5.321,1.412	c-0.776-2.662-1.541-5.324-2.271-8.004c8.186-2.23,16.376-4.279,24.643-6.145c0.533,2.752,1.113,5.482,1.725,8.217	c-0.369,0.082-2.552,0.543-5.546,1.209c0.198,1.059,2.984,12.51,3.423,14.352c0.743-0.227,1.362-0.531,1.734-1.039	c1.448-1.977,0.912-6.293,0.722-8.387c-0.548-6.035-1.462-16.1,7.324-17.727c5.789-1.07,9.966,3.713,10.814,9	c0.497,3.096,0.073,6.729-2.465,8.865c10.821-1.582,21.655-2.912,32.576-3.533c12.113-0.691,24.179-0.697,36.382-0.43	c-0.152,2.809-0.314,5.611-0.428,8.42c-2.34-0.109-4.068-0.193-4.068-0.176c-0.258,5.908-0.516,11.811-0.789,17.717	c-0.09,1.971-0.182,3.941-0.27,5.914c0.102,0.004,0.197,0.008,0.295,0.012h0.01c1.08,0.043,2.162,0.055,3.246,0.076	c-0.396-1.229-0.703-2.525-0.924-3.867c-0.398-2.432-0.514-4.98-0.338-7.484c0.191-2.744,0.721-5.453,1.555-7.959	c0.828-2.48,1.965-4.77,3.383-6.709c2.895-3.957,7.215-6.711,12.266-6.277c4.475,0.385,7.824,3.426,9.666,7.373	c2.127,4.561,2.293,9.961,1.525,14.857c-0.219,1.391-0.391,2.777-0.555,4.18c-1.262-0.141-2.523-0.283-3.783-0.422	c1.176,1.377,2.369,2.742,3.566,4.104c-0.797,1.404-1.586,2.814-2.451,4.182c1.023,0.098,2.049,0.189,3.072,0.33	c0-0.008,0.002-0.014,0.004-0.021c1.359-7.688,2.77-15.363,4.125-23.053c-1.277-0.195-2.555-0.369-3.832-0.543	C145.549,124.986,146.008,122.23,146.443,119.473L146.443,119.473z"/><path style="fill:#FFFFFF;" d="M164.621,127.949l-0.84-0.129c-0.051-0.008-0.201-0.035-0.41-0.074	c-0.74,3.57-1.117,5.377-1.182,5.688c-0.395,1.91-0.789,3.82-1.182,5.73c-0.109,0.537-0.221,1.076-0.332,1.613	c-0.662,3.225-1.326,6.457-1.988,9.689c0.582,0.096,1,0.168,1.271,0.215c0.029,0.004,0.547,0.098,1.494,0.268	c0.002-0.006,0.004-0.012,0.004-0.016c0.439-1.879,0.881-3.76,1.322-5.641c0.441-1.879,0.887-3.76,1.33-5.641	c0.312-1.324,0.625-2.648,0.936-3.975c0.609-2.592,1.219-5.186,1.709-7.225c-0.057-0.014-0.131-0.031-0.229-0.055L164.621,127.949	L164.621,127.949z M139.9,141.359l0.852-1.473c-1.377-0.143-2.709-0.275-4.002-0.398c-1.402-0.133-3.205-0.289-5.377-0.467	c-0.186,3.01,0.037,5.111,0.502,6.553c0.504,1.564,1.254,2.068,1.918,2.123c0.943,0.078,1.838-0.477,2.705-1.379	C137.672,145.098,138.789,143.283,139.9,141.359L139.9,141.359z M132.176,130.621c0.289,0.023,0.576,0.045,0.861,0.068	c0.797,0.062,1.594,0.125,2.328,0.186c0.068-0.518,0.326-2.41,0.428-4.264c0.033-0.604,0.258-3.818-0.611-4.078	c-0.93-0.275-1.77,1.85-2.146,3.025C132.516,127.178,132.342,128.932,132.176,130.621L132.176,130.621z M104.146,146.256	l0.354-0.006c0.098-0.002,0.193-0.004,0.293-0.004c0-0.004,0-0.006,0-0.01c0.027-1.498,0.051-2.705,0.072-3.764	c0.055-2.748,0.107-5.496,0.154-8.111c0.023-1.352,0.047-2.707,0.07-4.061c0.043-2.578,0.088-5.156,0.137-7.729	c-1.24,0.016-2.465,0.033-3.693,0.053c-0.078,0-0.154,0.002-0.23,0.004c0.012,0.996,0.023,1.994,0.033,2.992	c0.033,2.928,0.066,5.863,0.105,8.871c0.037,2.82,0.068,5.719,0.102,8.623c0.01,1.055,0.023,2.113,0.035,3.17	c0.049,0,0.102,0,0.16-0.002l2.408-0.039V146.256L104.146,146.256z M71.765,124.422l0.004,0.045l-2.375,0.236	c-0.068,0.008-0.182,0.02-0.327,0.037c0.023,0.053,0.046,0.105,0.072,0.16c1.365,2.979,2.589,5.686,3.672,8.125	c0.199,0.447,0.397,0.893,0.594,1.338c0.048-0.264,0.096-0.527,0.146-0.793c0.555-3.002,1.07-5.695,1.542-8.061	c0.038-0.189,0.061-0.441,0.072-0.707c0.011-0.238,0.008-0.488-0.005-0.719c-0.494,0.039-0.607,0.051-0.72,0.062L71.765,124.422	L71.765,124.422z M52.232,121.053l-0.314-1.764c-0.455,0.209-0.93,0.357-1.414,0.441c-2.126,0.369-3.797-0.275-5.066-1.436	c-0.064-0.061-0.127-0.119-0.189-0.182c0.092,1.084,0.178,2.188,0.22,3.408c0.089,2.592-0.179,4.811-0.829,6.676	c-0.146,0.416-0.309,0.814-0.49,1.193c2.872,0.74,5.049,2.439,6.743,4.564c2.278,2.857,3.545,6.385,4.487,9.223	c0.115,0.346,0.233,0.701,0.353,1.057c-0.034-0.615-0.101-1.277-0.202-1.975l-0.346-2.367l2.371-0.328	c0.294-0.041,0.928-0.133,1.569-0.225c0.313-0.045,0.63-0.092,0.952-0.137l2.402-0.342c-0.713-1.422-1.408-2.789-2.091-4.115	c-1.138-2.209-2.312-4.451-3.496-6.699c-0.293-0.557-0.62-1.117-0.955-1.439c-0.069-0.066-0.07-0.119-0.09-0.115h-0.009	c-0.056,0.008-0.103,0.014-0.143,0.02v0.006c-0.024,0.002-0.081,0.01-0.195,0.025l-2.304,0.34l-0.381-2.309	c-0.02-0.121-0.114-0.707-0.204-1.27C52.519,122.725,52.426,122.143,52.232,121.053L52.232,121.053z M45.843,152.016	c-0.702-1.629-1.274-3.258-1.75-4.639c-0.01-0.031-0.378-1.125-0.737-2.193c-1.743-5.186-3.056-9.094-6.311-9.473	c0.298,1.25,0.324,1.359,0.373,1.562c0.541,2.238,1.067,4.422,1.275,5.301c0.229,0.971,0.635,2.676,1.12,4.707	c0.375,1.574,0.753,3.148,1.129,4.719c0.166,0.693,0.269,0.998,0.33,1.041c0.101,0.07-0.018-0.111,0.151-0.146	c0.304-0.061,0.61-0.123,0.917-0.186c0.316-0.062,0.664-0.133,1.412-0.281L45.843,152.016L45.843,152.016z M148.822,116.855	c6.109,0.953,12.293,1.93,18.311,3.236c5.738,1.244,11.479,2.832,17.119,4.441c-0.736,2.623-1.475,5.246-2.211,7.867	c-1.197-0.334-2.395-0.66-3.592-0.984c-1.922,7.264-3.863,14.527-5.771,21.797c1.375,0.293,2.752,0.582,4.129,0.871	c-1.742,6.23-3.504,12.457-5.25,18.688c-2.254-0.381-4.51-0.771-6.762-1.148l0.533-2.432c0.939-4.277,1.076-6.703,0.441-8	c-0.463-0.943-1.791-1.391-3.873-1.771c-6.518-1.191-13.088-2.07-19.654-2.934c0.408-2.334,0.807-4.668,1.182-7.004	c-2.904,4.32-6.361,7.814-12.018,7.373c-4.719-0.369-8.111-3.547-10.098-7.656c-0.369-0.766-0.699-1.578-0.986-2.424	c-0.145,2.672-0.309,5.346-0.459,8.021c-2.938-0.07-5.875-0.137-8.812-0.166c-5.283-0.057-10.432,0.025-15.708,0.236	c-2.966,0.119-5.929,0.283-8.894,0.457c-0.13-2.791-0.273-5.574-0.443-8.361c1.207-0.064,2.414-0.131,3.618-0.203	c0.032-0.002,0.065-0.004,0.097-0.006c0-0.006-0.001-0.012-0.001-0.018c-0.153-3.949-0.278-7.898-0.433-11.846	c-0.154-3.938-0.324-7.875-0.465-11.812c-1.324,0.068-2.652,0.137-3.979,0.205v-0.006l-0.356,0.047	c-0.462,0.061-0.725,0.266-0.886,0.537c-0.312,0.527-0.51,1.42-0.699,2.283h-0.01c-0.641,2.908-1.273,5.865-1.891,8.887	c-1.807,8.846-3.293,17.736-4.641,26.664c-0.686,4.551-1.714,10.014-7.296,10.697c-2.263,0.277-4.2-0.574-5.685-2.078	c-1.453-1.471-2.431-3.594-2.773-5.812v-0.008c-0.395-2.562-0.276-4.416,0.094-5.744c0.468-1.68,1.418-2.877,2.693-3.434	c2.213-0.967,4.72-0.08,6.083,1.904c0.117-0.781,0.263-1.717,0.439-2.826c-0.963-2.086-1.924-4.143-2.876-6.154	c-1.005-2.123-2.09-4.375-3.28-6.797c-0.418-0.85-0.829-1.68-1.235-2.49l0.246,2.359c0.773,7.426,0.011,11.883-1.282,14.572	c-1.584,3.297-3.94,4.264-5.697,4.559c-3.551,0.592-6.149-1.639-8.099-4.795c-0.549-0.891-1.042-1.846-1.487-2.816	c0.546,2.451,1.091,4.902,1.635,7.355c-3.603,0.703-7.206,1.418-10.799,2.178c-3.502,0.738-7.001,1.506-10.5,2.275	c-1.319-4.58-1.228-4.285-2.314-8.043c1.645-0.389,3.228-0.688,4.735-1.035c-0.037-0.15-0.099-0.393-0.193-0.742	c-2.496-9.326-5.038-18.639-7.535-27.963c-0.907-3.385-1.723-6.83-2.76-10.176c-1.775,0.459-3.545,0.951-5.321,1.412	c-0.776-2.662-1.541-5.324-2.271-8.004c8.185-2.23,16.376-4.277,24.643-6.145c0.534,2.754,1.114,5.482,1.725,8.217	c-0.368,0.082-2.551,0.545-5.546,1.211c0.198,1.057,2.984,12.508,3.424,14.35c0.743-0.227,1.361-0.531,1.734-1.039	c1.448-1.975,0.912-6.293,0.722-8.385c-0.548-6.037-1.462-16.102,7.324-17.729c5.789-1.07,9.966,3.713,10.814,9	c0.496,3.098,0.074,6.729-2.465,8.865c10.82-1.582,21.655-2.91,32.576-3.533c12.113-0.689,24.179-0.697,36.382-0.43	c-0.152,2.809-0.314,5.613-0.428,8.42c-2.34-0.109-4.068-0.193-4.068-0.176c-0.258,5.908-0.516,11.811-0.789,17.717	c-0.09,1.971-0.184,3.941-0.27,5.914c0.102,0.004,0.197,0.008,0.295,0.012h0.01c1.08,0.043,2.162,0.055,3.246,0.076	c-0.396-1.229-0.703-2.525-0.924-3.867c-0.398-2.432-0.514-4.98-0.338-7.484c0.191-2.744,0.721-5.451,1.555-7.959	c0.828-2.48,1.965-4.77,3.383-6.709c2.895-3.955,7.215-6.711,12.266-6.277c4.475,0.385,7.824,3.428,9.666,7.373	c2.127,4.561,2.293,9.961,1.523,14.857c-0.217,1.393-0.389,2.779-0.553,4.18c-1.262-0.141-2.523-0.283-3.783-0.42	c1.176,1.375,2.369,2.74,3.566,4.102c-0.797,1.406-1.586,2.816-2.451,4.182c1.023,0.1,2.049,0.189,3.072,0.33	c0-0.006,0.002-0.014,0.004-0.02c1.361-7.689,2.77-15.365,4.125-23.055c-1.277-0.193-2.555-0.369-3.832-0.541	C147.928,122.371,148.387,119.615,148.822,116.855L148.822,116.855z"/><path style="fill-rule:evenodd;clip-rule:evenodd;fill:#9E2D32;" d="M150.795,119.562c-0.189,1.189-0.395,2.355-0.582,3.537	c0.662,0.09,1.324,0.197,2.004,0.299c1.322,0.197,1.764,0.891,1.469,2.564c-0.686,3.871-1.359,7.725-2.057,11.588	c-0.695,3.854-1.406,7.717-2.09,11.58c-0.297,1.672-0.918,2.199-2.119,2.037c-0.627-0.084-1.219-0.172-1.828-0.23	c-0.188,1.174-0.375,2.348-0.582,3.521c5.834,0.766,11.627,1.59,17.314,2.629c5.658,1.033,7.451,2.932,5.326,12.605	c0.715,0.119,1.447,0.254,2.197,0.381c1.324-4.729,2.666-9.459,3.99-14.188c-0.82-0.172-1.641-0.348-2.459-0.523	c-1.15-0.248-1.471-0.932-1.051-2.533c0.965-3.695,1.98-7.385,2.949-11.076c0.971-3.691,1.939-7.395,2.916-11.092	c0.424-1.6,1.076-2.051,2.334-1.691c0.611,0.174,1.238,0.336,1.867,0.51c0.311-1.105,0.623-2.205,0.934-3.311	c-4.453-1.271-8.938-2.457-13.473-3.51c-0.258,1.145-0.516,2.289-0.791,3.426c0.244,0.057,0.506,0.125,0.75,0.18	c1.271,0.289,1.668,1.006,1.279,2.629c-0.906,3.766-1.781,7.537-2.67,11.297c-0.891,3.76-1.771,7.523-2.652,11.281	c-0.381,1.627-1.021,2.115-2.189,1.906c-1.359-0.244-2.686-0.473-4.043-0.697c-1.186-0.195-1.545-0.885-1.207-2.529	c0.783-3.824,1.568-7.648,2.354-11.461c0.785-3.82,1.576-7.641,2.369-11.463c0.346-1.656,1.023-2.158,2.348-1.895	c0.244,0.049,0.506,0.102,0.732,0.135c0.258-1.152,0.516-2.287,0.756-3.455C160.236,121.117,155.531,120.301,150.795,119.562	L150.795,119.562z M129.572,132.803c0.119-1.08,0.201-2.168,0.307-3.262c0.807-8.311,3.846-9.621,5.672-9.465	c3.654,0.312,2.453,8.967,2.312,10.047c-0.305,2.324-0.357,3.328-1.299,3.248C134.234,133.168,131.92,133.002,129.572,132.803	L129.572,132.803z M141.953,142.549c-2.377,4.111-4.83,7.816-8.346,7.527c-2.625-0.217-5.607-2.85-4.389-13.623	c5.184,0.414,10.334,0.896,15.486,1.475c0.074-0.646,0.195-1.281,0.295-1.922c0.838-5.33,0.279-10.045-1.328-13.49	c-1.623-3.477-4.338-5.707-7.715-5.998c-4.033-0.348-7.574,1.773-10.156,5.303c-2.559,3.498-4.119,8.361-4.473,13.422	c-0.328,4.674,0.396,9.363,2.119,12.926c1.719,3.557,4.396,6.016,8.135,6.309c4.438,0.348,7.508-1.854,12.092-9.941	C143.088,143.871,142.521,143.213,141.953,142.549L141.953,142.549z M86.877,117.182c0.072,1.207,0.128,2.4,0.202,3.602	c0.676-0.035,1.354-0.07,2.065-0.107c1.389-0.07,1.993,0.523,2.055,2.236c0.142,3.959,0.312,7.918,0.468,11.885	c0.155,3.943,0.279,7.904,0.433,11.855c0.066,1.721-0.445,2.375-1.694,2.449c-0.625,0.035-1.25,0.076-1.875,0.109	c0.074,1.201,0.128,2.393,0.185,3.594c4.356-0.254,8.713-0.408,13.072-0.545c-0.004-1.201-0.008-2.396-0.012-3.598	c-0.242,0.004-0.521,0.014-0.764,0.021c-1.25,0.035-1.793-0.566-1.812-2.279c-0.045-3.969-0.086-7.922-0.137-11.883	c-0.053-3.961-0.094-7.93-0.139-11.891c-0.02-1.721,0.549-2.355,1.957-2.377c1.596-0.023,3.178-0.047,4.793-0.066	c1.389-0.018,1.967,0.609,1.934,2.322c-0.076,3.955-0.139,7.926-0.209,11.889c-0.07,3.957-0.152,7.92-0.227,11.875	c-0.033,1.721-0.586,2.346-1.836,2.35c-0.277,0.002-0.521,0.002-0.799,0.006c0.004,1.203-0.01,2.404-0.023,3.598	c4.377-0.014,8.738,0.035,13.1,0.137c0.066-1.195,0.15-2.391,0.215-3.594c-0.643-0.012-1.25-0.049-1.877-0.061	c-1.25-0.023-1.748-0.652-1.674-2.359c0.174-3.955,0.367-7.906,0.541-11.855c0.174-3.957,0.348-7.922,0.521-11.879	c0.074-1.715,0.689-2.314,2.08-2.293c0.676,0.012,1.373,0.047,2.086,0.08c0.049-1.203,0.131-2.391,0.197-3.6	C108.771,116.582,97.795,116.703,86.877,117.182L86.877,117.182z M54.574,120.645c0.212,1.189,0.389,2.373,0.583,3.549	c0.122-0.018,0.225-0.035,0.346-0.053c1.664-0.246,2.716,1.332,3.489,2.799c2.354,4.473,4.69,8.959,6.906,13.463	c2.233,4.543,4.38,9.104,6.475,13.65c-0.408,2.541-0.782,5.068-1.135,7.609c-0.156,1.119-0.411,4.301-1.781,4.459	c-0.866,0.098-1.082-0.74-1.112-0.975c-0.05-0.385,0.068-0.797,0.18-1.678c0.071-0.557,0.164-0.973,0.055-1.814	c-0.513-3.953-2.562-4.479-3.723-4.316c-1.091,0.154-2.717,1.482-1.896,6.803c0.512,3.316,2.728,6.27,5.818,5.891	c4-0.488,4.653-4.842,5.233-8.689c0.898-5.955,1.852-11.926,2.937-17.859c1.088-5.951,2.32-11.896,3.632-17.85	c0.458-2.08,0.95-4.311,3.602-4.66c-0.091-1.199-0.164-2.4-0.237-3.602c-3.487,0.271-6.957,0.564-10.408,0.865	c0.107,1.199,0.233,2.391,0.341,3.584c0.555-0.057,1.109-0.117,1.665-0.162c0.693-0.055,1.833,0.24,1.981,2.035	c0.05,0.619,0.045,1.555-0.1,2.281c-1.069,5.35-2.054,10.697-2.968,16.047c-0.086,0.018-0.208,0.02-0.295,0.029	c-2.317-5.395-4.712-10.785-7.179-16.164c-0.206-0.451-0.389-0.9-0.479-1.598c-0.13-1.004,0.422-1.701,1.289-1.797	c0.45-0.051,0.901-0.102,1.37-0.148c-0.125-1.191-0.267-2.385-0.393-3.582C64,119.309,59.27,119.957,54.574,120.645L54.574,120.645	z M13.804,111.766c0.315,1.158,0.648,2.314,0.981,3.457c0.865-0.225,1.729-0.449,2.594-0.682c1.694-0.455,2.958-0.229,3.655,2.379	c1.663,6.213,3.328,12.436,4.998,18.643c1.673,6.217,3.37,12.43,5.034,18.645c0.696,2.6-0.115,3.354-1.604,3.68	c-0.744,0.162-1.505,0.336-2.25,0.496c0.333,1.15,0.666,2.307,0.998,3.465c5.538-1.221,11.128-2.42,16.789-3.527	c-0.264-1.189-0.527-2.377-0.792-3.561c-0.779,0.154-1.557,0.314-2.32,0.467c-1.521,0.307-2.627-0.037-3.26-2.68	c-0.753-3.141-1.508-6.295-2.25-9.434c-0.741-3.137-1.517-6.301-2.267-9.451c7.866-2.223,9.251,4.307,12.23,12.943	c1.614,4.68,4.349,12.281,9.06,11.496c2.39-0.4,6.45-2.719,5.009-16.549c-0.866,0.125-1.698,0.248-2.529,0.363	c0.631,4.322,0.009,7.621-1.253,7.82c-1.527,0.244-2.59-3.053-3.506-5.814c-1.761-5.309-4.712-13.16-13.282-12.508	c-0.037-0.115-0.057-0.246-0.076-0.377c2.437-1.703,3.487-4.807,3.327-9.439c-0.192-5.58-1.84-12.799,1.704-13.848	c0.051-0.014,0.173-0.031,0.243-0.043c0.294-0.041,0.639,0.129,0.743,0.74c0.128,0.764-0.25,1.555-0.429,2.295	c-0.161,0.662-0.206,1.461-0.065,2.234c0.416,2.287,1.871,4.924,4.819,4.412c2.108-0.367,4.004-2.898,3.275-7.445	c-0.791-4.932-4.341-7.725-8.045-7.039c-7.169,1.326-5.701,11.336-5.291,16.318c0.781,9.518-2.217,10.398-5.833,11.166	c-0.278,0.059-0.571,0.127-0.848,0.186c-1.256-5.266-2.513-10.531-3.785-15.797c-0.638-2.641,0.391-3.426,2.14-3.82	c0.898-0.203,1.783-0.404,2.7-0.605c-0.265-1.182-0.528-2.371-0.758-3.555C26.929,108.318,20.323,110.016,13.804,111.766	L13.804,111.766z"/></g></svg>