<?xml version="1.0" encoding="iso-8859-1"?><!-- Generator: Adobe Illustrator 16.0.0, SVG Export Plug-In . SVG Version: 6.00 Build 0) --><!DOCTYPE svg PUBLIC "-//W3C//DTD SVG 1.1//EN" "http://www.w3.org/Graphics/SVG/1.1/DTD/svg11.dtd"><svg version="1.1" id="Layer_1" xmlns="http://www.w3.org/2000/svg" xmlns:xlink="http://www.w3.org/1999/xlink" x="0px" y="0px" width="192.756px" height="192.756px" viewBox="0 0 192.756 192.756" style="enable-background:new 0 0 192.756 192.756;" xml:space="preserve"><g><polygon style="fill-rule:evenodd;clip-rule:evenodd;fill:#FFFFFF;" points="0,0 192.756,0 192.756,192.756 0,192.756 0,0	"/><path style="fill-rule:evenodd;clip-rule:evenodd;fill:#CC2229;" d="M2.834,79.637h10.954l0.041,2.535c0,0,3.956-2.899,8.772-2.884	s8.375,2.923,9.689,4.27c0,0,3.739-4.338,9.927-4.338c6.188,0,12.71,4.181,12.71,12.208s0,15.971,0,15.971h5.77v5.436H43.64v-5.436	h5.352v-14.03c0,0,0.502-8.463-6.94-8.463c-7.442,0-7.274,8.111-7.274,8.111v14.382h5.352v5.436H23.321v-5.436h5.519V93.017	c0,0,0.417-8.111-6.94-8.111c0,0-7.944,0-7.944,7.944s0,14.549,0,14.549h5.687v5.436H2.834v-5.436h5.101V84.905H2.834v-4.85V79.637	L2.834,79.637z"/><polygon style="fill-rule:evenodd;clip-rule:evenodd;fill:#CC2229;" points="98.074,84.905 98.074,79.637 114.213,79.637	114.213,84.905 109.279,84.905 115.213,91.793 121.152,84.905 116.303,84.905 116.303,79.637 133.111,79.637 133.111,84.905	129.098,84.905 119.08,96.164 128.93,107.398 132.859,107.398 132.859,112.834 116.137,112.834 116.137,107.398 120.902,107.398	115.168,100.707 109.195,107.398 114.129,107.398 114.129,112.834 97.74,112.834 97.74,107.398 101.42,107.398 111.369,96.361	101.168,84.905 98.074,84.905	"/><polygon style="fill-rule:evenodd;clip-rule:evenodd;fill:#CC2229;" points="134.949,84.905 134.949,79.637 150.838,79.637	150.838,84.905 145.652,84.905 145.652,107.398 150.502,107.398 150.502,112.834 134.783,112.834 134.783,107.398 139.047,107.398	139.047,84.905 134.949,84.905	"/><path style="fill-rule:evenodd;clip-rule:evenodd;fill:#CC2229;" d="M85.505,109.873c-2.934,2.332-6.647,3.725-10.686,3.725	c-9.489,0-17.181-7.691-17.181-17.18c0-9.489,7.692-17.181,17.181-17.181c4.135,0,7.929,1.461,10.894,3.896v-3.495h10.354v5.268	h-4.097v22.493h3.93v5.436H85.508v-2.449L85.505,109.873L85.505,109.873z M74.82,84.983c-6.27,0-11.353,5.083-11.353,11.352	c0,6.271,5.083,11.353,11.353,11.353s11.352-5.082,11.352-11.353C86.171,90.066,81.089,84.983,74.82,84.983L74.82,84.983z"/><path style="fill-rule:evenodd;clip-rule:evenodd;fill:#CC2229;" d="M171.812,114.486c10.002,0,18.109-8.107,18.109-18.107	c0-10.001-8.107-18.108-18.109-18.108c-10,0-18.107,8.107-18.107,18.108C153.705,106.379,161.812,114.486,171.812,114.486	L171.812,114.486z"/><path style="fill-rule:evenodd;clip-rule:evenodd;fill:#FFFFFF;" d="M173.824,96.441c0.303,0.072,0.619,0,0.871-0.121v2.531	c-0.678,0.363-0.594-0.459-0.836-0.75c-0.58-1.188-1.791-1.854-3.088-1.829c-1.514-0.062-2.787,1.149-3.393,2.435	c-0.994,2.266-0.871,5.463,0.631,7.451c0.885,1.076,2.229,1.549,3.549,1.27c0.387-0.107,0.775-0.217,1.104-0.459l-0.025-3.053	c-0.072-0.377-0.484-0.68-0.848-0.764l-0.314-0.023v-0.521l4.385,0.025v0.52c-0.461-0.012-0.873,0.207-1.104,0.617	c-0.158,1.055-0.061,2.266-0.084,3.344c-2.205,1.078-5.621,1.406-7.703-0.182c-2.205-1.623-2.908-4.312-2.242-6.916	c0.484-2.072,2.592-3.828,4.627-4.216C170.928,95.448,172.479,95.884,173.824,96.441L173.824,96.441z"/><path style="fill-rule:evenodd;clip-rule:evenodd;fill:#FFFFFF;" d="M181.008,96.15c0.945,0.025,1.805,0.315,2.41,1.078	c0.533,0.752,0.631,1.854,0.242,2.701c-0.4,0.801-1.236,1.271-2.01,1.516c1.004,0.168,1.998,0.545,2.494,1.562	c0.51,0.955,0.461,2.361-0.109,3.258c-0.896,1.248-2.361,1.525-3.863,1.49l-4.312-0.061v-0.473c0.387-0.012,0.787-0.133,0.969-0.52	l0.084-0.23l-0.035-9.279c-0.133-0.352-0.51-0.631-0.896-0.631h-0.086v-0.436L181.008,96.15L181.008,96.15z M179.057,96.756v4.398	c0.969,0.072,1.938-0.012,2.471-0.85c0.535-0.762,0.402-1.949,0-2.725C181.008,96.695,180.014,96.732,179.057,96.756	L179.057,96.756z M179.057,101.844v5.27c1.15,0.098,2.254-0.156,2.822-1.199c0.484-0.896,0.51-2.301-0.145-3.137	C181.094,101.93,180.1,101.797,179.057,101.844L179.057,101.844z"/></g></svg>