<?xml version="1.0" encoding="iso-8859-1"?><!-- Generator: Adobe Illustrator 16.0.0, SVG Export Plug-In . SVG Version: 6.00 Build 0) --><!DOCTYPE svg PUBLIC "-//W3C//DTD SVG 1.1//EN" "http://www.w3.org/Graphics/SVG/1.1/DTD/svg11.dtd"><svg version="1.1" id="Layer_1" xmlns="http://www.w3.org/2000/svg" xmlns:xlink="http://www.w3.org/1999/xlink" x="0px" y="0px" width="192.756px" height="192.756px" viewBox="0 0 192.756 192.756" style="enable-background:new 0 0 192.756 192.756;" xml:space="preserve"><g><polygon style="fill-rule:evenodd;clip-rule:evenodd;fill:#FFFFFF;" points="0,0 192.756,0 192.756,192.756 0,192.756 0,0	"/><polygon style="fill-rule:evenodd;clip-rule:evenodd;fill:#39393C;" points="125.717,96.875 125.717,95.599 125.717,94.606	125.859,93.473 126.143,92.48 126.426,91.488 126.709,90.638 126.992,89.788 127.418,88.937 127.842,88.229 128.41,87.52	128.834,86.811 129.402,86.244 130.111,85.677 130.678,85.11 131.387,84.543 132.094,84.118 132.803,83.693 133.512,83.268	134.221,82.984 135.07,82.559 135.779,82.276 136.631,81.992 137.48,81.851 138.33,81.567 139.182,81.425 140.031,81.284	140.883,81.142 141.732,81.142 142.582,81 143.434,81 144.283,80.858 145.701,80.858 146.41,81 146.977,81 147.686,81 148.252,81	148.961,81 149.527,81.142 150.094,81.142 150.803,81.284 151.371,81.284 151.938,81.425 152.646,81.425 153.213,81.567	153.779,81.708 154.488,81.851 155.055,81.992 155.055,88.37 154.631,88.229 154.205,88.087 153.779,87.945 153.354,87.803	152.787,87.662 152.221,87.52 151.654,87.378 150.945,87.095 150.236,87.095 149.67,86.953 148.961,86.811 148.111,86.669	147.402,86.528 146.693,86.528 145.842,86.528 145.135,86.386 143.574,86.528 142.158,86.528 140.74,86.811 139.605,87.095	138.473,87.378 137.48,87.803 136.488,88.37 135.639,88.937 134.93,89.646 134.363,90.354 133.795,91.205 133.371,92.197	133.086,93.189 132.803,94.323 132.662,95.457 132.662,96.875 132.662,97.867 132.803,98.859 133.086,99.852 133.371,100.701	133.795,101.551 134.363,102.402 135.07,103.111 135.779,103.818 136.631,104.387 137.623,104.811 138.615,105.236	139.748,105.662 140.883,105.945 142.158,106.229 143.574,106.229 145.135,106.371 145.842,106.371 146.693,106.229	147.402,106.229 148.252,106.229 148.961,106.086 149.811,105.945 150.52,105.803 151.229,105.662 151.938,105.52 152.504,105.379	153.213,105.236 153.779,105.094 154.346,104.953 154.771,104.811 155.338,104.67 155.764,104.527 155.764,110.764	155.055,110.906 154.488,110.906 153.779,111.047 153.213,111.189 152.504,111.33 151.795,111.473 151.229,111.473 150.52,111.615	149.811,111.615 149.102,111.756 148.395,111.756 147.826,111.756 147.119,111.898 146.41,111.898 145.701,111.898	145.135,111.898 144.143,111.898 143.291,111.898 142.441,111.756 141.59,111.615 140.598,111.473 139.748,111.33 138.047,111.047	137.197,110.764 136.346,110.48 135.496,110.197 134.787,109.914 133.938,109.488 133.229,109.062 132.52,108.779 131.811,108.213	131.102,107.787 130.535,107.221 129.826,106.795 129.26,106.229 128.834,105.52 128.268,104.953 127.842,104.244 127.418,103.535	126.992,102.826 126.709,102.119 126.283,101.268 126.143,100.418 125.859,99.566 125.717,98.717 125.717,97.725 125.717,96.875	"/><polygon style="fill-rule:evenodd;clip-rule:evenodd;fill:#39393C;" points="174.615,81.284 176.457,81.425 178.158,81.567	179.574,81.708 180.992,81.992 182.127,82.417 183.119,82.843 184.111,83.41 184.818,84.118 185.527,84.685 186.094,85.394	186.52,86.244 186.803,87.095 187.086,88.087 187.229,89.079 187.371,90.071 187.371,91.063 187.371,91.914 187.229,92.622	187.086,93.473 186.803,94.181 186.52,94.89 186.094,95.599 185.67,96.166 185.102,96.875 184.535,97.441 183.826,97.867	182.977,98.434 182.268,98.859 181.275,99.143 180.283,99.426 179.291,99.709 178.158,99.852 177.449,99.852 177.449,99.852	177.59,99.852 177.732,99.852 177.875,99.992 178.016,99.992 178.299,100.135 178.441,100.275 178.725,100.559 189.922,111.473	181.275,111.473 165.686,95.457 173.338,95.457 174.615,95.457 175.748,95.315 176.598,95.173 177.449,94.89 178.158,94.606	178.725,94.323 179.15,93.898 179.574,93.614 180,93.189 180.143,92.764 180.283,92.339 180.426,92.055 180.566,91.63	180.566,91.347 180.566,91.063 180.566,90.921 180.566,90.071 180.566,89.646 180.566,89.221 180.426,88.795 180.143,88.512	180,88.087 179.717,87.803 179.291,87.52 178.867,87.378 178.441,87.095 177.875,86.953 177.166,86.811 176.457,86.669	175.605,86.669 174.615,86.528 165.686,86.528 165.686,111.473 159.023,111.473 159.023,81.284 174.615,81.284	"/><polygon style="fill-rule:evenodd;clip-rule:evenodd;fill:#39393C;" points="116.787,99.709 116.787,99.709 116.787,99.426	116.646,99.283 116.646,98.859 116.504,98.574 116.504,98.15 116.363,97.725 116.363,97.299 116.363,81.284 122.74,81.284	122.74,112.182 102.33,95.173 101.906,94.748 101.623,94.465 101.197,94.181 101.055,93.756 100.771,93.614 100.631,93.331	100.631,93.189 100.631,93.189 100.631,93.189 100.631,93.331 100.631,93.614 100.771,93.898 100.771,94.181 100.771,94.606	100.914,94.89 100.914,95.315 100.914,111.473 94.536,111.473 94.536,80.717 114.803,97.441 115.229,97.725 115.512,98.15	115.938,98.574 116.221,98.859 116.363,99.283 116.646,99.426 116.787,99.709 116.787,99.709	"/><polygon style="fill-rule:evenodd;clip-rule:evenodd;fill:#0077A6;" points="52.583,80.858 52.299,81.142 52.016,81.284	51.59,81.425 51.307,81.708 50.882,81.992 50.457,82.134 50.173,82.417 49.748,82.701 49.464,82.984 49.04,83.41 48.473,83.693	48.047,84.118 47.622,84.543 47.197,84.969 46.772,85.394 46.205,85.96 34.016,98.717 33.449,99.426 33.024,99.852 32.457,100.418	32.032,100.842 31.464,101.268 31.04,101.551 30.756,101.834 30.331,102.119 29.906,102.402 29.622,102.543 29.338,102.826	29.055,102.969 28.772,103.111 28.488,103.252 28.205,103.252 28.063,103.395 21.827,97.441 21.968,97.299 22.252,97.016	22.536,96.732 22.819,96.307 23.386,95.882 23.811,95.315 24.378,94.748 24.945,94.04 25.654,93.473 26.221,92.622 26.929,91.914	27.638,91.205 28.488,90.354 29.197,89.646 29.906,88.795 30.756,87.945 31.464,87.095 32.173,86.386 33.024,85.536 33.59,84.827	34.441,84.118 35.008,83.41 35.575,82.701 36.142,82.134 36.708,81.567 37.276,81 37.701,80.575 37.984,80.15 38.268,79.866	38.551,79.725 38.551,79.583 38.693,79.441 39.118,79.016 39.543,78.732 40.252,77.882 40.677,77.457 40.96,77.173 41.244,76.89	41.528,76.606 41.953,76.323 42.236,76.04 42.52,75.756 42.945,75.331 43.37,75.047 43.654,74.906 43.937,74.622 44.221,74.48	44.929,73.914 45.638,73.488 46.347,72.921 47.197,72.496 48.047,72.071 48.898,71.646 49.748,71.362 50.74,70.937 51.732,70.654	52.583,70.37 53.716,70.087 54.708,69.945 55.842,69.803 56.977,69.662 58.11,69.52 59.386,69.52 60.803,69.52 62.079,69.662	63.496,69.803 64.772,70.087 66.047,70.37 67.464,70.795 68.599,71.221 69.874,71.646 71.008,72.213 72.284,72.78 73.417,73.488	74.551,74.055 75.543,74.906 76.536,75.614 77.528,76.465 78.52,77.315 79.37,78.307 80.22,79.158 80.929,80.15 81.78,81.284	82.488,82.276 83.055,83.41 83.764,84.543 84.331,85.677 84.756,86.811 85.181,88.087 85.464,89.362 85.748,90.496 86.032,91.772	86.173,93.047 86.315,94.323 86.315,95.599 86.315,97.299 86.173,98.859 86.032,100.275 85.748,101.834 85.464,103.252	85.04,104.67 84.614,105.945 84.047,107.221 83.48,108.496 82.914,109.771 82.205,110.906 81.496,112.039 80.646,113.031	79.795,114.023 78.945,115.016 78.094,115.867 77.103,116.717 76.11,117.566 75.118,118.275 74.126,118.984 72.992,119.693	72,120.26 70.866,120.826 69.732,121.252 68.599,121.678 67.464,122.104 66.189,122.387 65.055,122.67 63.921,122.811	62.788,122.953 61.654,123.094 60.52,123.094 59.103,123.094 58.394,123.094 57.685,123.094 57.118,122.953 56.551,122.953	55.842,122.811 55.417,122.811 54.708,122.67 54.284,122.527 53.716,122.387 52.583,122.244 52.158,122.104 51.732,121.961	51.307,121.818 50.882,121.678 50.457,121.535 50.032,121.395 49.606,121.111 49.323,120.969 48.898,120.826 48.614,120.686	48.331,120.543 48.047,120.402 47.622,120.26 47.338,120.119 47.055,119.977 46.914,119.834 46.63,119.693 46.347,119.551	46.063,119.41 46.347,119.268 46.63,119.127 46.914,118.842 47.197,118.701 47.48,118.418 47.764,118.135 48.047,117.992	48.331,117.709 48.614,117.426 49.04,117.143 49.323,116.859 49.748,116.434 50.457,115.725 50.882,115.299 51.307,114.875	53.716,112.182 53.858,112.182 54,112.322 54.284,112.322 54.567,112.465 54.851,112.465 55.134,112.607 55.559,112.748	55.984,112.748 56.41,112.891 56.834,112.891 57.402,113.031 57.827,113.031 58.394,113.174 58.96,113.174 60.094,113.174	60.945,113.174 61.654,113.031 62.362,112.891 63.212,112.748 63.921,112.607 64.63,112.465 65.338,112.182 66.047,111.898	66.756,111.615 67.464,111.189 68.173,110.764 68.882,110.338 69.59,109.914 70.158,109.488 70.725,108.922 71.292,108.496	72,107.787 72.425,107.221 72.992,106.654 73.559,105.945 73.984,105.236 74.41,104.527 74.834,103.818 75.118,103.111	75.402,102.26 75.685,101.41 75.969,100.559 76.11,99.709 76.252,98.859 76.394,97.867 76.394,97.016 76.394,96.023 76.394,95.032	76.252,94.181 76.11,93.331 75.969,92.48 75.685,91.63 75.543,90.78 75.118,89.929 74.834,89.221 74.551,88.512 74.126,87.803	73.701,87.095 73.134,86.386 72.708,85.819 72.142,85.11 71.716,84.543 71.008,83.977 70.441,83.551 69.874,82.984 69.166,82.559	68.599,82.134 67.89,81.708 67.181,81.284 66.472,81 65.764,80.575 65.055,80.292 64.347,80.15 63.496,79.866 62.788,79.725	61.937,79.583 61.229,79.583 60.378,79.441 59.669,79.441 59.103,79.441 58.677,79.441 58.11,79.441 57.685,79.583 57.118,79.583	56.693,79.725 56.126,79.725 55.701,79.866 55.276,79.866 54.851,80.008 54.425,80.15 54,80.292 53.716,80.433 53.292,80.575	53.008,80.717 52.583,80.858	"/><polygon style="fill-rule:evenodd;clip-rule:evenodd;fill:#0077A6;" points="29.622,113.314 30.047,113.314 30.614,113.314	31.04,113.314 31.606,113.174 32.032,113.174 32.599,113.031 33.024,113.031 33.449,112.891 33.874,112.748 34.299,112.748	34.725,112.607 35.15,112.465 35.575,112.322 35.858,112.182 36.284,112.039 36.567,111.898 36.851,111.756 37.276,111.473	37.559,111.33 37.984,111.047 38.268,110.764 38.693,110.623 39.118,110.338 39.402,110.055 39.827,109.771 40.252,109.348	40.677,109.062 41.103,108.639 41.528,108.213 42.094,107.787 42.52,107.363 42.945,106.938 55.134,94.04 55.701,93.473	56.268,92.906 56.693,92.339 57.26,91.914 57.685,91.63 58.11,91.205 58.536,90.921 58.819,90.638 59.244,90.354 59.528,90.071	59.953,89.929 60.236,89.788 60.52,89.646 60.662,89.504 60.945,89.504 61.229,89.362 67.464,95.315 67.323,95.457 67.04,95.74	66.756,96.023 66.331,96.449 65.906,97.016 65.338,97.441 64.772,98.008 64.205,98.717 63.638,99.426 62.929,100.135	62.22,100.842 61.512,101.551 60.803,102.402 59.953,103.252 59.244,103.961 58.536,104.811 57.685,105.662 56.977,106.371	56.268,107.221 55.559,107.93 54.851,108.639 54.284,109.348 53.575,110.055 53.008,110.623 52.441,111.189 52.016,111.756	51.59,112.182 51.307,112.607 50.882,112.891 50.74,113.031 50.599,113.174 50.599,113.314 50.173,113.74 49.748,114.166	49.323,114.59 49.04,114.875 48.614,115.299 48.189,115.582 47.906,116.008 47.622,116.291 47.338,116.434 47.055,116.859	46.63,117.143 46.205,117.426 45.921,117.709 45.638,117.992 45.212,118.135 44.929,118.418 44.362,118.842 43.512,119.41	42.803,119.834 41.953,120.26 41.244,120.686 40.252,121.111 39.402,121.395 38.551,121.818 37.559,122.104 36.567,122.387	35.575,122.67 34.441,122.811 33.307,122.953 32.173,123.094 31.04,123.236 29.764,123.236 28.488,123.236 27.071,123.094	25.654,122.953 24.378,122.67 23.103,122.387 21.827,121.961 20.551,121.535 19.276,121.111 18.142,120.543 17.008,119.977	15.874,119.41 14.74,118.701 13.606,117.852 12.614,117.143 11.622,116.291 10.772,115.441 9.78,114.449 8.929,113.457	8.221,112.465 7.37,111.473 6.662,110.48 6.094,109.348 5.528,108.213 4.96,107.078 4.536,105.945 4.11,104.67 3.685,103.395	3.402,102.26 3.118,100.984 2.977,99.709 2.834,98.434 2.834,97.158 2.834,95.457 2.977,93.898 3.118,92.339 3.402,90.921	3.827,89.504 4.11,88.087 4.677,86.811 5.103,85.536 5.669,84.26 6.378,82.984 7.086,81.851 7.795,80.717 8.504,79.725	9.354,78.732 10.205,77.74 11.197,76.89 12.047,76.04 13.04,75.189 14.032,74.48 15.166,73.772 16.158,73.063 17.292,72.496	18.425,72.071 19.559,71.504 20.693,71.079 21.827,70.654 22.96,70.37 24.094,70.087 25.229,69.945 26.362,69.803 27.638,69.662	28.772,69.662 30.189,69.662 30.756,69.662 31.464,69.662 32.032,69.803 32.74,69.803 33.307,69.945 33.874,69.945 34.441,70.087	35.008,70.229 35.575,70.37 36,70.37 36.567,70.654 36.992,70.795 37.559,70.937 37.984,71.079 38.41,71.221 38.834,71.362	39.118,71.504 39.543,71.646 39.968,71.788 40.252,71.929 40.536,72.071 40.96,72.213 41.244,72.354 41.528,72.496 41.811,72.638	42.094,72.78 42.378,72.921 42.662,73.063 42.803,73.205 43.086,73.347 42.803,73.488 42.52,73.63 42.236,73.914 41.953,74.055	41.811,74.339 41.386,74.48 41.103,74.764 40.819,75.047 40.536,75.331 40.252,75.614 39.827,75.898 39.543,76.323 39.118,76.606	38.834,77.032 38.41,77.457 37.984,77.882 35.433,80.575 35.292,80.575 35.15,80.433 34.866,80.433 34.725,80.292 34.441,80.292	34.016,80.15 33.59,80.008 33.307,80.008 32.882,79.866 32.315,79.866 31.89,79.725 31.323,79.725 30.756,79.583 30.189,79.583	29.055,79.583 28.347,79.583 27.496,79.725 26.788,79.866 26.079,80.008 25.229,80.15 24.52,80.292 23.811,80.575 23.103,80.858	22.394,81.284 21.685,81.567 20.977,81.992 20.268,82.417 19.701,82.843 18.992,83.268 18.425,83.835 17.858,84.402 17.292,84.827	16.725,85.536 16.158,86.103 15.732,86.811 15.166,87.52 14.74,88.229 14.457,88.937 14.032,89.646 13.748,90.496 13.464,91.347	13.181,92.197 13.04,93.047 12.898,93.898 12.756,94.89 12.756,95.882 12.756,96.875 12.756,97.725 12.898,98.574 13.04,99.426	13.181,100.275 13.464,101.127 13.748,101.977 14.032,102.686 14.315,103.535 14.74,104.244 15.024,104.953 15.59,105.662	16.016,106.371 16.441,106.938 17.008,107.646 17.575,108.213 18.142,108.779 18.708,109.348 19.417,109.771 19.984,110.197	20.693,110.623 21.26,111.047 21.968,111.473 22.677,111.756 23.386,112.182 24.094,112.322 24.945,112.607 25.654,112.748	26.504,113.031 27.212,113.174 28.063,113.174 28.772,113.314 29.622,113.314	"/><polygon style="fill-rule:evenodd;clip-rule:evenodd;fill:#0077A6;" points="53.716,82.134 59.953,87.945 59.811,88.087	59.669,88.087 59.528,88.229 59.386,88.229 59.244,88.37 59.103,88.37 58.96,88.512 58.677,88.654 58.536,88.795 58.394,88.795	58.252,88.937 58.11,89.079 57.827,89.221 57.685,89.362 57.402,89.504 57.26,89.646 56.977,89.929 56.834,90.071 56.551,90.213	56.268,90.496 55.984,90.78 55.701,90.921 55.417,91.205 55.134,91.488 54.851,91.772 54.567,92.055 54,92.764 41.811,105.662	41.386,106.086 40.96,106.512 40.536,106.938 40.252,107.221 39.827,107.646 39.402,107.93 38.977,108.213 38.693,108.639	38.268,108.922 37.842,109.205 37.417,109.488 37.134,109.631 36.708,109.914 36.284,110.197 36,110.338 35.575,110.48	29.338,104.67 29.48,104.67 29.622,104.527 29.764,104.527 29.906,104.387 30.047,104.387 30.189,104.244 30.331,104.104	30.473,104.104 30.756,103.961 30.898,103.818 31.04,103.678 31.323,103.535 31.464,103.395 31.89,103.111 32.032,102.969	32.315,102.826 32.599,102.543 32.74,102.402 33.024,102.119 33.307,101.977 33.59,101.693 33.874,101.41 34.158,101.127	34.441,100.842 34.725,100.559 35.008,100.275 35.292,99.852 47.48,87.095 47.906,86.669 48.614,85.819 49.181,85.394	49.464,85.11 49.89,84.685 50.315,84.402 50.599,84.118 51.024,83.835 51.449,83.551 51.874,83.268 52.158,82.984 52.583,82.701	53.008,82.559 53.292,82.276 53.716,82.134	"/></g></svg>