<?xml version="1.0" encoding="iso-8859-1"?><!-- Generator: Adobe Illustrator 16.0.0, SVG Export Plug-In . SVG Version: 6.00 Build 0) --><!DOCTYPE svg PUBLIC "-//W3C//DTD SVG 1.1//EN" "http://www.w3.org/Graphics/SVG/1.1/DTD/svg11.dtd"><svg version="1.1" id="Layer_1" xmlns="http://www.w3.org/2000/svg" xmlns:xlink="http://www.w3.org/1999/xlink" x="0px" y="0px" width="192.756px" height="192.756px" viewBox="0 0 192.756 192.756" style="enable-background:new 0 0 192.756 192.756;" xml:space="preserve"><g><polygon style="fill-rule:evenodd;clip-rule:evenodd;fill:#FFFFFF;" points="0,0 192.756,0 192.756,192.756 0,192.756 0,0	"/><path style="fill-rule:evenodd;clip-rule:evenodd;" d="M156.271,133.787h-11.936c0,6.986-3.348,11.207-10.188,12.809l-1.746,7.568	c3.639,6.26,7.568,10.918,11.934,13.828c3.93,2.619,9.461,4.658,17.029,5.822l2.912-10.625c-6.551-1.748-10.771-3.203-12.955-4.223	c-2.91-1.455-5.094-3.348-6.258-5.967c3.201-1.311,6.113-3.639,8.295-7.277C155.543,142.082,156.416,137.863,156.271,133.787	L156.271,133.787z M118.865,134.223h11.354v38.572h-11.354V134.223L118.865,134.223z M106.785,141.5	c-0.582-2.619-1.455-4.512-2.912-5.822c-1.309-0.873-4.221-1.455-8.732-1.455c-4.948,0-8.005,0.582-9.315,1.455	c-1.892,1.748-2.911,3.641-2.911,5.822c0,3.203,2.038,5.822,5.822,8.588c-4.512,1.893-7.714,3.348-8.878,4.514	c-1.31,1.309-2.038,2.766-2.183,4.947c-0.292,2.186-0.292,3.785,0.437,5.533c1.747,4.074,6.986,6.258,16.447,6.84	c5.094,0,9.023-1.02,11.498-3.201l3.348,3.639l6.26-7.277l-10.189-8.443l-6.258,6.695c-2.621,2.184-5.385,2.475-8.443,1.02	c-2.183-1.164-2.474-3.203-1.31-6.113c1.31-2.184,2.911-3.639,5.676-4.367l7.715-4.512	C105.475,147.178,106.785,144.412,106.785,141.5L106.785,141.5z M172.428,165.082c-0.873-0.729-1.893-1.166-3.057-1.166	c-1.311,0-2.184,0.438-2.912,1.166c-1.018,1.018-1.455,1.891-1.455,3.201c0,3.057,1.455,4.512,4.367,4.512	c2.91,0,4.365-1.455,4.365-4.512C173.736,166.973,173.154,166.1,172.428,165.082L172.428,165.082z M53.805,134.223H19.601v38.572	h11.935V138.59h13.1c2.183,0,3.929,0.582,5.385,1.311c1.892,0.873,2.911,2.182,2.619,3.639c0,3.057-2.619,4.803-8.004,5.094h-7.569	l-2.62,6.695c3.931,6.551,7.569,10.918,11.208,13.102c3.639,2.182,9.606,4.221,18.194,5.385l2.183-11.354	c-8.587-0.582-14.846-3.201-18.921-8.297h6.986c4.075-0.291,7.277-1.455,9.46-3.348c2.183-2.037,3.203-4.221,2.911-6.551	c0-2.475-1.019-4.658-3.202-6.402C60.937,135.678,57.735,134.514,53.805,134.223L53.805,134.223z M91.211,142.229	c-0.728-2.621,0.437-3.785,3.639-3.639c2.621-0.146,3.929,1.018,3.347,3.639c-0.436,2.766-1.601,4.221-3.347,4.367	C92.958,146.449,91.647,144.994,91.211,142.229L91.211,142.229z M74.91,165.082c-0.728-0.729-1.601-1.166-2.911-1.166	c-3.056,0-4.512,1.457-4.512,4.367c0,3.057,1.456,4.512,4.512,4.512c1.31,0,2.184-0.436,2.911-1.455	c1.019-0.729,1.456-1.893,1.456-3.057C76.365,166.973,75.929,166.1,74.91,165.082L74.91,165.082z"/><path style="fill-rule:evenodd;clip-rule:evenodd;fill:#FFFFFF;" d="M169.371,73.817l-72.047,51.236L26.005,72.361h44.829	c8.005-1.601,13.827-5.24,17.757-11.062c3.348-5.094,4.803-10.917,4.075-17.467c-0.437-6.55-2.62-11.936-6.55-16.593	c-4.075-4.803-9.169-7.423-15.282-7.715H19.601v109.167h154.573V19.524h-76.85L169.371,73.817L169.371,73.817z M156.271,133.787	h-11.936c0,6.986-3.348,11.207-10.188,12.809l-1.746,7.568c3.639,6.26,7.568,10.918,11.934,13.828	c3.93,2.619,9.461,4.658,17.029,5.822l2.912-10.625c-6.551-1.748-10.771-3.203-12.955-4.223c-2.91-1.455-5.094-3.348-6.258-5.967	c3.201-1.311,6.113-3.639,8.295-7.277C155.543,142.082,156.416,137.863,156.271,133.787L156.271,133.787z M118.865,134.223h11.354	v38.572h-11.354V134.223L118.865,134.223z M106.785,141.5c-0.582-2.619-1.455-4.512-2.912-5.822	c-1.309-0.873-4.221-1.455-8.732-1.455c-4.948,0-8.005,0.582-9.315,1.455c-1.892,1.748-2.911,3.641-2.911,5.822	c0,3.203,2.038,5.822,5.822,8.588c-4.512,1.893-7.714,3.348-8.878,4.514c-1.31,1.309-2.038,2.766-2.183,4.947	c-0.292,2.186-0.292,3.785,0.437,5.533c1.747,4.074,6.986,6.258,16.447,6.84c5.094,0,9.023-1.02,11.498-3.201l3.348,3.639	l6.26-7.277l-10.189-8.443l-6.258,6.695c-2.621,2.184-5.385,2.475-8.443,1.02c-2.183-1.164-2.474-3.203-1.31-6.113	c1.31-2.184,2.911-3.639,5.676-4.367l7.715-4.512C105.475,147.178,106.785,144.412,106.785,141.5L106.785,141.5z M172.428,165.082	c-0.873-0.729-1.893-1.166-3.057-1.166c-1.311,0-2.184,0.438-2.912,1.166c-1.018,1.018-1.455,1.891-1.455,3.201	c0,3.057,1.455,4.512,4.367,4.512c2.91,0,4.365-1.455,4.365-4.512C173.736,166.973,173.154,166.1,172.428,165.082L172.428,165.082z M9.413,182.984h173.931V9.772H9.413V182.984L9.413,182.984z M53.805,134.223H19.601v38.572h11.935V138.59h13.1	c2.183,0,3.929,0.582,5.385,1.311c1.892,0.873,2.911,2.182,2.619,3.639c0,3.057-2.619,4.803-8.004,5.094h-7.569l-2.62,6.695	c3.931,6.551,7.569,10.918,11.208,13.102c3.639,2.182,9.606,4.221,18.194,5.385l2.183-11.354	c-8.587-0.582-14.846-3.201-18.921-8.297h6.986c4.075-0.291,7.277-1.455,9.46-3.348c2.183-2.037,3.203-4.221,2.911-6.551	c0-2.475-1.019-4.658-3.202-6.402C60.937,135.678,57.735,134.514,53.805,134.223L53.805,134.223z M91.211,142.229	c-0.728-2.621,0.437-3.785,3.639-3.639c2.621-0.146,3.929,1.018,3.347,3.639c-0.436,2.766-1.601,4.221-3.347,4.367	C92.958,146.449,91.647,144.994,91.211,142.229L91.211,142.229z M74.91,165.082c-0.728-0.729-1.601-1.166-2.911-1.166	c-3.056,0-4.512,1.457-4.512,4.367c0,3.057,1.456,4.512,4.512,4.512c1.31,0,2.184-0.436,2.911-1.455	c1.019-0.729,1.456-1.893,1.456-3.057C76.365,166.973,75.929,166.1,74.91,165.082L74.91,165.082z"/><path style="fill-rule:evenodd;clip-rule:evenodd;fill:#CC262D;" d="M169.371,73.817l-72.047,51.236L26.005,72.361h44.829	c8.005-1.601,13.827-5.24,17.757-11.062c3.348-5.094,4.803-10.917,4.075-17.467c-0.437-6.55-2.62-11.936-6.55-16.593	c-4.075-4.803-9.169-7.423-15.282-7.715H19.601v109.167h154.573V19.524h-76.85L169.371,73.817L169.371,73.817z"/><path style="fill:none;stroke:#CC262D;stroke-width:0.2424;stroke-linecap:round;stroke-linejoin:round;stroke-miterlimit:2.6131;" d="	M169.371,73.817l-72.047,51.236L26.005,72.361h44.829c8.005-1.601,13.827-5.24,17.757-11.062	c3.348-5.094,4.803-10.917,4.075-17.467c-0.437-6.55-2.62-11.936-6.55-16.593c-4.075-4.803-9.169-7.423-15.282-7.715H19.601	v109.167h154.573V19.524h-76.85L169.371,73.817"/><polygon style="fill:none;stroke:#000000;stroke-width:2.4257;stroke-linecap:round;stroke-linejoin:round;stroke-miterlimit:2.6131;" points="	9.413,182.984 183.344,182.984 183.344,9.772 9.413,9.772 9.413,182.984	"/></g></svg>