<?xml version="1.0" encoding="iso-8859-1"?><!-- Generator: Adobe Illustrator 16.0.0, SVG Export Plug-In . SVG Version: 6.00 Build 0) --><!DOCTYPE svg PUBLIC "-//W3C//DTD SVG 1.1//EN" "http://www.w3.org/Graphics/SVG/1.1/DTD/svg11.dtd"><svg version="1.1" id="Layer_1" xmlns="http://www.w3.org/2000/svg" xmlns:xlink="http://www.w3.org/1999/xlink" x="0px" y="0px" width="192.756px" height="192.756px" viewBox="0 0 192.756 192.756" style="enable-background:new 0 0 192.756 192.756;" xml:space="preserve"><g><polygon style="fill-rule:evenodd;clip-rule:evenodd;fill:#FFFFFF;" points="0,0 192.756,0 192.756,192.756 0,192.756 0,0	"/><polygon style="fill-rule:evenodd;clip-rule:evenodd;fill:#FFFFFF;" points="54.25,30.524 138.033,30.524 138.033,176.217	54.25,176.217 54.25,30.524	"/><path style="fill-rule:evenodd;clip-rule:evenodd;fill:#313232;" d="M131.182,162.457c0.176,0.01,0.328,0.017,0.455,0.017	c0.562,0,0.955-0.146,1.174-0.438c0.221-0.29,0.33-0.895,0.33-1.812v-2.034c0-0.846-0.129-1.396-0.381-1.65	c-0.254-0.256-0.779-0.382-1.578-0.382V162.457L131.182,162.457z"/><path style="fill-rule:evenodd;clip-rule:evenodd;fill:#313232;" d="M137.805,164.442c-0.311,0.723-0.883,1.274-1.715,1.66	c-0.83,0.388-1.916,0.58-3.26,0.58h-1.648v9.534h6.852v-12.504C137.971,163.991,137.895,164.235,137.805,164.442L137.805,164.442z"	/><path style="fill-rule:evenodd;clip-rule:evenodd;fill:#161B21;" d="M54.25,30.524v47.565c0.583-3.083,1.542-8.517,2.629-10.632	c0.844-1.642,3.507-1.724,3.507-1.724c0.992,0.492-0.1,2.022-0.892,3.419c-0.482,0.86-0.699,1.917-0.699,1.917l-0.466-0.884	l0.074-0.57c0.263-2.23-0.715-1.564-0.756-1.04c-0.043,0.523-0.176,0.664,0.554,2.067c0.729,1.403,4.505,6.291,4.505,6.291	c4.716,5.342,10.621,16.481,13.474,20.511c2.852,4.033,6.887,11.07,6.887,11.07c2.345,0.364,7.765,3.609,7.765,3.609	s4.992,2.912,6.169,3.69c0.137,0.09,1.822,1.351,3.053,1.403c0.543,0.024,1.562-2.511,3.025-4.89	c1.852-3.008,4.139-6.011,4.139-6.011s0.426,1.469,0.26,3.554c-0.051,0.666-1.238,1.401-1.416,2.157	c-0.203,0.878,0.609,1.778,0.709,2.555c0.584,4.596,0.344,5.084,1.129,8.551c0.584,2.562,0.658,4.294,0.658,4.294	c-0.098-0.075-0.57,1.061-1.342-0.096c-0.773-1.16-2.992-3.28-3.227-3.55c-0.23-0.27-2.369-3.068-3.15-4.095	c-2.09-2.756-4.225-3.336-4.356-3.377c-1.499-0.441-2.659,0.681-3.427,1.373c-0.952,0.859-1.83,0.036-2.035-0.331	s-1.135-0.466-2.461-0.664c-1.329-0.198-1.715-0.778-1.715-0.778l-1.758-2.761l-0.855-0.11c-1.879-0.065-6.658,2.706-9.429,4.521	c-1.642,1.079-3.159,1.755-3.159,1.755l-1.101-0.23c0,0-0.055-0.948-0.979-2.084c-0.921-1.136-5.349-12.656-7.538-16.309	c-1.843-3.075-6.386-11.164-7.776-13.646v89.17h40.832c-0.081-0.043-0.165-0.082-0.245-0.128c-1.167-0.68-1.94-1.62-2.32-2.821	c-0.38-1.203-0.57-3.011-0.57-5.423v-7.195c0-1.775,0.057-3.106,0.176-3.993c0.116-0.888,0.463-1.742,1.043-2.563	c0.58-0.82,1.382-1.468,2.411-1.939c1.025-0.473,2.206-0.707,3.54-0.707c1.811,0,3.305,0.363,4.482,1.093	c1.18,0.727,1.953,1.636,2.322,2.723s0.557,2.779,0.557,5.075v2.336h-6.158v-4.267c0-1.241-0.066-2.014-0.197-2.322	c-0.131-0.308-0.416-0.461-0.859-0.461c-0.502,0-0.82,0.188-0.955,0.562c-0.135,0.376-0.203,1.187-0.203,2.431v11.429	c0,1.195,0.068,1.976,0.203,2.341c0.135,0.364,0.439,0.546,0.91,0.546c0.453,0,0.75-0.182,0.891-0.548	c0.139-0.365,0.211-1.223,0.211-2.575v-3.092h6.158v0.959c0,2.551-0.174,4.359-0.52,5.426c-0.348,1.068-1.109,2.001-2.293,2.804	c-0.166,0.112-0.34,0.216-0.518,0.312h8.641c-0.914-0.464-1.613-1.044-2.09-1.742c-0.535-0.78-0.85-1.605-0.947-2.474	c-0.1-0.867-0.146-2.691-0.146-5.471v-14.584h6.158v18.475c0,1.074,0.053,1.762,0.164,2.062c0.109,0.299,0.332,0.448,0.666,0.448	c0.381,0,0.627-0.164,0.736-0.495c0.111-0.328,0.166-1.106,0.166-2.336v-18.153h6.158v16.471c0,1.866-0.061,3.178-0.176,3.934	c-0.117,0.758-0.463,1.533-1.035,2.33c-0.459,0.635-1.035,1.146-1.727,1.536h5.309v-24.271h6.191c1.676,0,2.965,0.137,3.863,0.413	c0.9,0.273,1.578,0.67,2.029,1.188c0.453,0.518,0.76,1.146,0.922,1.881c0,0.003,0,0.007,0.002,0.009V30.524H54.25L54.25,30.524z"/><path style="fill-rule:evenodd;clip-rule:evenodd;fill:#FFFFFF;" d="M109.861,86.718c-1.361-1.548-3.504-4.332-4.865-4.763	l-0.32,0.445c0,0-0.457,1.663-1.389,2.12c0,0-0.648,1.93-1.965,2.367c-1.314,0.437-3.498,0.688-4.271-1.027	c-0.773-1.715-0.561-2.385-0.561-2.385s-0.173-1.25-0.943-1.851c-0.772-0.601-3.109-2.558-3.101-4.152c0,0,1.326-0.359,2.537,0.653	c1.211,1.014,1.832,1.078,1.832,1.078l0.472-0.469c0,0,2.025,2.483,4.441,1.722c1.715-0.339,2.309-2.658,2.35-3.461	c0.043-0.803-0.066-1.583-0.967-2.562c-0.9-0.98-1.246-1.803-3.854-1.332c-1.66,0.17-2.088,0.952-2.088,0.952l-0.833,0.603	c0,0-1.244-0.688-2.504,0.138l-1.07,0.002l-3.773-3.495c0,0-4.176-1.442-5.956-3.803c-1.781-2.361-4.695-4.63-6.493-4.917	l-2.184-0.308c0,0-1.298,4.417-1.742,8.944c-0.441,4.528,0.06,9.787,0.06,9.787s1.262,6.899,1.531,7.736	c0.27,0.836,0.644,0.778,0.266-0.837c-0.376-1.616-0.53-3.266-0.584-4.771c-0.057-1.505,0.66-1.851,1.103,0.791	c0.443,2.641,1.048,6.452,2.109,8.046c0,0,1.741,3.162,3.656,4.308c1.918,1.144,4.008,2.979,4.277,3.814	c0.267,0.836,4.414,3.16,11.017,2.803c0,0,3.851,0.215,5.302-3.108c0.002,0,1.002-1.585,2.584-3.415c1.582-1.832,5-5.852,5-5.852	S111.225,88.265,109.861,86.718L109.861,86.718z M92.575,91.63c6.835,2.956,7.804,1.133,7.804,1.133l0.268,0.28	C98.963,97.997,92.575,91.63,92.575,91.63L92.575,91.63z M102.059,92.196c-0.982,0.625-1.037,0.235-1.316-0.122	c-0.279-0.355-1.488-0.813-1.488-0.813c-4.968-1.084-10.741-4.115-10.741-4.115c-0.601-1.025-2.594-2.159-2.594-2.159	c-0.526-2.151,1.283-1.787,1.658-1.285c0.376,0.5,2.517,1.611,3.054,2.168c0.535,0.558,4.348,2.133,8.725,2.828	c4.379,0.694,5.455-2.016,5.455-2.016l2.314,1.246C107.125,87.928,103.043,91.567,102.059,92.196L102.059,92.196z"/><path style="fill-rule:evenodd;clip-rule:evenodd;fill:#FFFFFF;" d="M67.104,50.225c0,0-1.201,1.917-1.878,4.949	c-1.001,4.464-1.189,11.024,2.702,14.761l0.921-0.538c0,0-0.852-2.819,0.302-4.426l0.576-0.805l-0.772-1.156l-2.189-4.77	l-0.502,0.793C66.262,59.034,64.82,54.712,67.104,50.225L67.104,50.225z"/><path style="fill-rule:evenodd;clip-rule:evenodd;fill:#FFFFFF;" d="M104.373,77.853c0,0-0.342,1.215-0.066,1.707	c0.271,0.492,0.791,0.574,0.947,0.231C105.412,79.447,105.008,76.904,104.373,77.853L104.373,77.853z"/><path style="fill-rule:evenodd;clip-rule:evenodd;fill:#FFFFFF;" d="M119.902,60.864c-0.078-0.945,1.207-0.881,1.785-0.012	l-0.146,1.137c0,0-1.057,1.752-0.797,3.625s-1.195,3.795-1.547,4.908c-0.352,1.111-0.748,1.172-0.607,4.02	c0.143,2.845-1.531,6.019-3.248,8.349c0,0,2.9-4.583,2.537-8.348c-0.229-2.41-1.869-3.59-2.279-3.584c0,0-0.715-1.117,1.416-0.801	l0.748,0.262l0.287-0.522c0,0,0.982-0.784,1.17-1.969c0.156-0.968,0.311-1.763,0.393-2.816c0.133-1.649,0.514-2.642,0.764-3.05	C120.135,61.773,119.982,61.808,119.902,60.864L119.902,60.864z"/><path style="fill-rule:evenodd;clip-rule:evenodd;fill:#FFFFFF;" d="M138.762,37.68c-1.229-0.61-1.055,0.637-1.055,0.637	c-0.301,3.799,0.082,2.917-0.711,4.808c-2.416,5.725-9.445,9.625-9.445,9.625l-2.547-0.731c0,0,2.666-14.903,2.59-19.511	c-0.074-4.609-0.926-10.372-1.744-12.955c-0.816-2.586-2.9-6.573-6.111-7.682c-3.211-1.109-5.502,0.031-7.92,0.237	c-2.418,0.205-5.219-3.992-6.6-4.583c-1.381-0.588-5.414,0.657-7.789,1.174c-2.375,0.518-5.625,2.438-8.617,5.121	C85.82,16.5,78.026,27.552,78.026,27.552s-2.122-2.069-2.873-3.072c-0.75-1.003-5.891-2.778-12.053-2.008	c-9.313,1.168-10.218,7.91-10.173,9.338c0.045,1.425,1.144,6.039,2.569,7.498c0.619,0.633-3.539-7.88-0.694-8.273	c6.527-0.903,9.761,6.425,14.808,6.388c6.419-0.051,9.946,0.434,11.766,0.846c0.302,0.069,1.009-0.036,0.633-1.375	c0.337,0.506,1.097,1.919,1.097,1.919c4.132,7.184,9.26,8.881,14.207,10.368c4.947,1.485,15.258,4.711,18.375,5.676	c3.113,0.964,7.738,1.781,12.201,1.428s8.062-3.045,10.357-7.455C140.541,44.422,139.996,38.291,138.762,37.68L138.762,37.68z"/><path style="fill-rule:evenodd;clip-rule:evenodd;fill:#313232;" d="M140.01,38.592c-0.24-0.766-0.572-1.261-0.992-1.469	c-0.826-0.411-1.305-0.19-1.561,0.065c-0.279,0.278-0.354,0.668-0.354,0.966c0,0.049,0.006,0.085,0.01,0.13	c-0.002,0.033-0.141,2.496-0.141,2.496c-0.031,0.932-0.031,0.932-0.52,2.098c-2.088,4.949-7.869,8.551-8.98,9.209	c-0.299-0.085-1.201-0.345-1.789-0.513c0.484-2.739,2.508-14.521,2.508-18.87c0-0.071-0.004-0.139-0.004-0.208	c-0.08-4.906-0.982-10.639-1.773-13.137c-0.955-3.021-3.23-6.948-6.488-8.076c-2.449-0.843-4.424-0.453-6.168-0.11	c-0.686,0.135-1.332,0.263-1.986,0.319c-1.299,0.11-2.92-1.498-4.223-2.788c-0.846-0.838-1.512-1.497-2.104-1.751	c-1.174-0.498-3.414-0.008-6.449,0.739l-1.688,0.401c-2.494,0.543-5.814,2.508-8.881,5.257	c-2.654,2.377-8.834,10.961-10.478,13.271c-0.662-0.662-1.826-1.853-2.329-2.522c-1.04-1.388-6.591-2.99-12.591-2.243	c-10.841,1.36-10.699,9.886-10.694,9.972c0.049,1.568,1.168,6.304,2.748,7.92c0.279,0.288,0.603,0.239,0.794,0.109	c0.448-0.302,0.327-0.635-0.12-1.872c-0.5-1.382-1.83-5.057-1.216-6.125c0.055-0.094,0.133-0.186,0.34-0.214	c3.361-0.466,5.831,1.439,8.219,3.283c2.083,1.608,4.051,3.127,6.515,3.109c6.362-0.051,9.841,0.425,11.638,0.832	c0.305,0.071,0.729,0.026,1.054-0.275c0.162,0.294,0.282,0.516,0.284,0.521c4.371,7.598,10.021,9.295,14.559,10.657	c3.791,1.14,10.645,3.271,15.182,4.685l3.188,0.991c3.922,1.214,8.561,1.757,12.416,1.452c4.564-0.361,8.412-3.123,10.834-7.777	C140.721,45.372,140.67,40.706,140.01,38.592L140.01,38.592z M138.246,48.83c-2.295,4.41-5.895,7.102-10.357,7.455	s-9.088-0.464-12.201-1.428c-3.117-0.964-13.428-4.191-18.375-5.676c-4.946-1.487-10.074-3.184-14.207-10.368	c0,0-0.76-1.413-1.097-1.919c0.376,1.338-0.331,1.444-0.633,1.375c-1.82-0.412-5.347-0.896-11.766-0.846	c-5.047,0.037-8.28-7.292-14.808-6.388c-2.845,0.394,1.313,8.907,0.694,8.273c-1.425-1.458-2.524-6.072-2.569-7.498	c-0.045-1.428,0.86-8.17,10.173-9.338c6.162-0.77,11.303,1.005,12.053,2.008c0.751,1.003,2.873,3.072,2.873,3.072l1.097,1.64	l1.573,2.397c0,0-0.601-1.385-1.267-2.596c-0.525-0.958-1.151-1.797-1.131-1.826c1.403-1.971,7.854-10.963,10.514-13.347	c2.992-2.683,6.242-4.604,8.617-5.121c2.375-0.517,6.408-1.762,7.789-1.174c1.381,0.591,4.182,4.788,6.6,4.583	c2.418-0.206,4.709-1.346,7.92-0.237c3.211,1.109,5.295,5.096,6.111,7.682c0.818,2.583,1.67,8.345,1.744,12.955	c0.076,4.608-2.59,19.511-2.59,19.511l2.547,0.731c0,0,7.029-3.9,9.445-9.625c0.793-1.891,0.41-1.009,0.711-4.808	c0,0-0.174-1.248,1.055-0.637C139.996,38.291,140.541,44.422,138.246,48.83L138.246,48.83z"/><path style="fill-rule:evenodd;clip-rule:evenodd;fill:#FFFFFF;" d="M112.512,123.974l-0.061,0.006l-0.057,0.021	c-0.385,0.131-0.594,0.472-0.73,0.697c0,0-0.01,0.016-0.016,0.02c-0.018-0.004-0.061-0.015-0.061-0.015	c-1.178-0.245-2.195-0.458-3.469-0.194c-1.752,0.275-2.645,1.832-3.361,3.084l-0.203,0.352l-0.014,0.03	c-0.979,2.194-1.48,4.543-1.967,6.813c-0.229,1.064-0.463,2.166-0.748,3.246l-0.004,0.018l-0.004,0.019	c-0.035,0.192-0.086,0.362-0.143,0.521c0.252-1.426,0.658-3.146,1.031-4.708c0.584-2.455,0.854-3.664,0.854-4.314	c0-0.41-0.107-0.598-0.312-0.734c-0.973-0.743-2.615-1.396-3.602-1.168c-0.465,0.107-0.688,0.377-0.793,0.584l0.055-0.088	c-0.666,0.863-1.121,1.671-1.529,2.5c0.02-0.213,0.051-0.415,0.051-0.648c0-0.169-0.006-0.347-0.02-0.535l-0.004-0.034	l-0.008-0.035c-0.215-1.096-1.36-1.569-1.735-1.724l-0.049-0.02l-0.392-0.078c-0.635-0.131-1.356-0.28-1.877,0.104	c-0.175,0.13-0.4,0.38-0.464,0.831c-0.649,3.999-1.56,7.657-2.781,11.172c0.002-0.006-0.232,0.7-0.232,0.7	c-0.142,0.456-0.262,0.84-0.665,1.624c0.167-1.35,0.529-2.788,0.866-4.089c0.235-0.904,0.455-1.761,0.567-2.452l0.011-0.064	l-0.004-0.062c-0.051-0.928-0.872-1.118-1.315-1.22c-0.112-0.026-0.284-0.065-0.333-0.098c-0.384-0.282-0.705-0.644-1.045-1.025	c-0.366-0.409-0.743-0.832-1.238-1.195c-0.906-0.62-1.995-0.682-3.083-0.186c-1.305,0.599-2.145,1.771-2.793,2.841	c-1.797,2.684-3.558,7.653-3.147,12.164c0.073,1.279,0.828,2.477,1.965,3.104c1.072,0.595,2.314,0.577,3.323-0.047	c1.289-0.792,1.881-1.554,2.995-3.326c0.012,0.012,0.045,0.04,0.045,0.04c0.251,0.243,0.566,0.546,0.952,0.705	c0.99,0.436,1.577,0.229,2.257-0.01l0.272-0.093l0.065-0.049c1.218-0.884,1.656-1.591,2.3-2.761c0.194,0.29,0.644,0.871,1.26,1.084	c0.848,0.349,2.02,0.46,2.445-0.412l0.022-0.048l0.372-1.318c0.574-2.043,1.102-3.905,1.838-5.632	c-0.16,0.83-0.305,1.672-0.305,2.515c0,0.739,0.109,1.479,0.404,2.214c0.314,0.868,1.143,1.315,2.035,1.405	c-0.645,0.127-1.318,0.511-1.527,1.05l-0.012,0.022l-0.004,0.022c-0.23,0.769-0.336,1.542-0.336,2.298	c0,2.78,1.465,5.312,3.85,6.27c2.324,0.847,4.688,0.344,6.676-1.405c1.338-1.225,1.99-2.73,2.453-4.043	c1.209-3.492,1.768-7.088,2.305-10.562c0.383-2.478,0.781-5.039,1.412-7.582c0.023-0.075,0.348-1.029,0.348-1.029	c0.225-0.7,0.439-1.36,0.764-2.023c0.15-0.339,0.209-0.64,0.209-0.905c0-0.412-0.143-0.734-0.299-0.964	C115.068,124.123,113.4,123.882,112.512,123.974L112.512,123.974z M86.164,135.877c0.084,0.174,0.063,0.311,0.012,0.601	l-0.069,0.617l0.015-0.119c-0.638,3.068-1.638,5.649-3.244,8.372c-0.086,0.108-0.27,0.337-0.27,0.337	c-0.196,0.266-0.316,0.409-0.447,0.457c-0.178-0.132-0.258-0.476-0.286-0.704c-0.002-0.041-0.002-0.079-0.002-0.126	c0-1.392,0.487-5.543,2.167-8.17c0.415-0.647,0.89-1.291,1.528-1.646C85.806,135.463,86.033,135.601,86.164,135.877L86.164,135.877	z M106.477,136.604c0.561-2.996,1.143-6.096,3.16-8.21c0.268-0.281,0.734-0.369,0.984-0.27c0.102,0.039,0.123,0.086,0.129,0.17	c0.002,0.069,0.006,0.141,0.006,0.214c0,2.149-1.611,6.194-2.799,9.177c0,0-0.057,0.143-0.082,0.21	c-0.131,0.206-0.451,0.685-0.785,0.784c-0.166,0.011-0.305-0.044-0.43-0.175c-0.207-0.219-0.334-0.609-0.334-0.984	c0-0.069,0.006-0.138,0.014-0.204C106.35,137.27,106.477,136.604,106.477,136.604L106.477,136.604z M103.52,141.31	c0,0,0.025-0.057,0.031-0.066c0.51,0.702,0.881,1.076,2.244,1.427c0.701,0.18,1.32,0.125,1.895-0.167	c0.242-0.104,0.443-0.225,0.631-0.357c-0.381,3.423-1.328,6.597-4.359,6.891c-0.543,0.062-0.984-0.075-1.352-0.421	c-0.822-0.768-1.115-2.366-1.115-3.608c0-0.504-0.301-0.879-0.775-1.005c0.225-0.032,0.449-0.084,0.658-0.163	C102.605,143.448,103.051,142.41,103.52,141.31L103.52,141.31z"/><path style="fill-rule:evenodd;clip-rule:evenodd;fill:#FFFFFF;" d="M126.838,122.338l-0.328,0.114l-0.039,0.359	c-0.758,7.008-2.986,12.169-6.623,15.347c-0.156,0.137-0.348,0.184-0.566,0.144c-0.369-0.07-0.748-0.37-0.965-0.769	c-0.27-0.573-0.41-1.038-0.41-1.387c0-0.202,0.064-0.351,0.156-0.474c1.68,0.213,3.242-0.307,4.523-1.547	c1.758-1.696,2.732-4.503,2.49-7.147c-0.127-2.04-1.771-3.558-4.09-3.759c-1.572-0.139-3.055,0.636-3.967,2.069l-0.012,0.019	l-0.01,0.021c-2.248,4.214-3.17,7.454-3.291,11.56c0,1.061,0.297,2.204,0.816,3.156c0.527,1.048,1.447,1.797,2.578,2.098	c1.291,0.339,2.748,0.062,3.896-0.739c1.311-0.883,2.205-2.035,3.072-3.147c0,0,0.131-0.166,0.193-0.242	c-0.031,0.265-0.068,0.528-0.068,0.808c0,0.384,0.051,0.778,0.211,1.164c0.512,1.078,2.455,0.821,3.266,0.66l0.385-0.076	l0.053-0.402c0.545-4.085,2.045-10.604,3.883-11.884c0.006,0.048,0.018,0.091,0.018,0.15c0,0.176-0.029,0.396-0.066,0.66	c-0.039,0.262-0.078,0.528-0.078,0.79c0,0.196,0.021,0.388,0.082,0.575l0.072,0.231l0.213,0.104c0.9,0.438,2.324,0.387,2.484,0.378	l0.381-0.016l0.115-0.38c0.041-0.142,1.021-3.439,0.891-5.341l-0.002-0.027l-0.004-0.026c-0.195-1.235-1.326-1.707-1.699-1.862	c-1.076-0.451-2.393-0.309-3.428,0.262c0.006-0.054,0.016-0.103,0.016-0.159c0-0.203-0.055-0.428-0.244-0.626l-0.062-0.064	l-0.076-0.041C129.205,122.155,127.904,121.966,126.838,122.338L126.838,122.338z M119.475,130.865	c0.58-1.819,1.072-3.099,2.102-2.978c0.164,0.018,0.225,0.081,0.258,0.148c0.061,0.106,0.09,0.27,0.09,0.464	c0,0.361-0.098,0.833-0.279,1.278c-0.463,0.968-1.326,1.748-2.611,2.357C119.188,131.745,119.33,131.32,119.475,130.865	L119.475,130.865z"/><path style="fill-rule:evenodd;clip-rule:evenodd;fill:#FFFFFF;" d="M72.053,116.421L72.053,116.421	c-1.897,0.658-4.144,1.524-6.45,2.968c-2.956,1.747-6.104,4.718-8.203,7.751c-0.83,1.198-0.257,2.105,0.294,2.984l0.308,0.498	l0.114,0.076c0.523,0.322,1.013,0.359,1.499,0.105l0.082-0.041l1.336-1.413c1.354-1.448,2.576-2.725,4.107-3.893	c-0.033,0.255-0.076,0.517-0.122,0.782c-0.088,0.515-0.174,1.045-0.182,1.591c-1.659,10.603-2.887,19.581-3.495,28.927l0.004-0.041	c-0.17,1.244,0.907,2.143,2.048,2.479l0.031,0.008l0.03,0.007c0.914,0.159,1.602,0.055,2.045-0.305	c0.296-0.241,0.47-0.588,0.5-1.007c0.358-4.689,0.726-7.998,1.41-12.661c1.056,1.456,2.917,3.993,4.764,6.338	c2.731,3.458,3.605,4.176,4.032,4.308c0.149,0.103,0.357,0.177,0.667,0.171c1.001-0.018,2.766-0.807,3.366-2.051l0.01-0.022	l0.01-0.022c0.063-0.165,0.089-0.322,0.089-0.469c0-0.535-0.357-0.944-0.592-1.212c-0.114-0.131-0.23-0.266-0.284-0.373	l-0.032-0.069l-1.761-2.006c-1.305-1.463-2.537-2.844-3.695-4.535c-0.66-0.961-1.152-1.591-1.549-2.098	c-0.316-0.403-0.587-0.771-0.859-1.178c6.195-4.315,12.286-9.236,14.066-17.158c0.055-0.314,0.08-0.621,0.08-0.921	c0-1.269-0.441-2.412-0.871-3.525l-0.012-0.028l-0.014-0.027c-1.025-1.999-2.535-4.35-5.113-4.797	C77.202,115.287,74.419,115.602,72.053,116.421L72.053,116.421z M77.804,120.51c1.019,0.331,1.767,1.036,2.223,2.094	c0.279,0.711,0.422,1.459,0.422,2.242c0,2.382-1.295,5.108-3.914,8.262c-2.077,2.386-4.896,5.21-8.466,6.495	c0.12-0.556,0.227-1.131,0.335-1.742l0.266-1.454l0.38-1.736l0.635-2.786c0.824-3.26,1.261-5.24,1.673-8.365l0.013-0.092	l-0.019-0.09c-0.12-0.666-0.394-1.04-0.7-1.263C72.62,120.882,75.596,119.793,77.804,120.51L77.804,120.51z"/><path style="fill-rule:evenodd;clip-rule:evenodd;fill:#CC262E;" d="M83.845,132.149c-1.147,0.525-1.913,1.573-2.551,2.623	c-1.873,2.798-3.447,7.609-3.065,11.809c0.128,2.23,2.555,3.806,4.469,2.623c1.276-0.785,1.785-1.484,3.063-3.542	c0.255-0.261,0.764,0.657,1.403,0.919c0.893,0.393,1.319,0.174,2.085-0.088c1.446-1.049,1.659-1.748,2.766-3.719	c0.129-0.129,0,0.66,0.256,1.052c0.255,0.395,0.637,0.786,1.021,0.919c0.639,0.262,1.532,0.393,1.787-0.133	c1.062-3.717,1.828-6.952,3.744-9.84c0.129,0.131-0.043,0.524-0.043,0.655c-0.258,2.363-1.273,4.726-0.381,6.954	c0.381,1.053,1.787,1.313,2.805,0.919c1.277-0.394,1.533-1.705,2.215-3.104c0.127,0,0.084,0.219,0.213,0.219	c0.723,0.962,0.766,1.312,2.295,1.705c0.514,0.131,1.021,0.131,1.533-0.132c0.639-0.262,0.979-0.655,1.531-1.181	c-0.254,3.413-0.893,8.396-4.979,8.792c-2.297,0.262-3.061-2.493-3.061-4.593c0-0.917-1.787-0.395-2.045,0.264	c-0.934,3.148,0.258,6.69,3.191,7.869c2.17,0.788,4.342,0.264,6.129-1.309c1.145-1.051,1.787-2.363,2.295-3.808	c2.043-5.903,2.17-11.938,3.701-18.104c0.383-1.053,0.639-2.101,1.15-3.151c0.764-1.703-1.531-2.361-2.809-2.23	c-0.385,0.133-0.51,0.788-0.766,0.788c-1.277-0.261-2.299-0.524-3.572-0.261c-1.662,0.261-2.428,1.833-3.193,3.148	c-1.402,3.147-1.787,6.559-2.68,9.971c-0.129,0.656-0.383,1.312-1.021,1.835c-0.252,0.134-0.381-0.131-0.381-0.262	c0.381-3.411,2.467-10.146,1.998-10.451c-1.189-0.919-3.234-1.532-3.615-0.788c-1.449,1.881-1.873,3.411-3.107,5.902	c0.212-2.359,0.766-3.192,0.639-4.898c-0.129-0.655-0.768-1.047-1.405-1.309c-0.766-0.133-1.914-0.527-2.041,0.392	c-0.64,3.937-1.532,7.61-2.811,11.283c-0.382,1.05-0.296,1.312-1.403,3.282c-0.47,0.35-0.637,0-0.637-0.264	c0.126-2.624,1.233-5.686,1.53-7.522c-0.041-0.744-1.021-0.612-1.403-0.874c-0.892-0.657-1.403-1.574-2.298-2.232	C85.633,131.755,84.734,131.743,83.845,132.149L83.845,132.149z M105.801,137.23c0.641-3.347,1.146-6.825,3.449-9.237	c0.639-0.67,1.99-0.676,2.043,0.266c0.127,2.277-1.66,6.695-2.939,9.908c-0.252,0.402-0.639,0.939-1.146,1.072	C106.186,139.374,105.674,138.167,105.801,137.23L105.801,137.23z M86.652,135.626c0.255,0.533,0,0.936,0,1.469	c-0.637,3.082-1.661,5.76-3.321,8.569c-0.382,0.403-0.637,1.07-1.277,1.07c-0.382-0.133-0.637-0.532-0.725-1.248	c-0.041-1.25,0.429-5.803,2.257-8.659c0.479-0.744,1.021-1.471,1.789-1.873C85.886,134.819,86.395,135.087,86.652,135.626	L86.652,135.626z"/><path style="fill-rule:evenodd;clip-rule:evenodd;fill:#CC262E;" d="M114.996,139.764c1.113,2.206,3.84,2.468,5.699,1.166	c1.732-1.166,2.723-2.857,3.963-4.287c0.123,0.133,0.248,0.133,0.248,0.265c0,0.906-0.371,1.945,0,2.856	c0.371,0.776,2.664,0.325,2.664,0.325s1.547-11.628,4.645-12.539c0.742,0.651,0,1.951,0.246,2.729	c0.807,0.392,2.23,0.326,2.23,0.326s0.992-3.314,0.871-5.133c-0.125-0.778-0.746-1.17-1.365-1.428	c-1.24-0.521-2.971-0.13-3.842,0.909c-0.123-0.131,0.125-0.391,0-0.521c-0.123-0.389,0.25-0.778,0-1.037	c-0.988-0.521-2.229-0.909-3.344-0.521c-0.619,5.715-2.354,11.819-6.814,15.719c-0.742,0.649-1.857,0.129-2.354-0.78	c-0.371-0.78-0.869-2.079,0-2.727c4.336,0.777,7.062-4.027,6.691-8.054c-0.123-1.948-1.738-3.086-3.594-3.249	c-1.486-0.129-2.725,0.649-3.469,1.817c-2.045,3.834-3.098,7.017-3.221,11.306C114.252,137.813,114.498,138.853,114.996,139.764	L114.996,139.764z M118.441,132.144c0.77-1.74,1.158-5.057,3.193-4.82c1.15,0.133,0.893,1.742,0.508,2.678	c-0.637,1.338-1.787,2.143-2.932,2.678C118.953,132.812,118.316,132.679,118.441,132.144L118.441,132.144z"/><path style="fill-rule:evenodd;clip-rule:evenodd;fill:#CC262E;" d="M59.375,130.297c2.168-2.253,3.786-4.241,6.337-5.962	c0.128,1.193-0.339,2.386-0.339,3.576c-1.531,9.807-2.851,19.081-3.49,28.884c-0.124,0.928,0.768,1.591,1.661,1.854	c0.766,0.133,1.844,0.139,1.914-0.796c0.384-5.032,0.766-8.386,1.534-13.511c0.126-0.135-0.086-0.618,0.169-0.397	c2.935,4.106,8.465,11.479,9.274,11.392c0.255,0.488,2.68-0.266,3.319-1.589c0.253-0.661-0.511-1.061-0.765-1.589	c-1.916-2.253-3.761-4.074-5.448-6.536c-1.36-1.987-1.955-2.475-2.722-3.756c6.127-4.24,12.51-9.187,14.297-17.136	c0.253-1.456-0.255-2.781-0.768-4.105c-1.019-1.986-2.424-4.107-4.72-4.505c-2.426-0.264-5.106,0.043-7.404,0.839	c-2.297,0.795-4.3,1.634-6.34,2.915c-3.063,1.81-6.084,4.771-8.042,7.596c-0.701,1.015-0.084,1.677,0.553,2.739	C58.822,130.475,59.12,130.431,59.375,130.297L59.375,130.297z M67.458,139.863c0.255-1.072,0.424-2.274,0.68-3.571	c0.384-1.695,0.619-2.949,1.021-4.551c0.766-3.033,1.236-5.088,1.661-8.298c-0.212-1.162-0.936-1.072-1.489-1.206	c-0.126-0.134,0.607-0.381,0.852-0.536c3.19-2.01,8.554-3.48,10.341,0.67c1.531,3.882-1.021,8.032-3.575,11.108	c-2.684,3.082-5.747,5.895-9.577,6.965C67.245,140.444,67.458,140.129,67.458,139.863L67.458,139.863z"/><path style="fill-rule:evenodd;clip-rule:evenodd;fill:#FFFFFF;" d="M134.119,120.974c0-0.547,0.396-0.96,0.902-0.96	c0.504,0,0.898,0.413,0.898,0.96c0,0.555-0.395,0.964-0.898,0.964C134.516,121.938,134.119,121.528,134.119,120.974	L134.119,120.974z M135.021,122.13c0.605,0,1.121-0.488,1.121-1.156c0-0.664-0.516-1.152-1.121-1.152	c-0.607,0-1.125,0.488-1.125,1.152C133.896,121.642,134.414,122.13,135.021,122.13L135.021,122.13z M134.789,121.065h0.221	l0.338,0.576h0.219l-0.363-0.586c0.186-0.024,0.33-0.129,0.33-0.365c0-0.264-0.148-0.381-0.451-0.381h-0.486v1.332h0.193V121.065	L134.789,121.065z M134.789,120.894v-0.412h0.264c0.135,0,0.277,0.031,0.277,0.195c0,0.205-0.146,0.217-0.311,0.217H134.789	L134.789,120.894z"/></g></svg>