<?xml version="1.0" encoding="iso-8859-1"?><!-- Generator: Adobe Illustrator 16.0.0, SVG Export Plug-In . SVG Version: 6.00 Build 0) --><!DOCTYPE svg PUBLIC "-//W3C//DTD SVG 1.1//EN" "http://www.w3.org/Graphics/SVG/1.1/DTD/svg11.dtd"><svg version="1.1" id="Layer_1" xmlns="http://www.w3.org/2000/svg" xmlns:xlink="http://www.w3.org/1999/xlink" x="0px" y="0px" width="192.756px" height="192.756px" viewBox="0 0 192.756 192.756" style="enable-background:new 0 0 192.756 192.756;" xml:space="preserve"><g><polygon style="fill-rule:evenodd;clip-rule:evenodd;fill:#FFFFFF;" points="0,0 192.756,0 192.756,192.756 0,192.756 0,0	"/><path style="fill-rule:evenodd;clip-rule:evenodd;fill:#FFFFFF;stroke:#FFFFFF;stroke-width:4.536;stroke-linejoin:round;stroke-miterlimit:2.6131;" d="	M7.722,128.473c8.542-13.525,17.318-27.557,25.978-41.209c-1.872,0-3.627,0-5.383,0c2.809-4.551,5.617-9.228,8.425-13.905	c23.286-6.321,41.072-3.035,36.509,13.778c3.979,0.379,7.723,0.126,11.702,0.379c5.851-6.194,11.819-12.136,17.786-18.456	c-0.584,4.171-1.17,8.343-1.754,12.388c5.967-2.528,12.053-5.056,18.137-7.584c-1.639,3.918-3.275,7.711-4.914,11.503	c7.139-3.286,10.062,1.012,15.094,1.391c6.787-7.458,13.574-14.917,20.361-22.501c-0.467,4.551-0.936,8.975-1.287,13.399	c4.096-0.885,8.191-1.896,12.404-2.907c-0.352,1.77-0.703,3.539-0.936,5.309c1.754,0,3.51,0,5.383,0	c-0.469,2.275-0.938,4.551-1.404,6.7c49.498-5.057-2.107,31.729-9.713,38.303c-0.469-3.793-0.936-7.586-1.287-11.504	c-5.5,4.172-11,8.344-16.383,12.516c-1.404-1.518-2.691-3.16-3.979-4.805c-2.457,1.139-4.797,2.275-7.139,3.414	c0.352-2.402,0.82-4.805,1.289-7.207c-5.266,2.275-20.361,5.562-27.852-1.895c-2.457,3.412-5.499,7.457-7.839,10.744	c-2.34-2.402-3.276-5.436-5.617-7.838c-5.617,0.254-11,0.127-16.617,0.254c-3.51,6.951-12.521,5.688-21.296,5.941	c-3.628-4.932-7.139-9.861-10.649-14.918c-3.862,6.32-7.723,12.516-11.468,18.709C19.424,128.221,13.456,128.6,7.722,128.473	L7.722,128.473z"/><path style="fill-rule:evenodd;clip-rule:evenodd;fill:#FFFFFF;stroke:#CF4037;stroke-width:2.15;stroke-linecap:round;stroke-linejoin:round;stroke-miterlimit:2.6131;" d="	M7.722,128.473c8.542-13.525,17.318-27.557,25.978-41.209c-1.872,0-3.627,0-5.383,0c2.809-4.551,5.617-9.228,8.425-13.905	c23.286-6.321,41.072-3.034,36.509,13.779c3.979,0.379,7.723,0.126,11.702,0.379c5.851-6.194,11.819-12.136,17.786-18.457	c-0.584,4.172-1.17,8.343-1.754,12.389c5.967-2.528,12.053-5.056,18.137-7.584c-1.639,3.918-3.275,7.711-4.914,11.503	c7.139-3.286,10.062,1.012,15.094,1.391c6.787-7.458,13.574-14.917,20.361-22.501c-0.467,4.551-0.936,8.975-1.287,13.399	c4.096-0.885,8.191-1.896,12.404-2.907c-0.352,1.77-0.703,3.539-0.936,5.309c1.754,0,3.51,0,5.383,0	c-0.469,2.275-0.938,4.551-1.404,6.7c49.498-5.057-2.107,31.729-9.713,38.303c-0.469-3.793-0.936-7.586-1.287-11.504	c-5.5,4.172-11,8.344-16.383,12.516c-1.404-1.518-2.691-3.16-3.979-4.805c-2.457,1.139-4.797,2.275-7.139,3.414	c0.352-2.402,0.82-4.805,1.289-7.207c-5.266,2.275-20.361,5.562-27.852-1.895c-2.457,3.412-5.499,7.457-7.839,10.744	c-2.34-2.402-3.276-5.436-5.617-7.838c-5.617,0.254-11,0.127-16.617,0.254c-3.51,6.951-12.521,5.688-21.296,5.941	c-3.628-4.932-7.139-9.861-10.649-14.918c-3.862,6.32-7.723,12.516-11.468,18.709C19.424,128.221,13.456,128.6,7.722,128.473	L7.722,128.473z"/><path style="fill-rule:evenodd;clip-rule:evenodd;fill:#2D509F;" d="M45.752,81.827c6.788-1.264,10.298-1.391,16.734,1.138	c0.702,6.194-12.053,11.63-23.988,13.906L45.752,81.827L45.752,81.827z M16.147,124.934c8.542-14.158,17.202-28.316,25.86-42.474	c-1.873,0.379-3.627,0.758-5.383,1.011c0.937-1.77,1.873-3.54,2.808-5.309c10.883-2.276,24.457-2.276,28.552,4.424	c3.042,6.194-16.733,15.422-27.382,17.064c5.5,6.449,11.819,13.148,17.436,19.469c-2.691,0.252-6.202,0.127-8.776,0.252	c-4.33-6.066-8.542-12.135-12.754-18.203c-4.096,7.965-8.191,15.928-12.17,23.893C21.53,124.934,18.839,124.934,16.147,124.934	L16.147,124.934z"/><path style="fill-rule:evenodd;clip-rule:evenodd;fill:#2D509F;" d="M69.39,104.709c4.446-0.381,8.074-3.287,8.074-6.447	c0-3.161-3.627-5.563-8.074-5.184c-4.447,0.379-8.074,3.287-8.074,6.447S64.943,105.088,69.39,104.709L69.39,104.709z M68.336,110.523c6.787-0.506,12.287-5.184,12.287-10.24c0-5.056-5.5-8.849-12.287-8.343c-6.787,0.632-12.17,5.31-12.17,10.366	S61.549,111.154,68.336,110.523L68.336,110.523z"/><polygon style="fill-rule:evenodd;clip-rule:evenodd;fill:#2D509F;" points="74.772,112.799 96.888,79.299 93.495,89.792	109.059,83.724 107.42,89.412 91.856,93.205 97.123,108.373 94.665,116.084 89.166,96.996 82.261,113.178 74.772,112.799	"/><path style="fill-rule:evenodd;clip-rule:evenodd;fill:#2D509F;" d="M117.717,109.639c-5.383,4.424-18.371,5.436-18.371-1.266	c4.797-15.927,16.5-22.248,24.105-17.697c3.51,6.195,1.287,8.974-2.457,10.113l-15.096,1.896	C98.76,109.639,106.601,111.029,117.717,109.639L117.717,109.639z M107.888,99.777l12.638-2.021	C126.143,89.539,111.633,89.917,107.888,99.777L107.888,99.777z"/><polygon style="fill-rule:evenodd;clip-rule:evenodd;fill:#2D509F;" points="117.016,115.832 128.6,111.281 139.014,86.884	150.365,86.125 150.949,81.954 140.77,83.724 142.525,76.013 117.016,115.832	"/><polygon style="fill-rule:evenodd;clip-rule:evenodd;fill:#2D509F;" points="131.525,116.844 138.896,96.871 147.322,96.871	131.525,116.844	"/><polygon style="fill-rule:evenodd;clip-rule:evenodd;fill:#2D509F;" points="146.504,91.561 155.045,85.62 156.215,91.308	146.504,91.561	"/><path style="fill-rule:evenodd;clip-rule:evenodd;fill:#2D509F;" d="M139.834,116.465l18.955-24.904l5.734-0.127l-1.639,2.655	c36.275-7.711,3.043,12.895-7.84,23.006C187.107,81.069,155.748,103.697,139.834,116.465L139.834,116.465z"/></g></svg>