<?xml version="1.0" encoding="iso-8859-1"?><!-- Generator: Adobe Illustrator 16.0.0, SVG Export Plug-In . SVG Version: 6.00 Build 0) --><!DOCTYPE svg PUBLIC "-//W3C//DTD SVG 1.1//EN" "http://www.w3.org/Graphics/SVG/1.1/DTD/svg11.dtd"><svg version="1.1" id="Layer_1" xmlns="http://www.w3.org/2000/svg" xmlns:xlink="http://www.w3.org/1999/xlink" x="0px" y="0px" width="192.756px" height="192.756px" viewBox="0 0 192.756 192.756" style="enable-background:new 0 0 192.756 192.756;" xml:space="preserve"><g><polygon style="fill-rule:evenodd;clip-rule:evenodd;fill:#FFFFFF;" points="0,0 192.756,0 192.756,192.756 0,192.756 0,0	"/><path style="fill-rule:evenodd;clip-rule:evenodd;fill:#C63836;" d="M40.017,122.558l0.06-0.313	c0.404-1.937,1.38-3.514,2.933-4.674c-0.347,0.093-0.685,0.186-1.031,0.278c-4.605,1.24-9.685,2.635-14.268,3.168	c-4.559,0.532-10.289,1.448-13.28-1.346c-5.683-5.29-1.937-12.621,2.136-17.644c7.793-9.603,26.572-20.899,43.238-28.567	l7.297-3.35l-10.452,0.138l-5.103,2.273c-9.836,4.384-20.054,10.891-26.098,15.774c-8.804,7.111-19.869,18.43-16.239,28.487	c1.729,4.813,5.951,7.156,11.159,7.62c4.118,0.371,12.201-0.439,18.663-1.657C39.356,122.685,39.692,122.615,40.017,122.558	L40.017,122.558z"/><path style="fill-rule:evenodd;clip-rule:evenodd;" d="M68.793,82.891l-2.782,12.906h35.793l0.873-3.19h3.547	c1.391,0,2.947-0.244,4.016-1.144c1.703-1.438,2.615-4.09,1.66-6.093c-0.695-1.451-2.127-2.479-3.768-2.479H90.784l-1.31,2.538	l-0.217-2.538H68.793L68.793,82.891z"/><polygon style="fill-rule:evenodd;clip-rule:evenodd;" points="93.531,114.799 101.785,114.799 106.896,105.187 107.938,114.799	116.191,114.799 126.371,98.175 118.348,98.175 113.043,108.323 111.906,98.175 104.775,98.175 99.412,108.323 98.391,98.175	90.051,98.175 93.531,114.799	"/><path style="fill-rule:evenodd;clip-rule:evenodd;" d="M22.113,107.767L22.113,107.767c-0.216,2.434,0.647,4.306,2.597,5.64	c1.946,1.33,4.822,1.983,8.619,1.983c4.141,0,7.47-0.653,9.979-1.983c2.479-1.334,3.977-3.229,4.507-5.734	c0.244-1.146,0.165-2.165-0.244-2.995c-0.418-0.837-1.209-1.601-2.308-2.254c-0.927-0.544-2.983-1.152-6.184-1.807	c-0.726-0.162-1.245-0.249-1.587-0.338c-0.116,0-0.289-0.046-0.49-0.09c-2.422-0.521-3.558-1.129-3.393-1.871	c0.107-0.52,0.416-0.903,0.957-1.175c0.544-0.249,1.286-0.382,2.292-0.382c1.093,0,1.934,0.177,2.48,0.492	c0.526,0.316,0.792,0.837,0.808,1.49h8.77c0.194-2.275-0.641-4.038-2.501-5.256c-1.884-1.197-4.66-1.83-8.339-1.83	c-3.769,0-6.861,0.655-9.26,1.917c-2.416,1.292-3.855,3.048-4.307,5.28c-0.245,1.107-0.166,2.1,0.216,2.958	c0.358,0.875,1.035,1.6,1.991,2.233c0.524,0.314,1.358,0.631,2.537,0.989c1.188,0.34,2.777,0.743,4.825,1.175	c0.259,0.046,0.632,0.111,1.149,0.223c2.488,0.497,3.615,1.174,3.457,1.987c-0.107,0.516-0.503,0.903-1.165,1.196	c-0.681,0.29-1.574,0.45-2.666,0.45c-1.266,0-2.215-0.183-2.767-0.543c-0.583-0.339-0.907-0.946-1.007-1.757H22.113L22.113,107.767	z"/><path style="fill-rule:evenodd;clip-rule:evenodd;" d="M138.535,114.802h8.484l0.105-0.475c-0.264-0.134-0.467-0.339-0.561-0.583	c-0.115-0.228-0.15-0.499-0.064-0.813l1.92-9.268c0.271-1.24,0.287-2.216,0.016-2.894c-0.266-0.651-0.857-1.239-1.756-1.776	c-0.725-0.433-1.791-0.77-3.207-1.021c-1.414-0.266-3.025-0.381-4.752-0.381c-3.709,0-6.635,0.477-8.719,1.423	c-2.113,0.947-3.387,2.365-3.811,4.238h8.225c0.186-0.565,0.553-0.992,1.07-1.264c0.539-0.271,1.229-0.403,2.092-0.403	c1.064,0,1.811,0.111,2.25,0.336c0.461,0.229,0.611,0.566,0.504,1.037c-0.158,0.858-1.617,1.401-4.32,1.623	c-0.77,0.071-1.432,0.138-1.891,0.183c-3.617,0.339-6.197,0.927-7.65,1.713c-1.459,0.769-2.328,2.011-2.68,3.633	c-0.348,1.689,0.018,3.004,1.156,3.899c1.105,0.925,2.84,1.38,5.254,1.38c1.553,0,2.99-0.182,4.307-0.543	c1.316-0.316,2.604-0.881,3.854-1.624L138.535,114.802L138.535,114.802z"/><path style="fill-rule:evenodd;clip-rule:evenodd;" d="M79.334,109.884L79.334,109.884c-0.28,0.455-0.733,0.792-1.337,1.041	c-0.596,0.221-1.288,0.359-2.121,0.359c-1.207,0-2.079-0.293-2.631-0.88c-0.583-0.565-0.77-1.396-0.583-2.438l15.845-0.023	l0.079-0.402c0.639-3.113,0.087-5.575-1.668-7.33c-1.783-1.762-4.557-2.619-8.325-2.619c-3.767,0-6.916,0.813-9.426,2.416	c-2.53,1.621-4.076,3.81-4.665,6.63c-0.561,2.658,0.072,4.803,1.884,6.382c1.775,1.601,4.521,2.37,8.174,2.37	c3.25,0,5.946-0.455,8.146-1.38c2.172-0.946,3.731-2.298,4.709-4.126H79.334L79.334,109.884z"/><path style="fill-rule:evenodd;clip-rule:evenodd;" d="M148.871,114.799h8.455l1.447-6.814c0.264-1.284,0.854-2.231,1.795-2.842	c0.914-0.587,2.23-0.902,3.928-0.902c0.258,0,0.516,0,0.803,0.021c0.289,0.027,0.576,0.051,0.891,0.073l1.396-6.609h-0.775	c-1.727,0-3.193,0.294-4.328,0.831c-1.174,0.564-2.164,1.445-2.984,2.642l0.619-3.023h-7.766L148.871,114.799L148.871,114.799z"/><path style="fill-rule:evenodd;clip-rule:evenodd;" d="M73.551,127.719l1.091-5.075c0.053-0.189,0.107-0.453,0.16-0.779	c0.055-0.315,0.137-0.715,0.216-1.158c0.014,0.507,0.041,0.905,0.055,1.201c0.014,0.283,0.026,0.547,0.053,0.779l0.593,5.032h3.017	l2.788-5.148l0.054-0.084c0.334-0.653,0.633-1.243,0.902-1.78c-0.095,0.317-0.147,0.622-0.216,0.916	c-0.053,0.305-0.134,0.61-0.188,0.927l-1.172,5.17h3.907l2.302-10.519H81.86l-3.07,5.275c-0.096,0.136-0.189,0.327-0.325,0.59	c-0.12,0.263-0.269,0.578-0.429,0.926c-0.042-0.441-0.068-0.801-0.093-1.052c-0.016-0.253-0.016-0.411-0.043-0.485l-0.698-5.254	h-5.266l-2.303,10.519H73.551L73.551,127.719z"/><polygon style="fill-rule:evenodd;clip-rule:evenodd;fill:#FFFFFF;" points="85.566,87.123 83.863,94.638 80.212,94.638	82.559,84.207 88.163,84.207 88.575,90.313 91.584,84.207 97.25,84.207 95.052,94.638 91.337,94.638 93.061,87.023 89.03,94.638	86.171,94.638 85.566,87.123	"/><path style="fill-rule:evenodd;clip-rule:evenodd;" d="M58.886,108.634l1.386-6.653h3.969l0.808-3.812H61.08l1.071-5.141h-8.398	l-1.071,5.141H49.69l-0.776,3.812h2.962l-1.732,8.348c-0.374,1.755-0.1,2.998,0.833,3.7c0.899,0.698,2.689,1.038,5.363,1.038	c0.749,0,1.553-0.024,2.416-0.046c0.835-0.022,1.813-0.066,2.847-0.116l1.015-4.76c-0.173,0-0.316,0-0.489,0	c-0.173,0.024-0.402,0.024-0.719,0.024c-1.064,0-1.783-0.111-2.13-0.36C58.9,109.581,58.777,109.2,58.886,108.634L58.886,108.634z"	/><path style="fill-rule:evenodd;clip-rule:evenodd;" d="M178.09,108.634l1.389-6.653h3.969l0.805-3.812h-3.967l1.07-5.141h-8.398	l-1.062,5.141h-2.992l-0.775,3.812h2.961l-1.732,8.348c-0.373,1.755-0.1,2.998,0.834,3.7c0.898,0.698,2.689,1.038,5.357,1.038	c0.746,0,1.551-0.024,2.416-0.046c0.834-0.022,1.811-0.066,2.846-0.116l1.014-4.76c-0.174,0-0.316,0-0.488,0	c-0.174,0.024-0.404,0.024-0.719,0.024c-1.064,0-1.785-0.111-2.129-0.36C178.105,109.581,177.982,109.2,178.09,108.634	L178.09,108.634z"/><path style="fill-rule:evenodd;clip-rule:evenodd;" d="M141.619,127.719h4.107l1.078-4.927c0.066-0.358,0.121-0.642,0.162-0.854	c0.012-0.199,0.012-0.39,0.025-0.579c0.053,0.338,0.146,0.631,0.215,0.905c0.08,0.264,0.148,0.465,0.244,0.6l2.719,4.854h4.121	l2.303-10.519h-4.121l-1.104,4.971c-0.055,0.315-0.107,0.589-0.137,0.81c-0.025,0.222-0.039,0.433-0.053,0.611	c-0.066-0.358-0.148-0.664-0.215-0.905c-0.082-0.253-0.16-0.454-0.258-0.592l-2.68-4.895h-4.105L141.619,127.719L141.619,127.719z"	/><path style="fill-rule:evenodd;clip-rule:evenodd;" d="M114.723,127.719h4.107l1.078-4.927c0.064-0.358,0.119-0.642,0.16-0.854	c0.012-0.199,0.012-0.39,0.027-0.579c0.053,0.338,0.148,0.631,0.215,0.905c0.08,0.264,0.148,0.465,0.242,0.6l2.723,4.854h4.117	l2.305-10.519h-4.121l-1.104,4.971c-0.057,0.315-0.107,0.589-0.137,0.81c-0.025,0.222-0.041,0.433-0.053,0.611	c-0.066-0.358-0.148-0.664-0.217-0.905c-0.08-0.253-0.16-0.454-0.254-0.592l-2.68-4.895h-4.107L114.723,127.719L114.723,127.719z"	/><path style="fill-rule:evenodd;clip-rule:evenodd;" d="M100.746,122.476L100.746,122.476c-0.363,1.705-0.053,3.054,0.984,4.055	c1.037,0.988,2.625,1.473,4.795,1.473c2.154,0,3.973-0.484,5.414-1.473c1.467-1.001,2.408-2.35,2.773-4.055	c0.375-1.716,0.027-3.063-1.023-4.054c-1.01-1.001-2.6-1.494-4.754-1.494c-2.168,0-3.986,0.493-5.453,1.494	C102.027,119.412,101.125,120.76,100.746,122.476L100.746,122.476z"/><path style="fill-rule:evenodd;clip-rule:evenodd;" d="M55.413,122.476L55.413,122.476c-0.364,1.705-0.053,3.054,0.983,4.055	c1.036,0.988,2.625,1.473,4.794,1.473c2.156,0,3.972-0.484,5.428-1.473c1.468-1.001,2.409-2.35,2.774-4.055	c0.377-1.716,0.027-3.063-1.024-4.054c-1.024-1.001-2.614-1.494-4.767-1.494c-2.168,0-3.986,0.493-5.453,1.494	C56.691,119.412,55.789,120.76,55.413,122.476L55.413,122.476z"/><path style="fill-rule:evenodd;clip-rule:evenodd;fill:#FFFFFF;" d="M101.457,91.253l-0.768,3.392h-3.989l2.266-10.431h9.211	c0.811,0,1.541,0.444,2.016,1.076c0.934,1.26,0.336,3.376-0.277,4.201c-0.969,1.303-2.404,1.763-3.959,1.763H101.457	L101.457,91.253z"/><path style="fill-rule:evenodd;clip-rule:evenodd;" d="M50.251,123.644L50.251,123.644c-0.176,0.559-0.514,0.99-0.971,1.285	c-0.458,0.305-1.023,0.452-1.683,0.452c-0.875,0-1.48-0.242-1.831-0.735c-0.336-0.496-0.417-1.211-0.202-2.17	c0.216-0.979,0.58-1.706,1.117-2.189c0.525-0.484,1.211-0.729,2.061-0.729c0.686,0,1.186,0.14,1.521,0.412	c0.31,0.273,0.444,0.684,0.405,1.222h4.147c0.148-1.37-0.241-2.423-1.199-3.16c-0.969-0.737-2.423-1.104-4.363-1.104	c-2.114,0-3.904,0.493-5.346,1.494c-1.428,0.99-2.317,2.338-2.694,4.054c-0.364,1.716-0.053,3.073,0.957,4.055	c1.023,1,2.612,1.473,4.769,1.473c1.924,0,3.54-0.367,4.834-1.138c1.292-0.768,2.139-1.831,2.571-3.222H50.251L50.251,123.644z"/><path style="fill-rule:evenodd;clip-rule:evenodd;" d="M86.981,127.719h4.322l0.7-3.212h2.585c1.672,0,3.044-0.315,4.068-0.946	c1.01-0.621,1.656-1.528,1.912-2.696c0.148-0.674,0.107-1.252-0.082-1.737c-0.203-0.483-0.578-0.886-1.129-1.221	c-0.434-0.243-0.984-0.421-1.672-0.538c-0.713-0.105-1.643-0.168-2.867-0.168h-5.535L86.981,127.719L86.981,127.719z"/><polygon style="fill-rule:evenodd;clip-rule:evenodd;" points="129.244,127.719 140.26,127.719 140.826,125.172 134.131,125.172	134.482,123.539 139.924,123.539 140.436,121.127 134.996,121.127 135.305,119.728 141.742,119.728 142.309,117.2 131.547,117.2	129.244,127.719	"/><polygon style="fill-rule:evenodd;clip-rule:evenodd;fill:#FFFFFF;" points="80.73,84.213 80.187,86.741 73.316,86.741	73.008,88.149 79.42,88.149 78.882,90.601 72.529,90.601 72.179,92.061 79.045,92.061 78.508,94.643 67.612,94.643 69.852,84.213	80.73,84.213	"/><polygon style="fill-rule:evenodd;clip-rule:evenodd;" points="159.064,127.719 163.389,127.719 165.07,119.97 168.934,119.97	169.555,117.2 157.49,117.2 156.869,119.97 160.748,119.97 159.064,127.719	"/><path style="fill-rule:evenodd;clip-rule:evenodd;" d="M168.326,124.444L168.326,124.444c-0.094,1.138,0.283,2.011,1.199,2.633	c0.916,0.621,2.262,0.926,4.039,0.926c1.939,0,3.502-0.305,4.672-0.926c1.172-0.622,1.885-1.506,2.143-2.675	c0.107-0.537,0.08-1.011-0.096-1.4c-0.217-0.391-0.566-0.746-1.09-1.052c-0.432-0.253-1.389-0.539-2.896-0.844	c-0.336-0.075-0.578-0.116-0.727-0.157l-0.242-0.043c-1.133-0.241-1.643-0.526-1.59-0.874c0.068-0.242,0.217-0.42,0.457-0.547	c0.256-0.115,0.621-0.179,1.092-0.179c0.514,0,0.902,0.083,1.158,0.232c0.244,0.146,0.365,0.388,0.365,0.693h4.094	c0.121-1.062-0.27-1.885-1.145-2.453c-0.889-0.558-2.17-0.852-3.893-0.852c-1.766,0-3.219,0.304-4.35,0.895	c-1.146,0.6-1.807,1.42-2.035,2.464c-0.107,0.515-0.08,0.979,0.082,1.379c0.162,0.41,0.498,0.747,0.93,1.041	c0.24,0.149,0.658,0.296,1.197,0.466c0.566,0.156,1.309,0.346,2.25,0.545c0.121,0.021,0.309,0.054,0.525,0.106	c1.17,0.231,1.711,0.549,1.643,0.928c-0.068,0.241-0.242,0.421-0.58,0.559c-0.309,0.135-0.727,0.21-1.238,0.21	c-0.592,0-1.037-0.084-1.291-0.253c-0.271-0.158-0.434-0.442-0.459-0.822H168.326L168.326,124.444z"/><path style="fill-rule:evenodd;clip-rule:evenodd;fill:#FFFFFF;" d="M73.352,104.626L73.352,104.626	c0.274-0.969,0.777-1.738,1.545-2.284c0.742-0.535,1.655-0.807,2.776-0.807c1.209,0,2.049,0.249,2.603,0.764	c0.524,0.521,0.711,1.286,0.612,2.327H73.352L73.352,104.626z"/><path style="fill-rule:evenodd;clip-rule:evenodd;fill:#FFFFFF;" d="M139.303,107.376L139.303,107.376	c0,0.114,0.008,0.203,0.008,0.313c-0.029,0.117-0.051,0.316-0.109,0.543c-0.244,1.107-0.717,1.917-1.459,2.437	c-0.77,0.494-1.855,0.766-3.264,0.766c-0.748,0-1.324-0.156-1.676-0.404c-0.346-0.272-0.496-0.633-0.389-1.107	c0.129-0.722,1.332-1.308,3.51-1.757C137.326,107.895,138.477,107.622,139.303,107.376L139.303,107.376z"/><path style="fill-rule:evenodd;clip-rule:evenodd;fill:#FFFFFF;" d="M105.098,122.476L105.098,122.476	c0.215-1.001,0.594-1.737,1.117-2.2c0.539-0.464,1.254-0.705,2.154-0.705c0.904,0,1.51,0.231,1.818,0.694	c0.336,0.463,0.377,1.201,0.162,2.211c-0.229,1-0.566,1.727-1.119,2.189c-0.512,0.464-1.223,0.707-2.125,0.707	s-1.512-0.243-1.846-0.707C104.949,124.202,104.869,123.465,105.098,122.476L105.098,122.476z"/><path style="fill-rule:evenodd;clip-rule:evenodd;fill:#FFFFFF;" d="M59.761,122.476L59.761,122.476	c0.217-1.001,0.593-1.737,1.118-2.2c0.54-0.464,1.254-0.705,2.154-0.705c0.904,0,1.509,0.231,1.819,0.694	c0.336,0.463,0.377,1.201,0.16,2.211c-0.226,1-0.565,1.727-1.117,2.189c-0.512,0.464-1.225,0.707-2.128,0.707	c-0.901,0-1.507-0.243-1.844-0.707C59.614,124.202,59.533,123.465,59.761,122.476L59.761,122.476z"/><path style="fill-rule:evenodd;clip-rule:evenodd;" d="M101.943,88.817h3.176c0.994,0,1.451-0.493,1.514-1.192	c0.029-0.354-0.307-0.876-0.787-0.876h-3.363L101.943,88.817L101.943,88.817z"/><path style="fill-rule:evenodd;clip-rule:evenodd;fill:#FFFFFF;" d="M92.57,121.927l0.471-2.146h1.388	c0.928,0,1.508,0.083,1.762,0.231c0.27,0.159,0.339,0.44,0.27,0.853c-0.092,0.4-0.322,0.675-0.645,0.833	c-0.35,0.157-0.958,0.229-1.859,0.229H92.57L92.57,121.927z"/><path style="fill-rule:evenodd;clip-rule:evenodd;fill:#C63836;" d="M111.674,74.921c0.406-1.507,0.523-3.573-0.66-5.253	c-1.357-1.924-3.654-2.204-5.787-2.391c-2.867-0.244-5.799,0.245-8.329,0.708c-6.867,1.288-14.87,5.289-22.026,8.606	c-5.869,2.728-11.587,5.742-17.154,9.049l-4.056,2.491L43.66,88.156l6.937-3.758c13.977-7.562,29.216-14.51,42.068-18.245	c4.523-1.311,12.145-1.88,15.984-0.917c3.352,0.847,5.566,3.226,6.043,6.555c0.627,4.431-1.822,7.921-3.389,11.043	c-0.881-0.685-1.973-1.103-3.152-1.103C109.459,79.644,111.002,77.403,111.674,74.921L111.674,74.921z"/></g></svg>