<?xml version="1.0" encoding="iso-8859-1"?><!-- Generator: Adobe Illustrator 16.0.0, SVG Export Plug-In . SVG Version: 6.00 Build 0) --><!DOCTYPE svg PUBLIC "-//W3C//DTD SVG 1.1//EN" "http://www.w3.org/Graphics/SVG/1.1/DTD/svg11.dtd"><svg version="1.1" id="Layer_1" xmlns="http://www.w3.org/2000/svg" xmlns:xlink="http://www.w3.org/1999/xlink" x="0px" y="0px" width="192.755px" height="192.756px" viewBox="0 0 192.755 192.756" style="enable-background:new 0 0 192.755 192.756;" xml:space="preserve"><g><g><path style="fill:#B2BBC7;" d="M141.157,86.412V70.576c0-15.473-1.274-26.94-3.914-34.404c-2.639-7.372-8.1-13.561-16.382-18.476	s-18.931-7.372-31.673-7.372c-9.465,0-17.748,1.547-24.938,4.824c-7.281,3.186-12.924,7.554-17.02,13.106	c-4.096,5.552-6.553,11.377-7.372,17.384c-0.819,5.916-1.274,14.926-1.274,27.031v48.784c0,16.291,1.365,28.577,4.005,36.769	c2.73,8.191,8.191,14.562,16.474,19.113c8.191,4.643,18.658,6.918,31.399,6.918c12.287,0,22.572-2.73,30.854-8.191	c8.373-5.37,13.743-11.741,16.2-19.022c2.457-7.19,3.641-19.478,3.641-36.77v-6.462h-31.581v44.688H77.174V88.596	c0-10.193-0.182-16.292-0.728-18.294c-0.455-2.002-1.82-3.55-4.004-4.551c-2.275-1.001-7.099-1.638-14.653-1.638h-3.276V49.096	c15.746-3.368,27.759-10.285,35.859-20.842h19.205v58.158H141.157z"/><g><path style="fill:#C93534;" d="M138.062,84.591V68.755c0-15.655-1.365-27.123-3.913-34.404	c-2.64-7.372-8.101-13.561-16.382-18.476c-8.283-4.915-18.84-7.372-31.673-7.372c-9.465,0-17.748,1.547-24.938,4.824	c-7.281,3.186-12.924,7.554-17.02,13.106c-4.096,5.552-6.553,11.377-7.372,17.384c-0.819,6.007-1.274,15.018-1.274,27.031v48.784	c0,16.291,1.365,28.577,4.096,36.769c2.548,8.191,8.1,14.562,16.382,19.113c8.191,4.643,18.658,6.918,31.4,6.918	c12.287,0,22.571-2.73,30.854-8.191c8.281-5.37,13.651-11.741,16.2-19.022c2.365-7.1,3.64-19.387,3.64-36.77v-6.462H106.48	v44.688H74.08V86.776c0-10.012-0.182-16.109-0.728-18.294c-0.455-2.002-1.82-3.549-4.096-4.551	c-2.184-1.001-7.008-1.638-14.562-1.638h-3.276V47.276c15.745-3.368,27.668-10.284,35.859-20.842h19.204v58.158H138.062z"/></g><g><path style="fill:#C93534;" d="M147.346,78.676h2.184v-1.274h-5.916v1.274h2.275v6.007h1.457V78.676z"/><path style="fill:#C93534;" d="M150.077,84.683h1.365v-5.825l1.546,5.825h1.365l1.548-5.825v5.825h1.365v-7.281h-2.275	l-1.365,5.006l-1.273-5.006h-2.275V84.683z"/></g></g></g><rect style="fill:none;" width="192.755" height="192.756"/></svg>